<?xml version="1.0" encoding="UTF-8" standalone="no"?>
<svg
   xmlns:dc="http://purl.org/dc/elements/1.1/"
   xmlns:cc="http://creativecommons.org/ns#"
   xmlns:rdf="http://www.w3.org/1999/02/22-rdf-syntax-ns#"
   xmlns:svg="http://www.w3.org/2000/svg"
   xmlns="http://www.w3.org/2000/svg"
   viewBox="0 0 2266.6667 1693.3333"
   height="1693.3333"
   width="2266.6667"
   xml:space="preserve"
   id="svg2"
   version="1.1"><metadata
     id="metadata8"><rdf:RDF><cc:Work
         rdf:about=""><dc:format>image/svg+xml</dc:format><dc:type
           rdf:resource="http://purl.org/dc/dcmitype/StillImage" /></cc:Work></rdf:RDF></metadata><defs
     id="defs6" /><g
     transform="matrix(1.3333333,0,0,-1.3333333,0,1693.3333)"
     id="g10"><g
       transform="scale(0.1)"
       id="g12"><g
         transform="scale(1.04294)"
         id="g14"><path
           id="path16"
           style="fill:#ffffff;fill-opacity:1;fill-rule:nonzero;stroke:none"
           d="M 16300,12177.1 V 0 H 0 v 12177.1 h 16300" /></g><path
         id="path18"
         style="fill:#f4d181;fill-opacity:1;fill-rule:nonzero;stroke:none"
         d="M 6877.57,5996.23 6180.31,3983.3 c -55.4,-159.94 -229.97,-244.7 -389.92,-189.29 l -1060.42,367.32 c -159.94,55.4 -244.69,229.98 -189.29,389.92 l 697.26,2012.93 -88.9,30.79 -720.2,-2079.17 c -61.41,-177.28 32.53,-370.79 209.82,-432.21 l 1175.4,-407.13 c 177.29,-61.42 370.79,32.51 432.21,209.81 l 720.2,2079.17 -88.9,30.79" /><path
         id="path20"
         style="fill:#f89f0e;fill-opacity:1;fill-rule:nonzero;stroke:none"
         d="m 4729.97,4161.33 1060.42,-367.32 c 159.95,-55.41 334.52,29.35 389.92,189.29 L 6817.7,5823.38 5178.07,6391.33 4540.68,4551.25 c -55.4,-159.94 29.35,-334.52 189.29,-389.92" /><path
         id="path22"
         style="fill:#f4d181;fill-opacity:1;fill-rule:nonzero;stroke:none"
         d="m 7075.69,5512.76 -326.42,113.07 -76.07,-219.61 301.3,-104.37 c 0,0 206.57,-71.56 125.3,-306.19 -81.28,-234.62 -206.09,-594.95 -206.09,-594.95 0,0 -54.73,-247.37 -322.67,-154.56 -133.37,46.21 -238.86,82.74 -267.57,92.69 l -75.96,-219.3 326.42,-113.07 c 220.58,-76.4 461.33,40.47 537.74,261.06 l 245.06,707.5 c 76.41,220.57 -40.46,461.33 -261.04,537.73" /><path
         id="path24"
         style="fill:#f7c44c;fill-opacity:1;fill-rule:nonzero;stroke:none"
         d="m 5511.91,5921.69 -307.52,106.52 -461.58,-1332.55 0.07,-0.03 -1,-2.66 c -29.42,-84.92 15.58,-177.61 100.5,-207.02 84.91,-29.42 177.6,15.57 207.01,100.5 0.31,0.9 0.57,1.81 0.87,2.72 l 0.07,-0.03 461.58,1332.55" /><path
         id="path26"
         style="fill:#f7c44c;fill-opacity:1;fill-rule:nonzero;stroke:none"
         d="m 6261.26,5662.12 307.52,-106.52 -461.58,-1332.54 -0.07,0.02 c -0.3,-0.91 -0.56,-1.82 -0.87,-2.72 -29.41,-84.92 -122.09,-129.91 -207.01,-100.5 -84.92,29.42 -129.92,122.1 -100.5,207.01 0.31,0.91 0.68,1.78 1,2.68 l -0.06,0.02 461.57,1332.55" /><path
         id="path28"
         style="fill:#f7c44c;fill-opacity:1;fill-rule:nonzero;stroke:none"
         d="m 6040.34,5738.65 -307.51,106.52 -461.58,-1332.55 0.07,-0.02 -1.01,-2.68 c -29.41,-84.92 15.58,-177.6 100.5,-207.02 84.92,-29.41 177.6,15.59 207.02,100.5 0.31,0.91 0.57,1.81 0.86,2.72 l 0.07,-0.02 461.58,1332.55" /><path
         id="path30"
         style="fill:#f4d181;fill-opacity:1;fill-rule:nonzero;stroke:none"
         d="M 6819.41,5828.32 6180.31,3983.3 c -55.4,-159.94 -229.97,-244.7 -389.92,-189.29 l -1060.42,367.32 c -159.94,55.4 -244.69,229.98 -189.29,389.92 l 639.09,1845.02 -88.89,30.79 -662.04,-1911.26 c -61.41,-177.28 32.53,-370.79 209.82,-432.21 l 1175.4,-407.13 c 177.29,-61.42 370.79,32.51 432.21,209.81 l 662.03,1911.26 -88.89,30.79" /><path
         id="path32"
         style="fill:#e8e8e7;fill-opacity:1;fill-rule:nonzero;stroke:none"
         d="m 5925.28,3657.65 c -36.89,0 -74.41,6.05 -111.22,18.81 l -1175.4,407.13 c -0.33,0.12 -0.67,0.24 -1,0.35 0.33,-0.11 0.66,-0.23 1,-0.35 l 1175.4,-407.13 c 36.81,-12.76 74.33,-18.81 111.22,-18.81 140.74,-0.01 272.33,88.14 320.99,228.62 v 0 l 70.13,202.48 -70.13,-202.48 c -48.66,-140.48 -180.25,-228.62 -320.99,-228.62 m 467.08,650.39 v 0 l 217.14,626.87 v 0 l -217.14,-626.87" /><path
         id="path34"
         style="fill:#dbba73;fill-opacity:1;fill-rule:nonzero;stroke:none"
         d="m 6246.27,3886.27 70.13,202.48 v 0 l -70.13,-202.48 m 146.09,421.77 v 0 l 217.14,626.87 v 0 l -217.14,-626.87" /><path
         id="path36"
         style="fill:#dbba73;fill-opacity:1;fill-rule:nonzero;stroke:none"
         d="m 6316.4,4088.75 v 0 0 l 75.96,219.29 v 0 0 l -75.96,-219.29" /><path
         id="path38"
         style="fill:#e8e8e7;fill-opacity:1;fill-rule:nonzero;stroke:none"
         d="m 5890.72,3777.04 v 0 c 0.06,0 0.13,0 0.19,0 -0.06,0 -0.13,0 -0.19,0 m -0.06,0 c -32.39,0.01 -65.29,5.19 -97.65,16.08 32.35,-10.89 65.27,-16.07 97.65,-16.08 m -98.06,16.22 c -0.74,0.25 -1.47,0.5 -2.21,0.75 0.74,-0.25 1.47,-0.5 2.21,-0.75 m 386.25,185.91 c 0.14,0.39 0.27,0.76 0.41,1.15 -0.14,-0.39 -0.27,-0.76 -0.41,-1.15 m 0.42,1.17 0.01,0.02 -0.01,-0.02" /><path
         id="path40"
         style="fill:#e59014;fill-opacity:1;fill-rule:nonzero;stroke:none"
         d="m 5890.72,3777.04 c -0.02,0 -0.04,0 -0.06,0 v 0 c -32.38,0.01 -65.3,5.19 -97.65,16.08 v 0 c -0.13,0.04 -0.27,0.09 -0.41,0.14 v 0 c -0.74,0.25 -1.47,0.5 -2.21,0.75 v 0 l -729.37,252.65 c 287.14,2.03 533.57,70.2 739.84,167.95 16.72,-42.91 51.46,-78.49 98.39,-94.75 17.64,-6.11 35.6,-9 53.27,-9 67.4,0 130.44,42.22 153.74,109.5 0.31,0.9 0.57,1.81 0.87,2.72 l 0.07,-0.02 83.12,239.97 c 94.08,77.32 172.2,155.77 234.42,225.91 l -121.27,-350.1 v 0 l -1.27,-3.65 -121.89,-351.89 v 0 c -0.34,-0.98 -0.68,-1.96 -1.03,-2.94 v 0 l -0.01,-0.02 v 0 c 0,-0.01 0,-0.01 -0.01,-0.02 v 0 c -0.14,-0.39 -0.27,-0.76 -0.41,-1.15 v 0 c -45,-124.25 -162.43,-202.04 -287.94,-202.13 v 0 c -0.06,0 -0.13,0 -0.19,0 v 0" /><path
         id="path42"
         style="fill:#ddb043;fill-opacity:1;fill-rule:nonzero;stroke:none"
         d="m 5952.52,4110.86 c -17.67,0 -35.63,2.89 -53.27,9 -46.93,16.26 -81.67,51.84 -98.39,94.75 151.31,71.72 281.01,159.3 389.46,248.42 l -83.12,-239.97 -0.07,0.02 c -0.3,-0.91 -0.56,-1.82 -0.87,-2.72 -23.3,-67.28 -86.34,-109.5 -153.74,-109.5" /><path
         id="path44"
         style="fill:#dbba73;fill-opacity:1;fill-rule:nonzero;stroke:none"
         d="m 5925.28,3657.65 c -36.89,0 -74.41,6.05 -111.22,18.81 l -1175.4,407.13 c -0.34,0.12 -0.67,0.24 -1,0.35 -10.23,3.58 -20.16,7.63 -29.81,12.06 156.08,-34.26 302.64,-49.39 440.11,-49.39 4.35,0 8.73,0.02 13.06,0.05 l 729.37,-252.65 c 0.74,-0.25 1.47,-0.5 2.21,-0.75 0.14,-0.05 0.28,-0.1 0.41,-0.14 32.36,-10.89 65.26,-16.07 97.65,-16.08 0.02,0 0.04,0 0.06,0 v 0 c 0.06,0 0.13,0 0.19,0 125.51,0.09 242.94,77.88 287.94,202.13 0.14,0.39 0.27,0.76 0.41,1.15 0.01,0.01 0.01,0.01 0.01,0.02 l 0.01,0.02 c 0.35,0.98 0.69,1.96 1.03,2.94 v 0 l 121.89,351.89 1.27,3.65 121.27,350.1 c 123.06,138.73 184.23,245.04 184.76,245.97 l -217.14,-626.87 -75.96,-219.29 -70.13,-202.48 c -48.66,-140.48 -180.25,-228.63 -320.99,-228.62" /><path
         id="path46"
         style="fill:#e79214;fill-opacity:1;fill-rule:nonzero;stroke:none"
         d="M 6817.7,5823.38 5179.75,6396.19 6749.24,5625.75 Z" /><path
         id="path48"
         style="fill:#f4ebca;fill-opacity:1;fill-rule:nonzero;stroke:none"
         d="m 7309.28,6022.21 c 24.96,125.32 -32.68,247.9 -135.26,311.47 65.76,171.68 17.28,373.21 -133.69,494.63 -146.46,117.79 -345.91,125.26 -497.92,33.34 -28.11,47.75 -72.64,86.16 -129.09,105.71 -60.09,20.82 -122.77,16.51 -176.69,-7.3 -10.97,180.43 -128.08,345.18 -309.53,408.04 -240.71,83.37 -503.43,-44.16 -586.8,-284.87 -12.44,-35.92 -20.15,-72.31 -23.53,-108.54 -26.03,14.29 -54.63,24.93 -85.3,31.03 -161.36,32.15 -318.23,-72.6 -350.37,-233.97 -32.14,-161.36 50.03,-294.88 209.78,-344.69 l 1837.96,-642.09 c 8.7,-2.58 17.58,-4.81 26.65,-6.62 161.36,-32.14 321.65,82.5 353.79,243.86" /><path
         id="path50"
         style="fill:#e3dcbc;fill-opacity:1;fill-rule:nonzero;stroke:none"
         d="m 7174.78,6333.19 -0.7,0.07 c 0,0 -383.2,-452.53 -2082.46,95.94 445.16,-155.85 1837.22,-644.23 1837.22,-644.23 8.7,-2.58 17.58,-4.81 26.65,-6.62 161.36,-32.14 321.65,82.5 353.79,243.86 24.9,125.01 -32.41,247.27 -134.5,310.98" /><path
         id="path52"
         style="fill:#fffdf4;fill-opacity:1;fill-rule:nonzero;stroke:none"
         d="m 6044.84,7225.6 c 2.04,-0.71 4.06,-1.47 6.08,-2.2 -38.39,34.66 -84.22,62.34 -136.16,80.34 -207.43,71.85 -433.83,-38.06 -505.68,-245.49 -17.29,-49.92 -24.03,-100.93 -21.44,-150.63 93.94,268.93 387.86,411.27 657.2,317.98" /><path
         id="path54"
         style="fill:#f4d181;fill-opacity:1;fill-rule:nonzero;stroke:none"
         d="M 1670.42,8039.19 2845.16,5834.25 c 93.34,-175.21 311.04,-241.56 486.25,-148.22 l 1161.56,618.85 c 175.2,93.34 241.56,311.05 148.22,486.25 l -1174.74,2204.94 97.38,51.88 1213.39,-2277.5 c 103.47,-194.2 29.91,-435.51 -164.29,-538.97 L 3325.42,5545.52 c -194.21,-103.47 -435.51,-29.92 -538.98,164.28 l -1213.4,2277.51 97.38,51.88" /><path
         id="path56"
         style="fill:#f89f0e;fill-opacity:1;fill-rule:nonzero;stroke:none"
         d="M 4492.97,6304.88 3331.41,5686.03 c -175.21,-93.34 -392.91,-26.99 -486.25,148.22 L 1771.3,7849.84 3567.33,8806.73 4641.19,6791.13 c 93.34,-175.2 26.98,-392.91 -148.22,-486.25" /><path
         id="path58"
         style="fill:#f4d181;fill-opacity:1;fill-rule:nonzero;stroke:none"
         d="m 1529.03,7442.96 357.55,190.5 128.17,-240.57 -330.04,-175.84 c 0,0 -226.28,-120.56 -89.35,-377.57 136.93,-257.01 347.22,-651.7 347.22,-651.7 0,0 108.5,-276.61 402,-120.24 146.09,77.83 261.64,139.4 293.09,156.15 l 127.98,-240.2 -357.56,-190.5 c -241.62,-128.73 -541.84,-37.22 -670.57,204.4 l -412.9,774.99 c -128.73,241.62 -37.21,541.85 204.41,670.58" /><path
         id="path60"
         style="fill:#f7c44c;fill-opacity:1;fill-rule:nonzero;stroke:none"
         d="m 3266.18,8201.79 336.84,179.46 777.67,-1459.67 -0.07,-0.04 c 0.54,-0.97 1.12,-1.92 1.65,-2.91 49.55,-93.01 14.32,-208.59 -78.7,-258.15 -93.01,-49.56 -208.59,-14.33 -258.15,78.69 -0.53,0.99 -0.99,2 -1.5,3 l -0.07,-0.04 -777.67,1459.66" /><path
         id="path62"
         style="fill:#f7c44c;fill-opacity:1;fill-rule:nonzero;stroke:none"
         d="M 2445.34,7764.46 2108.49,7585 l 777.67,-1459.66 0.08,0.04 c 0.51,-1 0.97,-2.01 1.5,-3 49.56,-93.01 165.13,-128.25 258.15,-78.69 93.02,49.56 128.25,165.14 78.69,258.16 -0.53,0.98 -1.1,1.93 -1.65,2.92 l 0.08,0.03 -777.67,1459.66" /><path
         id="path64"
         style="fill:#f7c44c;fill-opacity:1;fill-rule:nonzero;stroke:none"
         d="m 2687.34,7893.39 336.84,179.46 777.67,-1459.66 -0.08,-0.04 c 0.55,-0.97 1.13,-1.92 1.65,-2.91 49.56,-93.02 14.33,-208.6 -78.69,-258.15 -93.01,-49.56 -208.59,-14.33 -258.15,78.69 -0.53,0.99 -0.99,1.99 -1.5,2.99 l -0.08,-0.04 -777.66,1459.66" /><path
         id="path66"
         style="fill:#f4d181;fill-opacity:1;fill-rule:nonzero;stroke:none"
         d="m 1768.41,7855.25 1076.75,-2021 c 93.34,-175.21 311.04,-241.56 486.25,-148.22 l 1161.56,618.85 c 175.2,93.34 241.56,311.05 148.22,486.25 l -1076.74,2021.01 97.37,51.87 1115.4,-2093.56 c 103.47,-194.2 29.91,-435.51 -164.29,-538.97 L 3325.42,5545.52 c -194.21,-103.47 -435.51,-29.92 -538.98,164.28 l -1115.4,2093.58 97.37,51.87" /><path
         id="path68"
         style="fill:#e8e8e7;fill-opacity:1;fill-rule:nonzero;stroke:none"
         d="m 3138.42,5498.65 c -142.5,-0.01 -280.3,76.62 -351.98,211.15 l -118.17,221.81 118.17,-221.81 c 71.68,-134.53 209.48,-211.15 351.98,-211.15 63.19,0 127.33,15.08 187,46.87 l 1287.51,685.96 c 0.75,0.39 1.48,0.79 2.23,1.19 -0.74,-0.4 -1.48,-0.8 -2.23,-1.19 L 3325.42,5545.52 c -59.67,-31.79 -123.81,-46.87 -187,-46.87 m 24.28,145.09 c -0.04,0 -0.08,0 -0.12,0 0.04,0 0.08,0 0.12,0 v 0 m 0.09,0 c 56.99,0.02 114.81,13.62 168.62,42.29 -53.82,-28.68 -111.62,-42.28 -168.62,-42.29 m -315.2,186.01 c -0.82,1.5 -1.63,2.99 -2.43,4.5 0.8,-1.51 1.61,-3 2.43,-4.5 m -307.3,342.06 -365.83,686.67 v -0.01 l 365.83,-686.66 v 0" /><path
         id="path70"
         style="fill:#dbba73;fill-opacity:1;fill-rule:nonzero;stroke:none"
         d="m 2786.44,5709.8 -118.17,221.81 v 0 l 118.17,-221.81 m -246.15,462.01 -365.83,686.66 v 0 l 365.83,-686.66 v 0" /><path
         id="path72"
         style="fill:#e59014;fill-opacity:1;fill-rule:nonzero;stroke:none"
         d="m 3162.7,5643.74 v 0 c -0.04,0 -0.08,0 -0.12,0 v 0 c -126.9,0.06 -249.7,67.48 -314.99,186.01 v 0 c -0.82,1.5 -1.63,2.99 -2.43,4.5 v 0 l -79.51,149.24 v 0 l -127.98,240.2 v 0 l -204.29,383.45 c 84.89,-69.92 189.66,-146.57 312.77,-218.99 l 140.01,-262.81 0.08,0.04 c 0.51,-1 0.97,-2.01 1.5,-3 34.33,-64.43 100.34,-101.13 168.59,-101.14 30.27,0 60.98,7.22 89.56,22.45 51.4,27.39 85.15,74.94 96.71,127.69 173.63,-51.16 365.96,-83.28 575.31,-83.28 100.35,0 204.5,7.37 312.44,23.59 l -798.94,-425.66 v 0 c -53.81,-28.67 -111.63,-42.27 -168.62,-42.29 v 0 c -0.03,0 -0.07,0 -0.09,0" /><path
         id="path74"
         style="fill:#dbba73;fill-opacity:1;fill-rule:nonzero;stroke:none"
         d="m 2668.27,5931.61 -127.98,240.2 v 0 0 l 127.98,-240.2 v 0 m 97.38,51.88 -127.98,240.2 v 0 l 127.98,-240.2" /><path
         id="path76"
         style="fill:#ddb043;fill-opacity:1;fill-rule:nonzero;stroke:none"
         d="m 3056.33,6021.24 c -68.25,0.01 -134.26,36.71 -168.59,101.14 -0.53,0.99 -0.99,2 -1.5,3 l -0.08,-0.04 -140.01,262.81 c 141.86,-83.45 308.14,-161.29 496.45,-216.77 -11.56,-52.75 -45.31,-100.3 -96.71,-127.69 -28.58,-15.23 -59.29,-22.45 -89.56,-22.45" /><path
         id="path78"
         style="fill:#dbba73;fill-opacity:1;fill-rule:nonzero;stroke:none"
         d="m 3138.42,5498.65 c -142.5,0 -280.3,76.62 -351.98,211.15 v 0 l -118.17,221.81 -127.98,240.2 -365.83,686.66 c 0.75,-0.94 90.96,-112.98 258.92,-251.33 l 204.29,-383.45 127.98,-240.2 79.51,-149.24 c 0.8,-1.51 1.61,-3 2.43,-4.5 65.29,-118.53 188.09,-185.95 314.99,-186.01 0.04,0 0.08,0 0.12,0 v 0 c 0.02,0 0.06,0 0.09,0 57,0.01 114.8,13.61 168.62,42.29 l 798.94,425.66 c 163.71,24.59 336,69.51 516.02,139.78 -10.03,-6.67 -20.42,-12.96 -31.21,-18.8 -0.75,-0.4 -1.48,-0.8 -2.23,-1.19 L 3325.42,5545.52 c -59.67,-31.79 -123.81,-46.87 -187,-46.87" /><path
         id="path80"
         style="fill:#e79214;fill-opacity:1;fill-rule:nonzero;stroke:none"
         d="M 1771.3,7849.84 3564.49,8812.05 1886.63,7633.37 Z" /><path
         id="path82"
         style="fill:#f4ebca;fill-opacity:1;fill-rule:nonzero;stroke:none"
         d="m 1165.54,7990.59 c -51.76,140.63 -7.33,293.15 99.92,385.5 -107.49,186.92 -88.05,429.23 64.72,597.42 148.2,163.16 377.91,208.18 570.78,129.39 23.86,60.44 68.44,113.06 130.28,146.01 65.82,35.06 139.23,41.5 206.03,23.75 -20.18,211.02 85.46,423.25 284.22,529.15 263.67,140.47 591.29,40.6 731.76,-223.06 20.96,-39.35 36.53,-80.11 47.04,-121.46 27.55,21.29 58.75,38.83 93.17,51.5 181.08,66.65 381.91,-26.11 448.56,-207.2 66.65,-181.08 -4.2,-350.75 -180.2,-437.58 L 1649.53,7785.08 c -9.61,-4.56 -19.48,-8.77 -29.66,-12.52 -181.08,-66.65 -387.68,36.94 -454.33,218.03" /><path
         id="path84"
         style="fill:#e3dcbc;fill-opacity:1;fill-rule:nonzero;stroke:none"
         d="m 1264.67,8375.39 0.8,0.2 c 0,0 526.45,-454.41 2395.1,490.77 -487.32,-261.71 -2011.04,-1081.28 -2011.04,-1081.28 -9.61,-4.56 -19.48,-8.77 -29.66,-12.52 -181.08,-66.65 -387.68,36.94 -454.33,218.03 -51.63,140.28 -7.54,292.38 99.13,384.8" /><path
         id="path86"
         style="fill:#fffdf4;fill-opacity:1;fill-rule:nonzero;stroke:none"
         d="m 2411.06,9615.24 c -2.24,-1.19 -4.43,-2.43 -6.65,-3.65 38.16,47.15 86.21,87.58 143.11,117.9 227.21,121.06 509.54,34.99 630.59,-192.21 29.14,-54.69 46.24,-112.56 52.3,-170.62 -157.85,294.44 -524.32,405.77 -819.35,248.58" /><path
         id="path88"
         style="fill:#f4d181;fill-opacity:1;fill-rule:nonzero;stroke:none"
         d="M 15556.8,7393.31 14491.1,5393.09 c -84.7,-158.94 -282.2,-219.13 -441.1,-134.46 l -1053.7,561.4 c -159,84.68 -219.2,282.17 -134.5,441.1 l 1065.7,2000.22 -88.3,47.06 -1100.8,-2066.05 c -93.8,-176.16 -27.1,-395.06 149.1,-488.92 l 1167.9,-622.28 c 176.2,-93.85 395.1,-27.13 489,149.05 l 1100.7,2066.04 -88.3,47.06" /><path
         id="path90"
         style="fill:#f89f0e;fill-opacity:1;fill-rule:nonzero;stroke:none"
         d="m 12996.3,5820.03 1053.7,-561.4 c 158.9,-84.67 356.4,-24.48 441.1,134.46 l 974.2,1828.45 -1629.3,868.05 -974.2,-1828.46 c -84.7,-158.93 -24.5,-356.42 134.5,-441.1" /><path
         id="path92"
         style="fill:#f4d181;fill-opacity:1;fill-rule:nonzero;stroke:none"
         d="m 15685,6852.44 -324.3,172.81 -116.3,-218.23 299.4,-159.52 c 0,0 205.3,-109.36 81.1,-342.5 -124.3,-233.15 -315,-591.2 -315,-591.2 0,0 -98.4,-250.93 -364.7,-109.08 -132.5,70.61 -237.3,126.46 -265.9,141.66 l -116.1,-217.91 324.4,-172.81 c 219.2,-116.77 491.5,-33.76 608.3,185.43 l 374.6,703.03 c 116.7,219.19 33.7,491.54 -185.5,608.32" /><path
         id="path94"
         style="fill:#f7c44c;fill-opacity:1;fill-rule:nonzero;stroke:none"
         d="m 14109.2,7540.81 -305.6,162.79 -705.5,-1324.13 0.1,-0.04 -1.5,-2.63 c -44.9,-84.39 -13,-189.23 71.4,-234.19 84.4,-44.96 189.2,-13 234.2,71.38 0.5,0.9 0.9,1.81 1.3,2.72 l 0.1,-0.04 705.5,1324.14" /><path
         id="path96"
         style="fill:#f7c44c;fill-opacity:1;fill-rule:nonzero;stroke:none"
         d="m 14853.8,7144.09 305.6,-162.8 -705.5,-1324.14 -0.1,0.04 -1.3,-2.71 c -45,-84.39 -149.8,-116.35 -234.2,-71.4 -84.4,44.97 -116.3,149.81 -71.4,234.2 l 1.5,2.63 -0.1,0.04 705.5,1324.14" /><path
         id="path98"
         style="fill:#f7c44c;fill-opacity:1;fill-rule:nonzero;stroke:none"
         d="m 14634.3,7261.04 -305.6,162.81 -705.5,-1324.13 0.1,-0.04 -1.5,-2.65 c -44.9,-84.38 -13,-189.23 71.4,-234.18 84.4,-44.96 189.2,-13 234.2,71.38 0.5,0.9 0.9,1.81 1.3,2.72 l 0.1,-0.04 705.5,1324.13" /><path
         id="path100"
         style="fill:#f4d181;fill-opacity:1;fill-rule:nonzero;stroke:none"
         d="m 15467.9,7226.46 -976.8,-1833.37 c -84.7,-158.94 -282.2,-219.13 -441.1,-134.46 l -1053.7,561.4 c -159,84.68 -219.2,282.17 -134.5,441.1 l 976.8,1833.36 -88.3,47.06 -1011.9,-1899.19 c -93.8,-176.16 -27.1,-395.06 149.1,-488.92 l 1167.9,-622.28 c 176.2,-93.85 395.1,-27.13 489,149.05 l 1011.8,1899.19 -88.3,47.06" /><path
         id="path102"
         style="fill:#e8e8e7;fill-opacity:1;fill-rule:nonzero;stroke:none"
         d="m 14225.1,5088.65 c -57.4,0 -115.5,13.68 -169.7,42.51 l -1167.9,622.28 c -1.4,0.72 -2.8,1.46 -4.1,2.2 1.3,-0.74 2.7,-1.47 4.1,-2.2 l 1167.9,-622.28 c 54.2,-28.83 112.3,-42.51 169.7,-42.51 129.2,-0.01 254.2,69.51 319.3,191.56 v 0 c -65.1,-122.05 -190.1,-191.56 -319.3,-191.56 m -22.1,131.62 v 0 c 0.1,0 0.2,0 0.2,0 0,0 -0.1,0 -0.2,0 m 0,0 c -51.2,0.01 -103.2,12.12 -151.6,37.62 48.4,-25.49 100.4,-37.6 151.6,-37.62 m -152,37.85 c -0.4,0.17 -0.7,0.34 -1,0.51 0.3,-0.17 0.6,-0.34 1,-0.51 m 437.5,130.23 c 0.1,0.13 0.2,0.26 0.3,0.4 -0.1,-0.14 -0.2,-0.27 -0.3,-0.4 m 1.3,2.37 c 0.5,0.79 0.9,1.57 1.3,2.37 -0.4,-0.8 -0.8,-1.58 -1.3,-2.37" /><path
         id="path104"
         style="fill:#e59014;fill-opacity:1;fill-rule:nonzero;stroke:none"
         d="m 14203,5220.27 v 0 0 c -51.2,0.02 -103.2,12.13 -151.6,37.62 v 0 c -0.1,0.08 -0.3,0.16 -0.4,0.23 v 0 c -0.4,0.17 -0.7,0.34 -1,0.51 v 0 l -724.7,386.13 c 97.9,-14.71 192.3,-21.39 283.4,-21.39 189.9,0 364.4,29.14 521.9,75.55 10.4,-47.86 41.1,-90.99 87.7,-115.84 25.9,-13.81 53.8,-20.36 81.2,-20.36 62,0 121.8,33.3 153,91.76 l 1.3,2.71 0.1,-0.04 127,238.42 c 111.7,65.69 206.8,135.23 283.8,198.66 l -185.4,-347.85 v 0 l -116.1,-217.91 -72.1,-135.38 v 0 c -0.4,-0.8 -0.8,-1.58 -1.3,-2.37 v 0 c -0.3,-0.66 -0.7,-1.32 -1,-1.97 v 0 c -0.1,-0.14 -0.2,-0.27 -0.3,-0.4 v 0 c -59.3,-107.09 -170.4,-168.01 -285.3,-168.08 v 0 c 0,0 -0.1,0 -0.2,0 v 0" /><path
         id="path106"
         style="fill:#e8e8e7;fill-opacity:1;fill-rule:nonzero;stroke:none"
         d="m 12882.7,5756 c 0,0.03 -0.1,0.07 -0.1,0.1 0,-0.03 0.1,-0.07 0.1,-0.1" /><path
         id="path108"
         style="fill:#ddb043;fill-opacity:1;fill-rule:nonzero;stroke:none"
         d="m 14299.5,5562.72 c -27.4,0 -55.3,6.55 -81.2,20.36 -46.6,24.85 -77.3,67.98 -87.7,115.84 170.8,50.32 321.6,120.95 450.3,196.65 l -127,-238.42 -0.1,0.04 -1.3,-2.71 c -31.2,-58.46 -91,-91.76 -153,-91.76" /><path
         id="path110"
         style="fill:#dbba73;fill-opacity:1;fill-rule:nonzero;stroke:none"
         d="m 14225.1,5088.65 c -57.4,0 -115.5,13.68 -169.7,42.51 l -1167.9,622.28 c -1.4,0.73 -2.8,1.46 -4.1,2.2 -0.2,0.12 -0.4,0.24 -0.7,0.36 0,0.03 -0.1,0.07 -0.1,0.1 -8.8,4.85 -17.3,10.02 -25.5,15.46 163.3,-63.74 319.6,-104.49 468.2,-126.8 l 724.7,-386.13 c 0.3,-0.17 0.6,-0.34 1,-0.51 0.1,-0.07 0.3,-0.15 0.4,-0.23 48.4,-25.5 100.4,-37.61 151.6,-37.62 v 0 0 c 0.1,0 0.2,0 0.2,0 114.9,0.07 226,60.99 285.3,168.08 0.1,0.13 0.2,0.26 0.3,0.4 0.3,0.65 0.7,1.31 1,1.97 0.5,0.79 0.9,1.57 1.3,2.37 v 0 l 72.1,135.38 116.1,217.91 185.4,347.85 c 153,126.03 234.8,228 234.8,228 l -555.1,-1042.02 c -65.1,-122.05 -190.1,-191.57 -319.3,-191.56" /><path
         id="path112"
         style="fill:#e79214;fill-opacity:1;fill-rule:nonzero;stroke:none"
         d="m 15465.3,7221.54 -1626.7,872.87 1522,-1069.23 z" /><path
         id="path114"
         style="fill:#f4ebca;fill-opacity:1;fill-rule:nonzero;stroke:none"
         d="m 16014.8,7349.22 c 46.9,127.58 6.6,265.94 -90.7,349.72 97.5,169.55 79.9,389.37 -58.7,541.94 -134.4,148.02 -342.8,188.86 -517.8,117.38 -21.6,54.83 -62,102.56 -118.1,132.45 -59.8,31.81 -126.3,37.65 -186.9,21.55 18.3,191.42 -77.6,383.95 -257.9,480.02 -239.2,127.43 -536.4,36.83 -663.8,-202.36 -19,-35.68 -33.1,-72.66 -42.7,-110.18 -25,19.32 -53.3,35.23 -84.5,46.72 -164.3,60.47 -346.4,-23.69 -406.9,-187.95 -60.5,-164.28 3.8,-318.2 163.5,-396.96 l 1825.4,-978.76 c 8.7,-4.14 17.7,-7.96 26.9,-11.35 164.3,-60.46 351.7,33.5 412.2,197.78" /><path
         id="path116"
         style="fill:#e3dcbc;fill-opacity:1;fill-rule:nonzero;stroke:none"
         d="m 15924.9,7698.29 -0.8,0.19 c 0,0 -477.5,-412.22 -2172.7,445.2 442.1,-237.41 1824.3,-980.89 1824.3,-980.89 8.7,-4.14 17.7,-7.96 26.9,-11.35 164.3,-60.46 351.7,33.5 412.2,197.78 46.8,127.26 6.8,265.23 -89.9,349.07" /><path
         id="path118"
         style="fill:#fffdf4;fill-opacity:1;fill-rule:nonzero;stroke:none"
         d="m 14884.9,8823.04 c 2,-1.09 4,-2.21 6,-3.32 -34.6,42.77 -78.2,79.45 -129.8,106.95 -206.1,109.81 -462.2,31.75 -572,-174.37 -26.5,-49.6 -42,-102.1 -47.5,-154.77 143.2,267.11 475.7,368.09 743.3,225.51" /><path
         id="path120"
         style="fill:#dfeae6;fill-opacity:1;fill-rule:nonzero;stroke:none"
         d="m 11690.2,5932.9 c 455.1,126.82 747.1,583.14 661.6,1059.41 -12.9,71.49 -33.6,139.59 -61,203.6 l -510.5,1231.34 -95.2,-17.11 -17,-3.06 -501.9,-90.16 -489.5,-87.95 -29.9,-5.37 -81.9,-14.7 -50,-1332.03 c -3.4,-69.54 0.9,-140.59 13.7,-212.08 84.8,-471.83 510.2,-796.32 975.9,-763.9 l 155.1,-863.3 c -118.8,-34.32 -329.8,-104.95 -540.7,-223.02 l 13.3,-74.19 661.5,118.84 661.5,118.83 -13.4,74.18 c -247.1,38.58 -476.7,29.5 -597,19.93 l -154.6,860.74" /><path
         id="path122"
         style="fill:#692227;fill-opacity:1;fill-rule:nonzero;stroke:none"
         d="m 12142.7,7276.67 -1517,-272.52 -4.1,-98.12 c -3.1,-61.07 0.7,-123.44 12,-186.21 79.7,-443.76 502.7,-739.16 944.7,-659.75 441.9,79.4 735.6,503.51 655.9,947.29 -11.3,62.77 -29.4,122.56 -53.5,178.75 l -38,90.56" /><path
         id="path124"
         style="fill:#e8e8e7;fill-opacity:1;fill-rule:nonzero;stroke:none"
         d="m 11659.6,5037.59 -155.1,863.3 c -21.5,-1.5 -42.8,-2.23 -64.1,-2.23 -20.5,0 -41,0.69 -61.3,2.05 20.3,-1.36 40.8,-2.05 61.3,-2.05 21.3,0 42.6,0.73 64.1,2.23 l 155.1,-863.3 v 0 m -280.7,863.14 c -0.3,0.01 -0.6,0.03 -0.8,0.05 0.2,-0.02 0.5,-0.04 0.8,-0.05 m -1.4,0.09 c -0.2,0.01 -0.4,0.03 -0.6,0.04 0.2,-0.01 0.4,-0.03 0.6,-0.04 m -1.3,0.09 c -0.2,0.01 -0.4,0.03 -0.6,0.04 0.2,-0.01 0.4,-0.03 0.6,-0.04 m -1.4,0.1 c -0.1,0.01 -0.3,0.02 -0.4,0.03 0.1,-0.01 0.3,-0.02 0.4,-0.03 m -1.4,0.1 c -0.1,0.01 -0.2,0.01 -0.3,0.02 0.1,-0.01 0.2,-0.01 0.3,-0.02 m -1.3,0.1 c -0.1,0 -0.2,0.01 -0.3,0.02 0.1,-0.01 0.2,-0.01 0.3,-0.02 m -1.5,0.11 v 0 0" /><path
         id="path126"
         style="fill:#c7d3ce;fill-opacity:1;fill-rule:nonzero;stroke:none"
         d="m 11132.2,4740.38 -13.3,74.19 c 210.9,118.07 421.9,188.7 540.7,223.02 v 0 0 l -155.1,863.3 c -21.5,-1.5 -42.8,-2.23 -64.1,-2.23 -20.5,0 -41,0.69 -61.3,2.05 -0.1,0.01 -0.2,0.01 -0.2,0.02 -0.3,0.01 -0.6,0.03 -0.8,0.05 -0.2,0.01 -0.4,0.02 -0.6,0.04 -0.2,0.01 -0.4,0.03 -0.6,0.04 -0.2,0.02 -0.5,0.03 -0.7,0.05 -0.2,0.01 -0.4,0.03 -0.6,0.04 -0.2,0.02 -0.5,0.04 -0.8,0.06 -0.1,0.01 -0.3,0.02 -0.4,0.03 -0.3,0.02 -0.7,0.05 -1,0.07 -0.1,0.01 -0.2,0.01 -0.3,0.02 -0.3,0.03 -0.7,0.05 -1,0.08 -0.1,0.01 -0.2,0.01 -0.3,0.02 -0.4,0.03 -0.8,0.06 -1.2,0.09 v 0 c -209,15.97 -403.3,102.93 -553.9,240.55 60.8,10.92 118.8,23.67 173.9,38.05 129.3,-84.64 282.7,-132.75 443.5,-132.75 47.5,0 95.7,4.2 144.2,12.9 441.9,79.4 735.6,503.51 655.9,947.29 -11.3,62.77 -29.4,122.56 -53.5,178.75 l -38,90.56 -118.6,-21.3 c 54,340.77 -16.7,624.12 -16.7,624.19 l 283.4,-683.65 c 27.4,-64.01 48.1,-132.11 61,-203.6 10,-55.82 14.8,-111.35 14.8,-166.12 0,-412.57 -274.7,-781.33 -676.4,-893.29 v 0 0 l 154.6,-860.74 c 52.9,4.21 127.1,8.33 214.6,8.33 6.9,0 14,-0.03 21.1,-0.08 -7.1,0.05 -14.2,0.08 -21.1,0.08 -81.5,0 -151.3,-3.57 -203.3,-7.46 0,0 0.3,0 1,0 0.6,0.01 1.6,0.01 2.8,0.01 36.5,0 323.1,-3.61 474.7,-116.65 l -540.9,-97.17 -661.5,-118.84" /><path
         id="path128"
         style="fill:#5c1e22;fill-opacity:1;fill-rule:nonzero;stroke:none"
         d="m 11434.1,6047.17 c -160.8,0 -314.2,48.11 -443.5,132.75 732.4,191.16 969.8,673.29 1033.5,1075.45 l 118.6,21.3 38,-90.56 c 24.1,-56.19 42.2,-115.98 53.5,-178.75 79.7,-443.78 -214,-867.89 -655.9,-947.29 -48.5,-8.7 -96.7,-12.9 -144.2,-12.9" /><path
         id="path130"
         style="fill:#f3fbfa;fill-opacity:1;fill-rule:nonzero;stroke:none"
         d="m 10649.8,7337.13 29.5,615.54 c 4.7,99.33 77.5,182.21 175.4,199.8 l 172.7,31.04 c 0,0 -309.3,-125.76 -377.6,-846.38" /><path
         id="path132"
         style="fill:#e8e8e7;fill-opacity:1;fill-rule:nonzero;stroke:none"
         d="m 12334.6,4956.39 v 0 l 120.6,21.66 -120.6,-21.66 m 107.2,95.84 c -129.7,20.24 -254.5,27.37 -361.3,28.18 106.8,-0.81 231.6,-7.93 361.3,-28.18" /><path
         id="path134"
         style="fill:#b1bbb6;fill-opacity:1;fill-rule:nonzero;stroke:none"
         d="m 12334.6,4956.39 c -151.6,113.04 -438.2,116.65 -474.7,116.65 -1.2,0 -2.2,0 -2.8,-0.01 -0.7,0 -1,0 -1,0 52,3.89 121.8,7.46 203.3,7.46 6.9,0 14,-0.03 21.1,-0.08 106.8,-0.81 231.6,-7.94 361.3,-28.18 v 0 l 13.4,-74.18 -120.6,-21.66" /><path
         id="path136"
         style="fill:#faba81;fill-opacity:1;fill-rule:nonzero;stroke:none"
         d="m 7616.72,4751.85 -11.34,278.36 -590.15,210.88 -52.53,-195.13 319.24,-235.68 L 6876.38,4022.11 6590,4010 l -20,-160 -180,-680 600,-280 134.81,1135.75 501.67,486.68 -9.76,239.42" /><path
         id="path138"
         style="fill:#faba81;fill-opacity:1;fill-rule:nonzero;stroke:none"
         d="m 6915.09,5051.57 254.75,-274.95 -355.94,-620.73 -279.54,15.95 -107.13,236.87 348.09,650.84 139.77,-7.98" /><path
         id="path140"
         style="fill:#8c6250;fill-opacity:1;fill-rule:nonzero;stroke:none"
         d="m 1260,3810 240,1790 -570,650 210,470 630,110 40,-220 -297.51,-190.24 258.81,-477.01 151.52,-139.1 426.65,-37.2 L 2170,5460 2290,3810 H 1260" /><path
         id="path142"
         style="fill:#8c6250;fill-opacity:1;fill-rule:nonzero;stroke:none"
         d="m 2000,6700 -330,-250 250,-470 390,-60 40,260 -350,520" /><path
         id="path144"
         style="fill:#c15f53;fill-opacity:1;fill-rule:nonzero;stroke:none"
         d="M 5120,0 6180,3390 7170,2890 7010,0 H 5120" /><path
         id="path146"
         style="fill:#ba8278;fill-opacity:1;fill-rule:nonzero;stroke:none"
         d="m 12030,5360 30,520 -110,156.84 -217.3,-87.61 -2.7,0.77 -1070,390 -160,-230 610,-600 390,-260 c 0,0 -220,-2490 -180,-2480 40,10 1090,30 1090,30 0,0 -309.5,1897.28 -380,2560" /><path
         id="path148"
         style="fill:#96a083;fill-opacity:1;fill-rule:nonzero;stroke:none"
         d="M 2810,0 2467.82,4004.43 1087.08,4280.59 520,0 h 2290" /><path
         id="path150"
         style="fill:#adb694;fill-opacity:1;fill-rule:nonzero;stroke:none"
         d="m 2350,4350 -1110,300 -50,-390 1160,-240 v 330" /><path
         id="path152"
         style="fill:#69a2c0;fill-opacity:1;fill-rule:nonzero;stroke:none"
         d="m 10770,0 520,3920 1120,-140 380,-3780 h -2020" /><path
         id="path154"
         style="fill:#e7ae9d;fill-opacity:1;fill-rule:nonzero;stroke:none"
         d="m 15507,5089.23 119.4,367.38 85.7,150.32 -128.5,512.3 -115.1,-57.66 -0.3,2.83 -185.6,24.2 -105,-188.88 -74.7,94.15 -180.4,-20.92 -32.1,-97.01 -53.8,137.4 -136.1,-73.72 80.7,-189.69 -7.1,-2.27 -55.7,-493.66 29.8,-143.22 21.1,-230.78 -540,-2270 1490.7,70 -250.8,2296.46 37.8,112.77" /><path
         id="path156"
         style="fill:#9f785b;fill-opacity:1;fill-rule:nonzero;stroke:none"
         d="m 14110,2680 h 1710 L 15920,1360 16290,0 h -2580 l 400,2680" /><path
         id="path158"
         style="fill:#6193ac;fill-opacity:1;fill-rule:nonzero;stroke:none"
         d="m 11142.5,2808.34 c 0,0 -272.5,1101.66 -322.5,1171.66 -50,70 330,180 330,180 0,0 190,-250 390,-180 200,70 320,-30 400,-60 80,-30 330,110 370,150 40,40 410,-170 390,-230 -20,-60 -216.7,-788.67 -216.7,-788.67 l -1340.8,-242.99" /><path
         id="path160"
         style="fill:#dfeae6;fill-opacity:1;fill-rule:nonzero;stroke:none"
         d="m 9041.62,7331.25 c 439.21,-174.14 947.71,12.81 1167.48,443.91 33,64.71 57.7,131.46 74.5,199.03 l 337.8,1289.46 -86.2,43.96 -15.4,7.84 -454.3,231.6 -443.1,225.89 -27.06,13.8 -74.09,37.76 -845.1,-1030.83 c -44.79,-53.31 -84.29,-112.52 -117.28,-177.22 -217.73,-427.09 -75.07,-942.73 315.48,-1198.44 l -398.37,-781.44 c -115.35,44.47 -326.13,115.76 -565.49,149.21 l -34.23,-67.14 598.74,-305.25 598.75,-305.24 34.23,67.15 c -173.54,180.15 -361.92,311.72 -463.55,376.83 l 397.19,779.12" /><path
         id="path162"
         style="fill:#692227;fill-opacity:1;fill-rule:nonzero;stroke:none"
         d="m 10214.5,8128.09 -1373.19,700.02 -62.57,-75.69 c -39.33,-46.82 -74.01,-98.79 -102.98,-155.6 -204.78,-401.69 -46.46,-892.67 353.61,-1096.63 400.07,-203.95 890.41,-43.65 1095.23,358.04 28.9,56.81 50.6,115.41 65.4,174.74 l 24.5,95.12" /><path
         id="path164"
         style="fill:#e8e8e7;fill-opacity:1;fill-rule:nonzero;stroke:none"
         d="m 8873.18,7418.78 c -0.24,0.15 -0.5,0.33 -0.74,0.48 0.26,-0.17 0.48,-0.31 0.74,-0.48 m -1.18,0.77 c -0.27,0.18 -0.53,0.35 -0.8,0.54 0.26,-0.18 0.54,-0.37 0.8,-0.54 m -1.17,0.78 c -0.29,0.19 -0.58,0.38 -0.87,0.57 0.31,-0.2 0.56,-0.37 0.87,-0.57 m -1.14,0.75 c -0.31,0.21 -0.65,0.43 -0.97,0.64 0.34,-0.22 0.64,-0.42 0.97,-0.64 m -1.11,0.74 c -32.46,21.6 -63.21,45.03 -92.13,70.05 28.93,-25.03 59.66,-48.44 92.13,-70.05 m -92.45,70.32 c -0.18,0.16 -0.38,0.33 -0.57,0.5 0.19,-0.17 0.38,-0.34 0.57,-0.5 m -1.1,0.95 c -0.16,0.15 -0.32,0.28 -0.48,0.43 0.16,-0.15 0.31,-0.28 0.48,-0.43 m -1.1,0.96 c -0.14,0.12 -0.28,0.24 -0.42,0.37 0.13,-0.11 0.29,-0.26 0.42,-0.37 m -1.13,0.99 c -0.1,0.09 -0.22,0.19 -0.32,0.28 0.1,-0.09 0.22,-0.19 0.32,-0.28 m -1.17,1.02 c -0.07,0.06 -0.13,0.11 -0.2,0.17 0.07,-0.05 0.14,-0.11 0.2,-0.17 m -1.24,1.09 v 0 0" /><path
         id="path166"
         style="fill:#c7d3ce;fill-opacity:1;fill-rule:nonzero;stroke:none"
         d="m 8964.63,6163.78 -489.63,249.61 -598.74,305.25 34.23,67.14 c 239.36,-33.45 450.14,-104.74 565.49,-149.21 l 398.37,781.44 v 0 0 c -0.39,0.26 -0.77,0.51 -1.17,0.77 -0.26,0.17 -0.48,0.31 -0.74,0.48 -0.15,0.1 -0.29,0.2 -0.44,0.29 -0.26,0.17 -0.54,0.36 -0.8,0.54 -0.12,0.07 -0.25,0.16 -0.37,0.24 -0.31,0.2 -0.56,0.37 -0.87,0.57 -0.09,0.06 -0.17,0.12 -0.27,0.18 -0.33,0.22 -0.63,0.42 -0.97,0.64 -0.05,0.04 -0.08,0.06 -0.14,0.1 -32.47,21.61 -63.2,45.02 -92.13,70.05 -0.11,0.09 -0.21,0.18 -0.32,0.27 -0.19,0.16 -0.38,0.33 -0.57,0.5 -0.18,0.15 -0.35,0.3 -0.53,0.45 -0.17,0.15 -0.32,0.28 -0.48,0.43 -0.21,0.18 -0.41,0.35 -0.62,0.53 -0.13,0.11 -0.29,0.26 -0.42,0.37 -0.23,0.2 -0.48,0.41 -0.71,0.62 -0.1,0.09 -0.22,0.19 -0.32,0.28 -0.28,0.24 -0.57,0.49 -0.85,0.74 -0.06,0.06 -0.13,0.12 -0.2,0.17 -0.34,0.31 -0.69,0.62 -1.04,0.92 v 0 c -158.17,139.26 -261.23,326.9 -298.2,528.61 55.06,-28.07 108.92,-52.95 161.49,-74.8 67.18,-188.65 203.57,-352.82 395.69,-450.77 117.84,-60.07 243.58,-88.54 367.48,-88.55 296.74,-0.02 583.25,163.22 727.75,446.59 28.9,56.81 50.6,115.41 65.4,174.74 l 24.5,95.12 -107.4,54.73 c 249,238.79 364,507.22 364.1,507.29 l -187.6,-715.92 c -16.8,-67.57 -41.5,-134.32 -74.5,-199.03 -164.5,-322.75 -490.86,-508.64 -828.83,-508.64 -113.46,0 -228.26,20.96 -338.65,64.73 l -397.19,-779.12 v 0 c 65.45,-41.93 166.86,-111.42 277.13,-203.69 -105.06,87.91 -202.08,155.14 -267.61,197.56 0.11,-0.09 254.61,-187.96 310.68,-382.22" /><path
         id="path168"
         style="fill:#c7d3ce;fill-opacity:1;fill-rule:nonzero;stroke:none"
         d="m 9106.98,6176.35 c -0.08,0.07 -0.17,0.17 -0.24,0.24 0.07,-0.07 0.16,-0.17 0.24,-0.24 m -1.02,1.05 c -0.08,0.08 -0.15,0.16 -0.24,0.24 0.09,-0.09 0.16,-0.16 0.24,-0.24 m -1,1.03 c -0.1,0.11 -0.21,0.22 -0.31,0.32 0.11,-0.11 0.21,-0.21 0.31,-0.32 m -1.01,1.04 c -0.09,0.1 -0.2,0.21 -0.29,0.31 0.09,-0.1 0.2,-0.21 0.29,-0.31 m -1.01,1.05 c -0.11,0.11 -0.21,0.21 -0.32,0.33 0.12,-0.12 0.21,-0.21 0.32,-0.33 m -0.99,1.02 c -0.12,0.12 -0.25,0.25 -0.36,0.37 0.12,-0.12 0.24,-0.25 0.36,-0.37 m -1.02,1.05 c -0.11,0.11 -0.23,0.23 -0.33,0.34 0.1,-0.11 0.22,-0.23 0.33,-0.34 m -1,1.02 c -0.12,0.13 -0.25,0.27 -0.38,0.39 0.13,-0.13 0.25,-0.26 0.38,-0.39 m -1,1.04 c -0.13,0.12 -0.25,0.25 -0.38,0.38 0.12,-0.12 0.26,-0.26 0.38,-0.38 m -1.03,1.04 c -0.1,0.11 -0.21,0.23 -0.32,0.33 0.11,-0.11 0.22,-0.22 0.32,-0.33 m -1.03,1.06 c -0.1,0.1 -0.18,0.18 -0.27,0.28 0.08,-0.09 0.18,-0.19 0.27,-0.28 m -1,1.03 c -0.11,0.1 -0.19,0.19 -0.3,0.3 0.11,-0.11 0.19,-0.19 0.3,-0.3 m -1.01,1.02 c -0.1,0.1 -0.22,0.23 -0.32,0.33 0.1,-0.11 0.22,-0.22 0.32,-0.33 m -1,1.02 c -0.11,0.12 -0.22,0.23 -0.34,0.35 0.12,-0.12 0.22,-0.23 0.34,-0.35 m -1,1.02 c -0.11,0.12 -0.24,0.24 -0.35,0.36 0.11,-0.12 0.23,-0.24 0.35,-0.36 m -1.03,1.05 c -0.11,0.1 -0.21,0.21 -0.31,0.32 0.1,-0.11 0.2,-0.21 0.31,-0.32 m -1.01,1.02 c -0.11,0.12 -0.22,0.22 -0.33,0.34 0.1,-0.11 0.22,-0.23 0.33,-0.34 m -1.01,1.02 c -0.11,0.12 -0.21,0.22 -0.33,0.34 0.11,-0.11 0.23,-0.23 0.33,-0.34 m -1.03,1.05 c -0.1,0.1 -0.19,0.2 -0.3,0.3 0.11,-0.11 0.2,-0.2 0.3,-0.3 m -1.02,1.03 c -0.1,0.1 -0.19,0.19 -0.29,0.29 0.1,-0.1 0.19,-0.18 0.29,-0.29 m -1.02,1.03 c -0.09,0.09 -0.18,0.19 -0.28,0.28 0.1,-0.1 0.18,-0.18 0.28,-0.28 m -1.04,1.05 c -0.07,0.07 -0.17,0.17 -0.24,0.24 0.07,-0.07 0.17,-0.17 0.24,-0.24 m -1.1,1.1 c -0.04,0.04 -0.08,0.09 -0.12,0.13 0.04,-0.04 0.08,-0.08 0.12,-0.13 m -1.02,1.03 c -0.04,0.04 -0.08,0.09 -0.12,0.13 0.04,-0.05 0.08,-0.08 0.12,-0.13 m -1.08,1.09 c -0.01,0.01 -0.04,0.03 -0.05,0.04 0.01,-0.01 0.04,-0.03 0.05,-0.04 m -16.44,16.32 c -0.01,0.01 -0.01,0.02 -0.02,0.03 0.01,-0.01 0.01,-0.02 0.02,-0.03 m -1.02,1.01 c -0.01,0.01 -0.02,0.01 -0.03,0.02 0.01,-0.01 0.02,-0.01 0.03,-0.02 m -1.03,1.01 c -0.01,0.01 -0.01,0.01 -0.03,0.02 l 0.03,-0.02 m -1.01,0.99 c -0.03,0.03 -0.04,0.03 -0.07,0.06 0.02,-0.02 0.05,-0.04 0.07,-0.06 m -1.03,1 c -0.02,0.02 -0.04,0.04 -0.06,0.06 0.02,-0.02 0.04,-0.04 0.06,-0.06 m -1.04,1.02 -0.02,0.02 0.02,-0.02 m -3.09,3.01 -0.01,0.01 0.01,-0.01 m -1.03,1 v 0.01 -0.01 m -90.4,83.36 c -0.01,0.01 0,0 -0.01,0.01 l 0.01,-0.01 m -1.01,0.89 c -0.01,0.01 -0.01,0.01 -0.02,0.02 l 0.02,-0.02 m -1.01,0.88 c -0.01,0.01 -0.04,0.03 -0.05,0.04 0.02,-0.02 0.02,-0.02 0.05,-0.04 m -0.99,0.86 c -0.04,0.04 -0.08,0.07 -0.12,0.11 0.04,-0.04 0.08,-0.07 0.12,-0.11 m -1.04,0.92 c -0.01,0.01 -0.05,0.04 -0.06,0.04 0.02,-0.01 0.04,-0.02 0.06,-0.04 m -2.06,1.79 c -0.01,0.01 0,0 -0.01,0.01 l 0.01,-0.01 m -3.03,2.63 c -0.02,0.02 -0.04,0.04 -0.06,0.05 0.02,-0.01 0.04,-0.03 0.06,-0.05 m -1.03,0.89 c -0.01,0.01 -0.02,0.03 -0.03,0.04 0.01,-0.01 0.02,-0.03 0.03,-0.04 m -0.95,0.83 c -0.04,0.04 -0.09,0.08 -0.13,0.12 0.04,-0.04 0.08,-0.08 0.13,-0.12 m -1.09,0.95 c -0.01,0.01 -0.01,0 -0.02,0.01 l 0.02,-0.01 m -1.02,0.88 c -0.01,0.01 -0.01,0 -0.02,0.01 l 0.02,-0.01 m -1,0.86 c -0.01,0.01 -0.02,0.02 -0.03,0.03 0.01,-0.01 0.02,-0.02 0.03,-0.03 m -0.96,0.83 c -0.03,0.03 -0.08,0.07 -0.11,0.09 0.04,-0.03 0.07,-0.05 0.11,-0.09 m -1.02,0.88 c -0.03,0.03 -0.06,0.05 -0.1,0.08 0.04,-0.03 0.07,-0.05 0.1,-0.08 m -8.15,7 c -0.12,0.09 -0.23,0.19 -0.35,0.29 0.12,-0.1 0.23,-0.19 0.35,-0.29 m -1.01,0.86 c -0.11,0.09 -0.2,0.17 -0.31,0.26 0.1,-0.09 0.2,-0.17 0.31,-0.26 m -1,0.85 c -0.12,0.11 -0.26,0.22 -0.38,0.32 0.13,-0.11 0.25,-0.21 0.38,-0.32 m -0.97,0.82 c -0.17,0.15 -0.35,0.31 -0.53,0.45 0.18,-0.15 0.35,-0.29 0.53,-0.45 m -0.99,0.85 c -0.16,0.14 -0.34,0.28 -0.5,0.42 0.17,-0.14 0.33,-0.28 0.5,-0.42 m -1.01,0.86 c -0.14,0.11 -0.28,0.23 -0.41,0.35 0.14,-0.12 0.27,-0.23 0.41,-0.35 m -1.02,0.86 c -0.14,0.13 -0.29,0.25 -0.43,0.37 0.13,-0.11 0.29,-0.25 0.43,-0.37 m -0.95,0.81 c -0.18,0.16 -0.35,0.3 -0.54,0.46 0.18,-0.16 0.36,-0.31 0.54,-0.46 m -0.99,0.84 c -0.19,0.16 -0.38,0.32 -0.56,0.47 0.19,-0.16 0.37,-0.31 0.56,-0.47 m -0.97,0.82 c -0.2,0.17 -0.39,0.33 -0.6,0.51 0.2,-0.17 0.4,-0.34 0.6,-0.51 m -1,0.84 c -0.21,0.19 -0.41,0.35 -0.62,0.53 0.2,-0.16 0.42,-0.36 0.62,-0.53 m -0.95,0.81 c -0.22,0.18 -0.41,0.35 -0.63,0.53 0.21,-0.18 0.42,-0.35 0.63,-0.53 m -1.04,0.88 c -0.19,0.16 -0.38,0.32 -0.57,0.48 0.19,-0.16 0.38,-0.32 0.57,-0.48 m -0.96,0.81 c -0.21,0.18 -0.45,0.38 -0.66,0.56 0.22,-0.19 0.44,-0.38 0.66,-0.56 m -0.93,0.78 c -0.26,0.22 -0.5,0.42 -0.75,0.63 0.25,-0.21 0.5,-0.41 0.75,-0.63 m -0.95,0.81 c -0.26,0.21 -0.52,0.43 -0.78,0.65 0.26,-0.22 0.51,-0.43 0.78,-0.65 m -1,0.83 c -0.25,0.21 -0.51,0.43 -0.77,0.65 0.26,-0.21 0.52,-0.44 0.77,-0.65 m -0.97,0.82 c -0.25,0.21 -0.52,0.43 -0.77,0.65 0.25,-0.22 0.52,-0.44 0.77,-0.65 m -0.99,0.83 c -0.25,0.21 -0.53,0.45 -0.79,0.66 0.26,-0.22 0.53,-0.44 0.79,-0.66 m -0.91,0.77 c -0.3,0.24 -0.59,0.49 -0.89,0.74 0.31,-0.26 0.58,-0.49 0.89,-0.74 m -0.92,0.76 c -0.31,0.27 -0.63,0.54 -0.95,0.8 0.32,-0.26 0.64,-0.53 0.95,-0.8" /><path
         id="path170"
         style="fill:#5c1e22;fill-opacity:1;fill-rule:nonzero;stroke:none"
         d="m 9396.85,7411.64 c -123.9,0.01 -249.64,28.48 -367.48,88.55 -192.12,97.95 -328.51,262.12 -395.69,450.77 224.49,-93.3 426.21,-131.8 606.71,-131.77 381.51,0.05 667.2,172.32 866.71,363.63 l 107.4,-54.73 -24.5,-95.12 c -14.8,-59.33 -36.5,-117.93 -65.4,-174.74 -144.5,-283.37 -431.01,-446.61 -727.75,-446.59" /><path
         id="path172"
         style="fill:#f3fbfa;fill-opacity:1;fill-rule:nonzero;stroke:none"
         d="m 9061.83,9078.77 395.6,472.5 c 63.85,76.25 171.91,98.28 260.51,53.11 l 156.36,-79.7 c 0,0 -322.36,86.78 -812.47,-445.91" /><path
         id="path174"
         style="fill:#e8e8e7;fill-opacity:1;fill-rule:nonzero;stroke:none"
         d="m 9106.74,6176.59 c -0.26,0.27 -0.52,0.54 -0.78,0.81 0.26,-0.27 0.52,-0.54 0.78,-0.81" /><path
         id="path176"
         style="fill:#e8e8e7;fill-opacity:1;fill-rule:nonzero;stroke:none"
         d="m 9105.72,6177.64 c -0.25,0.27 -0.5,0.53 -0.76,0.79 0.26,-0.27 0.51,-0.52 0.76,-0.79" /><path
         id="path178"
         style="fill:#e8e8e7;fill-opacity:1;fill-rule:nonzero;stroke:none"
         d="m 9104.65,6178.75 c -0.23,0.24 -0.47,0.48 -0.7,0.72 0.24,-0.24 0.46,-0.47 0.7,-0.72" /><path
         id="path180"
         style="fill:#e8e8e7;fill-opacity:1;fill-rule:nonzero;stroke:none"
         d="m 9103.66,6179.78 c -0.24,0.24 -0.48,0.49 -0.72,0.74 0.24,-0.25 0.48,-0.5 0.72,-0.74" /><path
         id="path182"
         style="fill:#e8e8e7;fill-opacity:1;fill-rule:nonzero;stroke:none"
         d="m 9102.62,6180.85 c -0.22,0.23 -0.45,0.46 -0.67,0.69 0.22,-0.23 0.44,-0.46 0.67,-0.69" /><path
         id="path184"
         style="fill:#e8e8e7;fill-opacity:1;fill-rule:nonzero;stroke:none"
         d="m 9101.59,6181.91 c -0.22,0.23 -0.44,0.45 -0.66,0.68 0.22,-0.23 0.43,-0.45 0.66,-0.68" /><path
         id="path186"
         style="fill:#e8e8e7;fill-opacity:1;fill-rule:nonzero;stroke:none"
         d="m 9100.6,6182.93 c -0.22,0.23 -0.45,0.45 -0.67,0.68 0.23,-0.23 0.44,-0.45 0.67,-0.68" /><path
         id="path188"
         style="fill:#e8e8e7;fill-opacity:1;fill-rule:nonzero;stroke:none"
         d="m 9099.55,6184 c -0.21,0.22 -0.41,0.43 -0.62,0.65 0.2,-0.22 0.42,-0.44 0.62,-0.65" /><path
         id="path190"
         style="fill:#e8e8e7;fill-opacity:1;fill-rule:nonzero;stroke:none"
         d="m 9098.55,6185.03 c -0.22,0.23 -0.42,0.44 -0.65,0.66 0.23,-0.23 0.43,-0.43 0.65,-0.66" /><path
         id="path192"
         style="fill:#e8e8e7;fill-opacity:1;fill-rule:nonzero;stroke:none"
         d="m 9097.58,6186.02 c -0.23,0.24 -0.48,0.5 -0.71,0.73 0.23,-0.24 0.48,-0.49 0.71,-0.73" /><path
         id="path194"
         style="fill:#e8e8e7;fill-opacity:1;fill-rule:nonzero;stroke:none"
         d="m 9096.6,6187.03 c -0.25,0.25 -0.49,0.5 -0.73,0.75 0.23,-0.25 0.49,-0.51 0.73,-0.75" /><path
         id="path196"
         style="fill:#e8e8e7;fill-opacity:1;fill-rule:nonzero;stroke:none"
         d="m 9095.57,6188.08 c -0.23,0.23 -0.47,0.48 -0.71,0.72 0.24,-0.24 0.48,-0.48 0.71,-0.72" /><path
         id="path198"
         style="fill:#e8e8e7;fill-opacity:1;fill-rule:nonzero;stroke:none"
         d="m 9094.54,6189.13 c -0.23,0.23 -0.46,0.47 -0.68,0.69 0.23,-0.23 0.45,-0.46 0.68,-0.69" /><path
         id="path200"
         style="fill:#e8e8e7;fill-opacity:1;fill-rule:nonzero;stroke:none"
         d="m 9093.52,6190.17 c -0.22,0.22 -0.44,0.44 -0.66,0.67 0.23,-0.23 0.43,-0.44 0.66,-0.67" /><path
         id="path202"
         style="fill:#e8e8e7;fill-opacity:1;fill-rule:nonzero;stroke:none"
         d="m 9092.51,6191.2 c -0.23,0.23 -0.46,0.46 -0.68,0.69 0.22,-0.23 0.45,-0.46 0.68,-0.69" /><path
         id="path204"
         style="fill:#e8e8e7;fill-opacity:1;fill-rule:nonzero;stroke:none"
         d="m 9091.52,6192.21 c -0.24,0.23 -0.47,0.46 -0.7,0.7 0.23,-0.23 0.47,-0.47 0.7,-0.7" /><path
         id="path206"
         style="fill:#e8e8e7;fill-opacity:1;fill-rule:nonzero;stroke:none"
         d="m 9090.49,6193.25 c -0.23,0.23 -0.45,0.46 -0.68,0.68 0.23,-0.23 0.45,-0.45 0.68,-0.68" /><path
         id="path208"
         style="fill:#e8e8e7;fill-opacity:1;fill-rule:nonzero;stroke:none"
         d="m 9089.48,6194.27 c -0.23,0.24 -0.46,0.47 -0.7,0.71 0.23,-0.23 0.47,-0.48 0.7,-0.71" /><path
         id="path210"
         style="fill:#e8e8e7;fill-opacity:1;fill-rule:nonzero;stroke:none"
         d="m 9088.48,6195.28 c -0.23,0.24 -0.48,0.49 -0.72,0.73 0.24,-0.24 0.49,-0.49 0.72,-0.73" /><path
         id="path212"
         style="fill:#e8e8e7;fill-opacity:1;fill-rule:nonzero;stroke:none"
         d="m 9087.47,6196.3 c -0.24,0.24 -0.5,0.5 -0.73,0.74 0.24,-0.24 0.49,-0.5 0.73,-0.74" /><path
         id="path214"
         style="fill:#e8e8e7;fill-opacity:1;fill-rule:nonzero;stroke:none"
         d="m 9086.46,6197.32 c -0.25,0.26 -0.5,0.51 -0.76,0.77 0.26,-0.27 0.5,-0.51 0.76,-0.77" /><path
         id="path216"
         style="fill:#e8e8e7;fill-opacity:1;fill-rule:nonzero;stroke:none"
         d="m 9085.46,6198.33 c -0.29,0.29 -0.57,0.57 -0.86,0.86 0.29,-0.29 0.57,-0.57 0.86,-0.86" /><path
         id="path218"
         style="fill:#e8e8e7;fill-opacity:1;fill-rule:nonzero;stroke:none"
         d="m 9084.48,6199.32 c -0.3,0.3 -0.6,0.6 -0.9,0.9 0.3,-0.3 0.6,-0.6 0.9,-0.9" /><path
         id="path220"
         style="fill:#e8e8e7;fill-opacity:1;fill-rule:nonzero;stroke:none"
         d="m 9083.46,6200.35 c -0.32,0.32 -0.64,0.63 -0.96,0.96 0.32,-0.33 0.63,-0.64 0.96,-0.96" /><path
         id="path222"
         style="fill:#e8e8e7;fill-opacity:1;fill-rule:nonzero;stroke:none"
         d="m 9082.45,6201.35 c -5.46,5.48 -10.91,10.9 -16.39,16.28 5.48,-5.38 10.93,-10.8 16.39,-16.28" /><path
         id="path224"
         style="fill:#e8e8e7;fill-opacity:1;fill-rule:nonzero;stroke:none"
         d="m 9066.04,6217.66 c -0.34,0.32 -0.67,0.65 -1,0.98 0.33,-0.33 0.66,-0.66 1,-0.98" /><path
         id="path226"
         style="fill:#e8e8e7;fill-opacity:1;fill-rule:nonzero;stroke:none"
         d="m 9065.01,6218.66 c -0.33,0.33 -0.67,0.66 -1,0.99 0.33,-0.33 0.67,-0.66 1,-0.99" /><path
         id="path228"
         style="fill:#e8e8e7;fill-opacity:1;fill-rule:nonzero;stroke:none"
         d="m 9063.98,6219.67 c -0.33,0.33 -0.65,0.64 -0.98,0.97 0.32,-0.32 0.66,-0.66 0.98,-0.97" /><path
         id="path230"
         style="fill:#e8e8e7;fill-opacity:1;fill-rule:nonzero;stroke:none"
         d="m 9062.93,6220.7 c -0.32,0.32 -0.64,0.63 -0.96,0.94 0.31,-0.31 0.65,-0.63 0.96,-0.94" /><path
         id="path232"
         style="fill:#e8e8e7;fill-opacity:1;fill-rule:nonzero;stroke:none"
         d="m 9061.91,6221.7 c -0.33,0.32 -0.65,0.64 -0.98,0.96 0.33,-0.32 0.65,-0.63 0.98,-0.96" /><path
         id="path234"
         style="fill:#e8e8e7;fill-opacity:1;fill-rule:nonzero;stroke:none"
         d="m 9056.81,6226.68 c -30.16,29.3 -60.46,57.11 -90.4,83.35 29.93,-26.24 60.24,-54.06 90.4,-83.35" /><path
         id="path236"
         style="fill:#e8e8e7;fill-opacity:1;fill-rule:nonzero;stroke:none"
         d="m 8966.4,6310.04 c -0.34,0.3 -0.66,0.58 -1,0.88 0.33,-0.29 0.67,-0.59 1,-0.88" /><path
         id="path238"
         style="fill:#e8e8e7;fill-opacity:1;fill-rule:nonzero;stroke:none"
         d="m 8965.38,6310.94 c -0.33,0.28 -0.67,0.58 -0.99,0.86 0.32,-0.28 0.66,-0.57 0.99,-0.86" /><path
         id="path240"
         style="fill:#e8e8e7;fill-opacity:1;fill-rule:nonzero;stroke:none"
         d="m 8964.34,6311.84 c -0.31,0.27 -0.63,0.56 -0.94,0.82 0.32,-0.27 0.62,-0.54 0.94,-0.82" /><path
         id="path242"
         style="fill:#e8e8e7;fill-opacity:1;fill-rule:nonzero;stroke:none"
         d="m 8963.28,6312.77 c -0.31,0.27 -0.62,0.54 -0.92,0.81 0.3,-0.27 0.61,-0.54 0.92,-0.81" /><path
         id="path244"
         style="fill:#e8e8e7;fill-opacity:1;fill-rule:nonzero;stroke:none"
         d="m 8962.3,6313.62 c -0.67,0.59 -1.34,1.17 -2,1.75 0.66,-0.58 1.33,-1.16 2,-1.75" /><path
         id="path246"
         style="fill:#e8e8e7;fill-opacity:1;fill-rule:nonzero;stroke:none"
         d="m 8960.29,6315.38 c -1.01,0.88 -2.01,1.75 -3.02,2.62 1,-0.86 2.02,-1.75 3.02,-2.62" /><path
         id="path248"
         style="fill:#e8e8e7;fill-opacity:1;fill-rule:nonzero;stroke:none"
         d="m 8957.21,6318.05 c -0.32,0.28 -0.65,0.57 -0.97,0.84 0.33,-0.28 0.64,-0.55 0.97,-0.84" /><path
         id="path250"
         style="fill:#e8e8e7;fill-opacity:1;fill-rule:nonzero;stroke:none"
         d="m 8956.21,6318.93 c -0.31,0.26 -0.62,0.53 -0.92,0.79 0.31,-0.26 0.61,-0.53 0.92,-0.79" /><path
         id="path252"
         style="fill:#e8e8e7;fill-opacity:1;fill-rule:nonzero;stroke:none"
         d="m 8955.16,6319.84 c -0.33,0.28 -0.63,0.54 -0.96,0.83 0.32,-0.28 0.64,-0.56 0.96,-0.83" /><path
         id="path254"
         style="fill:#e8e8e7;fill-opacity:1;fill-rule:nonzero;stroke:none"
         d="m 8954.18,6320.68 c -0.34,0.29 -0.66,0.57 -1,0.87 0.33,-0.29 0.67,-0.58 1,-0.87" /><path
         id="path256"
         style="fill:#e8e8e7;fill-opacity:1;fill-rule:nonzero;stroke:none"
         d="m 8953.16,6321.56 c -0.32,0.28 -0.66,0.57 -0.98,0.85 0.32,-0.28 0.66,-0.57 0.98,-0.85" /><path
         id="path258"
         style="fill:#e8e8e7;fill-opacity:1;fill-rule:nonzero;stroke:none"
         d="m 8952.15,6322.44 c -0.31,0.27 -0.62,0.54 -0.93,0.8 0.31,-0.26 0.62,-0.53 0.93,-0.8" /><path
         id="path260"
         style="fill:#e8e8e7;fill-opacity:1;fill-rule:nonzero;stroke:none"
         d="m 8951.11,6323.33 c -0.3,0.27 -0.6,0.52 -0.91,0.79 0.31,-0.27 0.61,-0.52 0.91,-0.79" /><path
         id="path262"
         style="fill:#e8e8e7;fill-opacity:1;fill-rule:nonzero;stroke:none"
         d="m 8950.1,6324.2 c -2.68,2.32 -5.38,4.63 -8.05,6.92 2.68,-2.3 5.36,-4.59 8.05,-6.92" /><path
         id="path264"
         style="fill:#e8e8e7;fill-opacity:1;fill-rule:nonzero;stroke:none"
         d="m 8941.7,6331.41 c -0.22,0.19 -0.44,0.38 -0.66,0.57 0.21,-0.19 0.45,-0.39 0.66,-0.57" /><path
         id="path266"
         style="fill:#e8e8e7;fill-opacity:1;fill-rule:nonzero;stroke:none"
         d="m 8940.73,6332.24 c -0.22,0.19 -0.47,0.4 -0.69,0.59 0.22,-0.19 0.46,-0.4 0.69,-0.59" /><path
         id="path268"
         style="fill:#e8e8e7;fill-opacity:1;fill-rule:nonzero;stroke:none"
         d="m 8939.66,6333.15 c -0.2,0.17 -0.39,0.33 -0.59,0.5 0.21,-0.17 0.39,-0.33 0.59,-0.5" /><path
         id="path270"
         style="fill:#e8e8e7;fill-opacity:1;fill-rule:nonzero;stroke:none"
         d="m 8938.54,6334.1 c -0.15,0.13 -0.31,0.27 -0.46,0.4 0.15,-0.13 0.31,-0.27 0.46,-0.4" /><path
         id="path272"
         style="fill:#e8e8e7;fill-opacity:1;fill-rule:nonzero;stroke:none"
         d="m 8937.58,6334.92 c -0.17,0.15 -0.35,0.3 -0.51,0.44 0.17,-0.15 0.34,-0.29 0.51,-0.44" /><path
         id="path274"
         style="fill:#e8e8e7;fill-opacity:1;fill-rule:nonzero;stroke:none"
         d="m 8936.66,6335.71 c -0.21,0.18 -0.4,0.34 -0.61,0.51 0.2,-0.17 0.4,-0.34 0.61,-0.51" /><path
         id="path276"
         style="fill:#e8e8e7;fill-opacity:1;fill-rule:nonzero;stroke:none"
         d="m 8935.62,6336.59 c -0.18,0.15 -0.34,0.29 -0.52,0.44 0.17,-0.15 0.34,-0.29 0.52,-0.44" /><path
         id="path278"
         style="fill:#e8e8e7;fill-opacity:1;fill-rule:nonzero;stroke:none"
         d="m 8934.56,6337.49 c -0.14,0.12 -0.31,0.26 -0.45,0.38 0.15,-0.13 0.3,-0.25 0.45,-0.38" /><path
         id="path280"
         style="fill:#e8e8e7;fill-opacity:1;fill-rule:nonzero;stroke:none"
         d="m 8933.55,6338.34 c -0.14,0.12 -0.27,0.24 -0.41,0.35 0.13,-0.11 0.28,-0.23 0.41,-0.35" /><path
         id="path282"
         style="fill:#e8e8e7;fill-opacity:1;fill-rule:nonzero;stroke:none"
         d="m 8932.54,6339.2 c -0.13,0.11 -0.26,0.22 -0.4,0.33 0.14,-0.11 0.27,-0.22 0.4,-0.33" /><path
         id="path284"
         style="fill:#e8e8e7;fill-opacity:1;fill-rule:nonzero;stroke:none"
         d="m 8931.52,6340.06 c -0.12,0.1 -0.22,0.19 -0.33,0.28 0.1,-0.08 0.22,-0.19 0.33,-0.28" /><path
         id="path286"
         style="fill:#e8e8e7;fill-opacity:1;fill-rule:nonzero;stroke:none"
         d="m 8930.56,6340.87 c -0.13,0.12 -0.27,0.23 -0.41,0.35 0.13,-0.11 0.28,-0.24 0.41,-0.35" /><path
         id="path288"
         style="fill:#e8e8e7;fill-opacity:1;fill-rule:nonzero;stroke:none"
         d="m 8929.58,6341.7 c -0.13,0.11 -0.26,0.22 -0.39,0.33 0.14,-0.12 0.26,-0.22 0.39,-0.33" /><path
         id="path290"
         style="fill:#e8e8e7;fill-opacity:1;fill-rule:nonzero;stroke:none"
         d="m 8928.53,6342.59 c -0.09,0.08 -0.18,0.14 -0.27,0.22 0.09,-0.07 0.18,-0.15 0.27,-0.22" /><path
         id="path292"
         style="fill:#e8e8e7;fill-opacity:1;fill-rule:nonzero;stroke:none"
         d="m 8927.51,6343.44 c -0.06,0.06 -0.14,0.12 -0.2,0.18 0.07,-0.06 0.13,-0.12 0.2,-0.18" /><path
         id="path294"
         style="fill:#e8e8e7;fill-opacity:1;fill-rule:nonzero;stroke:none"
         d="m 8926.53,6344.27 c -0.07,0.06 -0.14,0.12 -0.22,0.18 0.07,-0.06 0.15,-0.12 0.22,-0.18" /><path
         id="path296"
         style="fill:#e8e8e7;fill-opacity:1;fill-rule:nonzero;stroke:none"
         d="m 8925.54,6345.1 c -0.07,0.06 -0.12,0.11 -0.2,0.17 0.07,-0.06 0.13,-0.11 0.2,-0.17" /><path
         id="path298"
         style="fill:#e8e8e7;fill-opacity:1;fill-rule:nonzero;stroke:none"
         d="m 8924.57,6345.92 c -0.07,0.06 -0.14,0.12 -0.22,0.18 0.08,-0.07 0.14,-0.12 0.22,-0.18" /><path
         id="path300"
         style="fill:#e8e8e7;fill-opacity:1;fill-rule:nonzero;stroke:none"
         d="m 8923.56,6346.76 c -0.04,0.04 -0.08,0.07 -0.12,0.11 0.05,-0.05 0.07,-0.07 0.12,-0.11" /><path
         id="path302"
         style="fill:#b1bbb6;fill-opacity:1;fill-rule:nonzero;stroke:none"
         d="m 9073.75,6108.15 -109.12,55.63 c -56.07,194.26 -310.57,382.13 -310.68,382.22 65.53,-42.42 162.55,-109.65 267.61,-197.56 l 0.01,-0.01 c 0.32,-0.26 0.64,-0.53 0.95,-0.8 0.01,0 0.02,-0.01 0.03,-0.02 0.3,-0.25 0.59,-0.5 0.89,-0.74 0.04,-0.04 0.08,-0.07 0.12,-0.11 0.26,-0.21 0.54,-0.45 0.79,-0.66 0.08,-0.06 0.15,-0.12 0.22,-0.18 0.25,-0.22 0.52,-0.44 0.77,-0.65 0.08,-0.06 0.13,-0.11 0.2,-0.17 0.26,-0.22 0.52,-0.44 0.77,-0.65 0.08,-0.06 0.15,-0.12 0.22,-0.18 0.26,-0.22 0.52,-0.44 0.78,-0.65 0.06,-0.06 0.14,-0.12 0.2,-0.18 0.25,-0.21 0.49,-0.41 0.75,-0.63 0.09,-0.08 0.18,-0.14 0.27,-0.22 0.21,-0.18 0.45,-0.38 0.66,-0.56 0.13,-0.11 0.26,-0.22 0.39,-0.33 0.19,-0.16 0.38,-0.32 0.57,-0.48 0.14,-0.12 0.28,-0.23 0.41,-0.35 0.22,-0.18 0.41,-0.35 0.63,-0.53 0.11,-0.09 0.21,-0.18 0.33,-0.28 0.21,-0.18 0.41,-0.34 0.62,-0.53 0.14,-0.11 0.27,-0.22 0.4,-0.33 0.21,-0.18 0.4,-0.34 0.6,-0.51 0.14,-0.11 0.27,-0.23 0.41,-0.35 0.18,-0.15 0.37,-0.31 0.56,-0.47 0.14,-0.12 0.31,-0.26 0.45,-0.38 0.19,-0.16 0.36,-0.3 0.54,-0.46 0.18,-0.15 0.34,-0.29 0.52,-0.44 0.14,-0.12 0.29,-0.24 0.43,-0.37 0.21,-0.17 0.4,-0.33 0.61,-0.51 0.13,-0.12 0.27,-0.24 0.41,-0.35 0.16,-0.14 0.34,-0.29 0.51,-0.44 0.16,-0.14 0.34,-0.28 0.5,-0.42 0.15,-0.13 0.31,-0.27 0.46,-0.4 0.18,-0.14 0.36,-0.3 0.53,-0.45 0.2,-0.17 0.39,-0.33 0.59,-0.5 0.12,-0.1 0.26,-0.21 0.38,-0.32 0.22,-0.19 0.47,-0.4 0.69,-0.59 0.11,-0.09 0.2,-0.17 0.31,-0.26 0.22,-0.19 0.44,-0.38 0.66,-0.57 0.12,-0.1 0.23,-0.2 0.35,-0.29 2.67,-2.29 5.37,-4.6 8.05,-6.92 0.04,-0.03 0.07,-0.05 0.1,-0.08 0.31,-0.27 0.61,-0.52 0.91,-0.79 0.03,-0.02 0.08,-0.06 0.11,-0.09 0.31,-0.26 0.62,-0.53 0.93,-0.8 0.01,-0.01 0.02,-0.02 0.03,-0.03 0.32,-0.28 0.66,-0.57 0.98,-0.85 0.01,-0.01 0.01,0 0.02,-0.01 0.34,-0.3 0.66,-0.58 1,-0.87 0.01,-0.01 0.01,0 0.02,-0.01 0.33,-0.29 0.63,-0.55 0.96,-0.83 0.04,-0.04 0.09,-0.08 0.13,-0.12 0.3,-0.26 0.61,-0.53 0.92,-0.79 0.01,-0.01 0.02,-0.03 0.03,-0.04 0.32,-0.27 0.65,-0.56 0.97,-0.84 0.02,-0.01 0.04,-0.03 0.06,-0.05 1.01,-0.87 2.01,-1.74 3.02,-2.62 0.01,-0.01 0,0 0.01,-0.01 0.66,-0.58 1.33,-1.16 2,-1.75 0.01,0 0.05,-0.03 0.06,-0.04 0.3,-0.27 0.61,-0.54 0.92,-0.81 0.04,-0.04 0.08,-0.07 0.12,-0.11 0.31,-0.26 0.63,-0.55 0.94,-0.82 0.01,-0.01 0.04,-0.03 0.05,-0.04 0.32,-0.28 0.66,-0.58 0.99,-0.86 0.01,-0.01 0.01,-0.01 0.02,-0.02 0.34,-0.3 0.66,-0.58 1,-0.88 0.01,-0.01 0,0 0.01,-0.01 29.94,-26.24 60.24,-54.05 90.4,-83.35 v -0.01 c 0.34,-0.33 0.68,-0.66 1.02,-0.99 l 0.01,-0.01 c 1.03,-1 2.04,-1.99 3.07,-2.99 l 0.02,-0.02 c 0.33,-0.32 0.65,-0.64 0.98,-0.96 0.02,-0.02 0.04,-0.04 0.06,-0.06 0.32,-0.31 0.64,-0.62 0.96,-0.94 0.03,-0.03 0.04,-0.03 0.07,-0.06 0.33,-0.33 0.65,-0.64 0.98,-0.97 0.02,-0.01 0.02,-0.01 0.03,-0.02 0.33,-0.33 0.67,-0.66 1,-0.99 0.01,-0.01 0.02,-0.01 0.03,-0.02 0.33,-0.33 0.66,-0.66 1,-0.98 0.01,-0.01 0.01,-0.02 0.02,-0.03 5.48,-5.38 10.93,-10.8 16.39,-16.28 0.01,-0.01 0.04,-0.03 0.05,-0.04 0.32,-0.33 0.64,-0.64 0.96,-0.96 0.04,-0.04 0.08,-0.09 0.12,-0.13 0.3,-0.3 0.6,-0.6 0.9,-0.9 0.04,-0.04 0.08,-0.09 0.12,-0.13 0.29,-0.29 0.57,-0.57 0.86,-0.86 0.07,-0.07 0.17,-0.17 0.24,-0.24 0.26,-0.26 0.51,-0.51 0.76,-0.77 0.1,-0.09 0.19,-0.19 0.28,-0.28 0.23,-0.24 0.49,-0.5 0.73,-0.74 0.1,-0.1 0.19,-0.19 0.29,-0.29 0.24,-0.24 0.49,-0.49 0.72,-0.73 0.11,-0.1 0.2,-0.2 0.3,-0.3 0.24,-0.24 0.47,-0.47 0.7,-0.71 0.12,-0.12 0.22,-0.22 0.33,-0.34 0.23,-0.22 0.45,-0.45 0.68,-0.68 0.11,-0.12 0.22,-0.22 0.33,-0.34 0.23,-0.24 0.46,-0.47 0.7,-0.7 0.1,-0.11 0.2,-0.22 0.31,-0.32 0.22,-0.23 0.45,-0.46 0.68,-0.69 0.11,-0.12 0.24,-0.24 0.35,-0.36 0.22,-0.23 0.44,-0.45 0.66,-0.67 0.12,-0.12 0.23,-0.23 0.34,-0.35 0.22,-0.22 0.45,-0.46 0.68,-0.69 0.1,-0.1 0.22,-0.23 0.32,-0.33 0.24,-0.24 0.48,-0.49 0.71,-0.72 0.11,-0.11 0.19,-0.2 0.3,-0.3 0.24,-0.25 0.48,-0.5 0.73,-0.75 0.09,-0.1 0.17,-0.18 0.27,-0.28 0.23,-0.23 0.48,-0.49 0.71,-0.73 0.11,-0.1 0.22,-0.22 0.32,-0.33 0.23,-0.22 0.43,-0.43 0.65,-0.66 0.13,-0.13 0.25,-0.26 0.38,-0.38 0.21,-0.22 0.41,-0.43 0.62,-0.65 0.13,-0.12 0.26,-0.26 0.38,-0.39 0.22,-0.23 0.45,-0.45 0.67,-0.68 0.1,-0.11 0.22,-0.23 0.33,-0.34 0.22,-0.23 0.44,-0.45 0.66,-0.68 0.11,-0.12 0.24,-0.25 0.36,-0.37 0.22,-0.23 0.45,-0.46 0.67,-0.69 0.11,-0.12 0.21,-0.22 0.32,-0.33 0.24,-0.25 0.48,-0.5 0.72,-0.74 0.09,-0.1 0.2,-0.21 0.29,-0.31 0.23,-0.24 0.47,-0.48 0.7,-0.72 0.1,-0.1 0.21,-0.21 0.31,-0.32 0.26,-0.26 0.51,-0.52 0.76,-0.79 0.09,-0.08 0.16,-0.16 0.24,-0.24 0.26,-0.27 0.52,-0.54 0.78,-0.81 0.07,-0.07 0.16,-0.17 0.24,-0.24 0.33,-0.36 0.66,-0.69 1,-1.05 v 0 l -34.23,-67.15" /><path
         id="path304"
         style="fill:#f6cba8;fill-opacity:1;fill-rule:nonzero;stroke:none"
         d="m 8810,6550 -270,600 v 658.24 L 8760,7670 8888.23,7233.57 10210,7840 10340,7690 9470,6550 9650,4040 H 8480 l 330,2510" /><path
         id="path306"
         style="fill:#1f3450;fill-opacity:1;fill-rule:nonzero;stroke:none"
         d="m 7880,0 240,4690 470,480 1030,-310 370,-460 L 10320,0 H 7880" /><path
         id="path308"
         style="fill:#48454b;fill-opacity:1;fill-rule:nonzero;stroke:none"
         d="m 8760,6450 c 0,0 320,-190 760,-31.51 l 20,-165.42 c 0,0 -430,-173.07 -810,39.38 l 30,157.55" /><path
         id="path310"
         style="fill:#223a5a;fill-opacity:1;fill-rule:nonzero;stroke:none"
         d="m 8590,5170 50,450 980,-160 v -600 l -1030,310" /><path
         id="path312"
         style="fill:#31496c;fill-opacity:1;fill-rule:nonzero;stroke:none"
         d="m 8686.73,5612.37 -36.88,-460.38 82.89,-24.95 23.47,473.99 -69.48,11.34" /><path
         id="path314"
         style="fill:#31496c;fill-opacity:1;fill-rule:nonzero;stroke:none"
         d="m 8831.45,5588.74 -37.03,-480.26 76.47,-23.02 29.74,491.99 -69.18,11.29" /><path
         id="path316"
         style="fill:#31496c;fill-opacity:1;fill-rule:nonzero;stroke:none"
         d="M 8972.41,5565.73 V 5054.9 l 78.71,-23.68 -8.93,523.12 -69.78,11.39" /><path
         id="path318"
         style="fill:#31496c;fill-opacity:1;fill-rule:nonzero;stroke:none"
         d="m 9120,5540 -11.81,-528.96 73.6,-22.16 29.67,536.19 L 9120,5540" /><path
         id="path320"
         style="fill:#31496c;fill-opacity:1;fill-rule:nonzero;stroke:none"
         d="m 9291.57,5511.99 v -556.15 l 88.56,-26.66 v 568.35 l -88.56,14.46" /><path
         id="path322"
         style="fill:#31496c;fill-opacity:1;fill-rule:nonzero;stroke:none"
         d="m 9455.67,5485.2 v -578.75 l 85.08,-25.61 17.32,587.64 -102.4,16.72" /></g></g></svg>