<?xml version="1.0" encoding="UTF-8" standalone="no"?>
<svg
   xmlns:dc="http://purl.org/dc/elements/1.1/"
   xmlns:cc="http://creativecommons.org/ns#"
   xmlns:rdf="http://www.w3.org/1999/02/22-rdf-syntax-ns#"
   xmlns:svg="http://www.w3.org/2000/svg"
   xmlns="http://www.w3.org/2000/svg"
   viewBox="0 0 2666.6667 2666.6667"
   height="2666.6667"
   width="2666.6667"
   xml:space="preserve"
   id="svg2"
   version="1.1"><metadata
     id="metadata8"><rdf:RDF><cc:Work
         rdf:about=""><dc:format>image/svg+xml</dc:format><dc:type
           rdf:resource="http://purl.org/dc/dcmitype/StillImage" /></cc:Work></rdf:RDF></metadata><defs
     id="defs6" /><g
     transform="matrix(1.3333333,0,0,-1.3333333,0,2666.6667)"
     id="g10"><g
       transform="scale(0.1)"
       id="g12"><g
         transform="scale(1.22699)"
         id="g14"><path
           id="path16"
           style="fill:#ffffff;fill-opacity:1;fill-rule:nonzero;stroke:none"
           d="M 0,0 H 16300 V 16300 H 0 V 0" /></g><path
         id="path18"
         style="fill:#9fc1e6;fill-opacity:1;fill-rule:nonzero;stroke:none"
         d="m 6711.83,4721.9 -55.04,-346.5 -618.4,-660 -965.3,-2.3 -252.54,747.9 539.31,857.5 -575.85,80 -327.93,595.8 995.36,246.5 389.91,-419.5 -328.39,-434.3 650.31,-355.7 445.88,235.9 102.68,-545.3" /><path
         id="path20"
         style="fill:#70c2b9;fill-opacity:1;fill-rule:nonzero;stroke:none"
         d="m 4249.79,11911.9 h -192.41 c -75.39,100.3 -149.39,251.1 -216.92,466.2 -155.88,497.2 -51.8,1171.6 -51.8,1171.6 0,0 361.69,-426 566.13,-858.9 -57.36,-143.4 -110.08,-311.3 -121.19,-464 -10.17,-136.4 -3.23,-239.5 16.19,-314.9" /><path
         id="path22"
         style="fill:#219280;fill-opacity:1;fill-rule:nonzero;stroke:none"
         d="m 5453.29,13274.5 c 0,0 -106.38,-624 -395,-1052.3 -88.34,-131.3 -170.67,-233.6 -245.6,-310.3 h -189.63 c 27.75,72.6 48.1,171.1 57.81,300.1 7.4,105 -3.24,219.3 -22.67,328 l 133.21,149.4 c 300.19,316.8 661.88,585.1 661.88,585.1" /><path
         id="path24"
         style="fill:#2bb19e;fill-opacity:1;fill-rule:nonzero;stroke:none"
         d="m 4680.87,12212 c -9.71,-129 -30.06,-227.5 -57.81,-300.1 h -373.27 c -19.42,75.4 -26.36,178.5 -16.19,314.9 11.11,152.7 63.83,320.6 121.19,464 77.24,193.3 161.88,340.8 161.88,340.8 0,0 94.82,-230.3 141.53,-491.6 19.43,-108.7 30.07,-223 22.67,-328" /><path
         id="path26"
         style="fill:#4b3584;fill-opacity:1;fill-rule:nonzero;stroke:none"
         d="m 13991.5,4886.4 h -172.9 v 2316.8 h 172.9 V 4886.4" /><g
         transform="scale(1.01176)"
         id="g28"><path
           id="path30"
           style="fill:#5a8dbf;fill-opacity:1;fill-rule:nonzero;stroke:none"
           d="M 16270.4,13751.1 15258.2,7219.99 c -19.8,-127.51 -129.6,-221.6 -258.7,-221.6 h -2789.2 c -133.6,0 -242,108.33 -242,241.86 v 4.94 c 0,133.53 108.4,241.86 242,241.86 h 2461.1 c 93.6,0 172.3,69.87 183.6,162.68 l 751.9,6193.67 c 21.7,179.2 182.8,308.2 362.5,290.2 l 6.7,-0.6 c 189.4,-19.4 323.9,-193.7 294.3,-381.9" /></g><path
         id="path32"
         style="fill:#f5ae9e;fill-opacity:1;fill-rule:nonzero;stroke:none"
         d="m 6481.03,10910.9 -1137.82,-0.4 c 5.09,51.8 33.76,99 78.63,125.8 182.7,108.7 395.92,163.7 611,211.8 131.82,29.2 271.96,45.4 402.86,15.3 l 45.33,-352.5" /><path
         id="path34"
         style="fill:#219280;fill-opacity:1;fill-rule:nonzero;stroke:none"
         d="m 11977.7,3715.9 c 0,0 -162.8,-1.9 -319.1,0 H 9906.04 c -238.2,3.2 -397.31,0 -397.31,0 0,0 -5.56,46.2 -4.63,112.8 l -1647.52,445.4 c -228.95,64.8 -383.44,103.7 -383.44,103.7 0,0 98.53,657.7 525.9,469.4 279.83,-123 966.22,21.3 966.22,21.3 0,0 4.16,-1.4 13.88,-5.1 43.47,-20.3 189.63,-103.1 382.96,-373.3 77.71,-108.6 455.6,-118.8 560.59,79.1 l 3.7,20.4 c 24.51,-20.8 43.94,-53.7 56.43,-105.5 14.34,-58.7 19.38,-119.8 18.98,-180.4 321.4,21.8 819.6,275.3 819.6,275.3 0,0 0,0 0.4,0 1.4,0 4.7,0 9.8,-1 1.8,-0.4 4.1,-0.4 6.9,-0.9 46.7,-8.3 189.2,-47.2 412.1,-217.9 17.1,-13.4 34.7,-27.2 52.7,-42 103.2,-84.2 470.4,4.1 520.4,222.9 l -1.9,20.8 c 29.2,-13.9 56.9,-40.7 82.4,-87.4 167.4,-305.7 73.5,-757.6 73.5,-757.6" /><path
         id="path36"
         style="fill:#f5ae9e;fill-opacity:1;fill-rule:nonzero;stroke:none"
         d="m 9963.85,4800 -41.16,-230.8 c -104.99,-197.9 -482.88,-187.7 -560.59,-79.1 -231.72,323.4 -394.99,378.4 -396.84,378.4 l 83.71,133.2 914.88,-201.7" /><path
         id="path38"
         style="fill:#e53334;fill-opacity:1;fill-rule:nonzero;stroke:none"
         d="m 14113.6,7556.2 -2310.7,30.6 85.1,-1375.6 124.4,-1327 -1339.5,-184.1 -65.2,1826.6 -574,-1741.9 -1241.89,273.3 1385.69,3629.9 c 47.7,138.3 270.2,280.3 414.9,300.7 l 1735,276.1 c -8.4,-63.4 -20.4,-127.2 -37.5,-191 -4.2,-15.7 88.8,5.5 247,36.1 l -51.4,-1011.6 60.2,-4.1 191.9,-13.9 69.4,-5.1 192,-13.4 69.3,-5.1 189.2,-13.4 c 0,0 0.9,6.9 2.8,19.4 8.8,66.1 38.4,291.4 69.4,580.9 18,172.1 37,367.3 51.3,564.3 149.4,3.7 306.2,-0.4 465.3,-17.6 543,-58.2 821,-74.9 962.5,-76.3 195.7,-647.5 -156.8,-1589.7 -695.2,-1557.8" /><path
         id="path40"
         style="fill:#f7af4d;fill-opacity:1;fill-rule:nonzero;stroke:none"
         d="m 14955,9123.3 c 0,0 -53.2,-46.7 -1108.7,67 -159.1,17.2 -315.9,21.3 -465.3,17.6 -14.3,-197 -33.3,-392.2 -51.3,-564.3 -31,-289.5 -60.6,-514.8 -69.4,-580.9 -1.9,-12.5 -2.8,-19.4 -2.8,-19.4 l -189.2,13.4 -69.3,5.1 -192,13.4 -69.4,5.1 -191.9,13.9 -60.2,4.1 51.4,1011.6 c -158.2,-30.6 -251.2,-51.8 -247,-36.1 184.1,695.6 -172.1,1375.6 -265,1536 1.8,7 -1.8,274.6 -1.8,274.6 3.7,-6.7 -1071.7,42.5 -1071.7,42.5 -1.4,132.9 26.3,250.9 -43.1,298.6 -21.7,15.2 -49.9,15.7 -76.3,16.2 -243.7,2.3 -487.9,4.6 -731.7,7.4 10.2,5 19.9,9.7 29.6,14.8 71.2,36.1 138.1,78.1 201.2,127.2 29,22.9 56.9,47.1 83.7,72.6 22.4,21.5 44.1,44 63.9,68 52.8,58.1 95.6,126.2 129.5,197 11.9,24.9 44.8,31.5 44.8,31.5 294.2,-89.8 602.2,359.3 483.8,719.2 -51.3,155.9 -132.7,182.7 -132.7,182.7 0,0 -19,0.4 -50.4,1.8 86,56 144.3,93 144.3,93 1122.1,476.4 2839.4,-16.7 3857,-3633.6" /><path
         id="path42"
         style="fill:#f5ae9e;fill-opacity:1;fill-rule:nonzero;stroke:none"
         d="m 13181.8,8083.6 c 90.6,-166.2 6.8,-1065.8 6.8,-1065.8 -6,-242.4 -303.3,-317.2 -506.2,-213.6 -137.2,76.8 -152,715.2 -133.6,838.5 0,0 -97,-44.5 -142.7,-51.6 -32.9,-5.1 -140,35.7 -156.4,61.9 -50,80.1 -44,104.2 5.6,115 90.7,19.7 187.3,181.9 206.1,217.4 26.9,50.5 141.9,122.6 200.5,135.3 l 519.9,-37.1" /><path
         id="path44"
         style="fill:#4b3584;fill-opacity:1;fill-rule:nonzero;stroke:none"
         d="m 12914.4,3927.3 c 17.9,-116.9 -81.3,-216.1 -198.3,-198.2 -72.8,11.1 -132.4,70.7 -143.5,143.5 -17.9,117 81.3,216.2 198.2,198.3 72.9,-11.2 132.5,-70.7 143.6,-143.6" /><g
         transform="scale(1.00132)"
         id="g46"><path
           id="path48"
           style="fill:#2b2150;fill-opacity:1;fill-rule:nonzero;stroke:none"
           d="M 11190.9,15116.6 H 8806.05 v 1114.1 h 2384.85 z m -2734.99,223.1 v 667.9 h 280.85 v -667.9 z M 11225.5,16300 H 8771.4 c -18.93,0 -34.64,-15.7 -34.64,-34.6 v -188.5 h -315.48 c -18.95,0 -34.66,-15.7 -34.66,-34.6 V 15305 c 0,-18.9 15.71,-34.6 34.66,-34.6 h 315.48 v -188.5 c 0,-18.9 15.71,-34.6 34.64,-34.6 h 2454.1 c 19,0 34.7,15.7 34.7,34.6 v 1183.5 c 0,18.9 -15.7,34.6 -34.7,34.6" /></g><path
         id="path50"
         style="fill:#e53334;fill-opacity:1;fill-rule:nonzero;stroke:none"
         d="m 11014,15288.2 h -419.7 v 812.5 h 419.7 v -812.5" /><path
         id="path52"
         style="fill:#2b2150;fill-opacity:1;fill-rule:nonzero;stroke:none"
         d="m 10628.9,15322.9 h 350.4 v 743.1 h -350.4 z m 385.1,-69.3 h -419.7 c -19.2,0 -34.7,15.5 -34.7,34.6 v 812.5 c 0,19.1 15.5,34.7 34.7,34.7 h 419.7 c 19.1,0 34.7,-15.6 34.7,-34.7 v -812.5 c 0,-19.1 -15.6,-34.6 -34.7,-34.6" /><path
         id="path54"
         style="fill:#e53334;fill-opacity:1;fill-rule:nonzero;stroke:none"
         d="m 5058.75,11911.9 v -555.5 c 0,-244.7 -289.08,-443.1 -645.68,-443.1 h -12.95 c -356.61,0 -645.69,198.4 -645.69,443.1 v 555.5 h 1304.32" /><g
         transform="scale(1.04742)"
         id="g56"><path
           id="path58"
           style="fill:#108875;fill-opacity:1;fill-rule:nonzero;stroke:none"
           d="m 15157.9,7018.88 c -328.5,-503.9 -210.1,-1233.31 -57,-1527.56 l 309.7,-46.59 c 142.1,155.43 434.5,584.48 591.3,1029.67 59.8,169.47 -148.2,133.47 -97.3,327.57 43.4,165.07 251.6,307.71 299,559.38 26,138.43 -149.3,48.3 -141,108.17 8.3,60.91 122.4,204.12 137.3,254.05 100.1,334.63 61.3,514.7 61.3,514.7 0,0 -285.3,-168.61 -429.6,-520.62 -173.9,-424.57 -132.8,-19.57 -293.5,-166.03 -117.5,-107.02 -72.9,-381.13 -116.5,-460.27 -89.4,-162.69 -134.2,126.4 -263.7,-72.47" /></g><path
         id="path60"
         style="fill:#2bb19e;fill-opacity:1;fill-rule:nonzero;stroke:none"
         d="m 14590,6636.9 c 513.3,-265.5 805,-873.5 745.7,-956.6 h -399.3 c 0,0 -130.6,57.1 -293.2,225.2 -97.1,100.4 -111.8,183.2 -198.2,253.4 -93.4,75.7 -167.3,1.6 -279.5,33.1 -55,15.5 -100.2,136.8 -200.9,158.1 -120.6,25.6 -190.8,-90.8 -300.1,-99.2 -235.4,-18 -466.2,34.5 -466.2,34.5 0,0 838.1,637.8 1391.7,351.5" /><path
         id="path62"
         style="fill:#108875;fill-opacity:1;fill-rule:nonzero;stroke:none"
         d="m 15011.3,6805 c 263.5,-455.3 455.2,-886.8 490,-1094.2 h -198 c -135.2,147.2 -324.2,408 -514.6,737.1 -329.5,569.2 -860.8,1370 -860.8,1370 0,0 753.9,-443.7 1083.4,-1012.9" /><g
         transform="scale(1.10366)"
         id="g64"><path
           id="path66"
           style="fill:#1d9a85;fill-opacity:1;fill-rule:nonzero;stroke:none"
           d="m 15760.7,6784.32 c 101.8,85.53 117.3,241.56 204,342.23 86.8,100.75 205.6,306.52 335.3,277.71 -104.8,-91.16 -95,-328.18 -153.7,-454.04 -66.8,-143.43 -154.4,-277.62 -252.3,-401.93 -103,-130.66 -80.6,-319.12 -140.2,-474.42 -67.2,-175.33 -230.4,-291.03 -372.1,-414.17 -141.7,-123.04 -278.3,-281.79 -259.2,-468.53 h -738.9 c -50.7,149.86 20.2,284.87 147,379.47 98.8,73.66 228.8,96.04 326.3,171.33 219.3,169.53 188.6,525.71 377.6,728.4 140.2,150.13 369,181.85 526.2,313.95" /></g><g
         transform="scale(1.06887)"
         id="g68"><path
           id="path70"
           style="fill:#2b2150;fill-opacity:1;fill-rule:nonzero;stroke:none"
           d="m 15951.8,6389.49 c -2.5,0 -4.9,0.37 -7.3,1.21 -11.2,4.03 -17.1,16.38 -13.1,27.7 29.7,83.26 154.8,342.51 333.6,438.22 10.5,5.71 23.7,1.68 29.3,-8.89 5.7,-10.57 1.8,-23.67 -8.8,-29.28 -154.4,-82.61 -277.8,-315.01 -313.4,-414.65 -3.2,-8.89 -11.5,-14.31 -20.3,-14.31" /></g><g
         transform="scale(1.01774)"
         id="g72"><path
           id="path74"
           style="fill:#2b2150;fill-opacity:1;fill-rule:nonzero;stroke:none"
           d="m 15814.7,6701.21 c -4,0 -8.1,1.07 -11.9,3.33 -10.7,6.49 -14,20.54 -7.5,31.25 52,85.38 111,169 167.9,249.77 109.1,154.85 221.9,314.91 289.9,492.76 4.5,11.69 17.7,17.59 29.3,13.06 11.8,-4.42 17.6,-17.58 13.2,-29.28 -70.1,-183.15 -184.6,-345.56 -295.3,-502.78 -56.5,-80.17 -114.8,-163.1 -166.2,-247.21 -4.3,-7.07 -11.8,-10.9 -19.4,-10.9" /></g><path
         id="path76"
         style="fill:#2b2150;fill-opacity:1;fill-rule:nonzero;stroke:none"
         d="m 15832.1,6211.5 c -3.5,0 -7,0.8 -10.3,2.4 -11.5,5.7 -16.1,19.6 -10.4,31 41.3,83.2 74.5,172.2 106.5,258.2 11.8,31.6 23.6,63.3 35.8,94.7 4.6,12 18.1,17.9 29.9,13.2 11.9,-4.6 17.8,-18 13.2,-29.9 -12.1,-31.3 -23.8,-62.7 -35.5,-94.1 -32.5,-87.2 -66.1,-177.3 -108.6,-262.7 -4,-8.1 -12.2,-12.8 -20.6,-12.8" /><path
         id="path78"
         style="fill:#7085b1;fill-opacity:1;fill-rule:nonzero;stroke:none"
         d="m 14898.2,9318.6 v -203.5 c -17.6,-0.9 -40.3,-1.4 -69.4,-1.4 v 431.6 c 23.6,-74.1 46.7,-149.4 69.4,-226.7" /><path
         id="path80"
         style="fill:#7085b1;fill-opacity:1;fill-rule:nonzero;stroke:none"
         d="m 14636.8,10098 v -977.3 c -21.7,0.9 -44.8,2.3 -69.3,4.1 V 10277 c 23.5,-58.3 46.7,-118 69.3,-179" /><path
         id="path82"
         style="fill:#7085b1;fill-opacity:1;fill-rule:nonzero;stroke:none"
         d="M 14375.5,10721 V 9138.7 c -22.2,1.8 -45.3,4.2 -69.4,6 v 1720.6 c 23.2,-47.2 46.3,-95.3 69.4,-144.3" /><path
         id="path84"
         style="fill:#7085b1;fill-opacity:1;fill-rule:nonzero;stroke:none"
         d="M 14114.2,11226.1 V 9162.7 c -22.2,1.9 -45.8,4.2 -69.4,6.5 v 2175.3 c 23.1,-38.4 46.3,-78.2 69.4,-118.4" /><path
         id="path86"
         style="fill:#7085b1;fill-opacity:1;fill-rule:nonzero;stroke:none"
         d="M 13852.9,11640 V 9189.6 c -2.4,0 -4.2,0 -6.5,0.4 -21.3,2.3 -42.1,4.2 -62.9,6 v 2540.7 c 23.1,-31.4 46.2,-63.8 69.4,-96.7" /><path
         id="path88"
         style="fill:#7085b1;fill-opacity:1;fill-rule:nonzero;stroke:none"
         d="m 13591.5,11978.1 v -2771 c -23.1,1 -46.2,1.4 -69.4,1.4 v 2848.3 c 23.6,-25.5 46.8,-51.8 69.4,-78.7" /><path
         id="path90"
         style="fill:#7085b1;fill-opacity:1;fill-rule:nonzero;stroke:none"
         d="m 13329.7,12253.8 v -3610 c -31,-289.6 -60.6,-514.8 -69.3,-580.9 v 4253.8 c 23.1,-20.3 46.2,-41.1 69.3,-62.9" /><path
         id="path92"
         style="fill:#7085b1;fill-opacity:1;fill-rule:nonzero;stroke:none"
         d="M 13068.4,12472.6 V 8056.8 l -69.4,5.1 v 4460.6 c 23.1,-16.1 46.3,-32.8 69.4,-49.9" /><path
         id="path94"
         style="fill:#7085b1;fill-opacity:1;fill-rule:nonzero;stroke:none"
         d="M 12807.1,12642.8 V 8075.3 l -69.4,5.1 v 4600.3 c 23.1,-12 46.3,-24.5 69.4,-37.9" /><path
         id="path96"
         style="fill:#7085b1;fill-opacity:1;fill-rule:nonzero;stroke:none"
         d="M 12545.8,12756.7 V 9002.2 c -18.1,40.8 -41.7,93.6 -69.4,157.1 v 3636.1 c 23.1,-12 46.2,-24.7 69.4,-38.7" /><path
         id="path98"
         style="fill:#7085b1;fill-opacity:1;fill-rule:nonzero;stroke:none"
         d="m 12485.6,8098.5 60.2,1180.8 v -1185 z" /><path
         id="path100"
         style="fill:#7085b1;fill-opacity:1;fill-rule:nonzero;stroke:none"
         d="M 12284.4,12853.7 V 9951.8 c -19.9,84.7 -43.9,164.2 -69.4,237.3 V 12869 c 23.2,-4.6 46.3,-9.7 69.4,-15.3" /><path
         id="path102"
         style="fill:#7085b1;fill-opacity:1;fill-rule:nonzero;stroke:none"
         d="m 12023.1,12899.7 v -2015.3 c -12,18.7 -19.4,28.5 -19.4,28.5 l -50,-2.4 v 1994.1 c 23.1,-0.8 46.3,-2.9 69.4,-4.9" /><path
         id="path104"
         style="fill:#7085b1;fill-opacity:1;fill-rule:nonzero;stroke:none"
         d="m 11761.8,12906.9 v -1995.4 l -69.4,-3.2 v 1995 c 23.1,2 46.2,3.2 69.4,3.6" /><path
         id="path106"
         style="fill:#7085b1;fill-opacity:1;fill-rule:nonzero;stroke:none"
         d="m 11500.4,12877.8 v -1966 l -69.3,-3.3 v 1957.2 c 22.6,4.4 46.2,8.4 69.3,12.1" /><path
         id="path108"
         style="fill:#7085b1;fill-opacity:1;fill-rule:nonzero;stroke:none"
         d="m 11239.1,12810.2 v -1898.6 l -69.4,-3.2 v 1880.7 c 23.2,7.2 45.8,14.4 69.4,21.1" /><path
         id="path110"
         style="fill:#7085b1;fill-opacity:1;fill-rule:nonzero;stroke:none"
         d="M 10977.8,11825.5 V 10885 l -69.4,-2.8 v 906.3 c 23.1,9.8 46.7,22.2 69.4,37" /><path
         id="path112"
         style="fill:#7085b1;fill-opacity:1;fill-rule:nonzero;stroke:none"
         d="m 10716,11750 v -495.9 c -28.7,-4.8 -52.3,-8.5 -69.4,-11.2 v 507.1 c 18.5,-1.6 44,-2.7 69.4,0" /><path
         id="path114"
         style="fill:#7085b1;fill-opacity:1;fill-rule:nonzero;stroke:none"
         d="m 10454.7,11460.4 v -190.8 h -69.4 v 132.5 c 24.5,20.6 48.1,40.7 67.1,58.3 h 2.3" /><path
         id="path116"
         style="fill:#54b9a9;fill-opacity:1;fill-rule:nonzero;stroke:none"
         d="m 15426.6,7342.9 c 189.9,-575.4 337.7,-1221.4 423.6,-1632.1 h -351.4 c -165.9,292.1 -358.7,640.1 -544.6,1202.1 -362.1,1093.8 -1023,2806.3 -1026.3,2815.8 0,0 1119,-1235 1498.7,-2385.8" /><g
         transform="scale(1.02461)"
         id="g118"><path
           id="path120"
           style="fill:#313b84;fill-opacity:1;fill-rule:nonzero;stroke:none"
           d="m 16015.5,3626.15 h -1335.6 c -157.2,0 -284.5,171.19 -284.5,382.39 V 5634.61 H 16300 V 4008.54 c 0,-211.2 -127.4,-382.39 -284.5,-382.39" /></g><g
         transform="scale(1.00799)"
         id="g122"><path
           id="path124"
           style="fill:#6fc2b9;fill-opacity:1;fill-rule:nonzero;stroke:none"
           d="m 16300,5727.12 -1667.6,-565.58 v 140.68 l 1251.1,424.9 h 416.5" /></g><g
         transform="scale(1.02463)"
         id="g126"><path
           id="path128"
           style="fill:#6fc2b9;fill-opacity:1;fill-rule:nonzero;stroke:none"
           d="M 16300,5445.37 V 5306 l -1905.2,-647.35 v 139.37 l 1905.2,647.35" /></g><g
         transform="scale(1.02463)"
         id="g130"><path
           id="path132"
           style="fill:#6fc2b9;fill-opacity:1;fill-rule:nonzero;stroke:none"
           d="m 16300,5026.29 v -139.26 l -1905.2,-647.36 v 139.27 l 1905.2,647.35" /></g><g
         transform="scale(1.02463)"
         id="g134"><path
           id="path136"
           style="fill:#6fc2b9;fill-opacity:1;fill-rule:nonzero;stroke:none"
           d="m 16300,4607.31 v -139.36 l -1872.8,-636.52 c -15,39.52 -25.5,83.05 -30.1,128.53 l 1902.9,647.35" /></g><g
         transform="scale(1.02463)"
         id="g138"><path
           id="path140"
           style="fill:#6fc2b9;fill-opacity:1;fill-rule:nonzero;stroke:none"
           d="m 16300,4189.21 v -139.36 l -1247.3,-423.96 h -372.9 c -9.7,0 -19.5,0.97 -29.3,1.95 l 1649.5,561.37" /></g><path
         id="path142"
         style="fill:#f5ae9e;fill-opacity:1;fill-rule:nonzero;stroke:none"
         d="m 10653,11760.2 -12.9,44.8 c 4.7,-16.5 -25.1,-62 -31.9,-76.3 -10.8,-22.6 -22.6,-44.6 -35.2,-66.1 -13.4,-23.2 -28.2,-45.4 -43.9,-67.1 -15.8,-21.9 -32.3,-43.9 -50.5,-63.8 -36.1,-39.8 -73.3,-80.3 -115.1,-114.3 -82.3,-66.9 -176,-129.3 -272.9,-173 2.1,0.7 4.1,2.3 5.4,4 -27.5,5 -817.15,5.7 -833.8,-12.8 h -13.87 l -154.03,1327.5 c 39.78,-30.5 80.48,-52.3 139.23,-58.3 137.36,-13.9 230.33,127.7 149.39,180.4 -89.73,58.7 -142.46,127.7 -136.91,215.5 30.06,211.9 272.43,108.7 405.18,29.2 0,0 205.82,-33.8 263.63,89.3 195.18,-79.6 368.68,-202.2 501.38,-347.4 95.8,4.6 413,-4.2 537.5,-7.9 31.4,-1.4 50.4,-1.8 50.4,-1.8 0,0 81.4,-26.8 132.7,-182.7 118.4,-359.9 -189.6,-809 -483.8,-719.2" /><path
         id="path144"
         style="fill:#ee7e94;fill-opacity:1;fill-rule:nonzero;stroke:none"
         d="m 9949.42,11508.4 c 115.98,20.8 227.28,-56.5 248.08,-172.5 2.1,-11.4 3.4,-22.3 2.9,-33.6 -110.4,-65.1 -235.93,-115.6 -371.72,-146.8 -26.15,28.2 -44.37,64 -51.71,104.8 -20.85,116 55.91,227.1 172.45,248.1" /><path
         id="path146"
         style="fill:#2b2150;fill-opacity:1;fill-rule:nonzero;stroke:none"
         d="m 9894.64,11567.2 c -1.63,0 -3.25,0.1 -4.92,0.1 l -453.97,25.1 c -19.13,1 -33.76,17.4 -32.72,36.5 1.03,19.2 16.8,33.7 36.56,32.8 l 453.96,-25.1 c 8.77,-0.5 16.26,5.1 18.21,13.3 17.57,73.7 13.78,137 -9.44,157.5 -14.37,12.7 -15.72,34.6 -3.07,49 12.74,14.3 34.6,15.7 48.96,3 63.19,-55.8 42.78,-176.4 31.03,-225.6 -9.35,-39.3 -44.49,-66.6 -84.6,-66.6" /><path
         id="path148"
         style="fill:#2b2150;fill-opacity:1;fill-rule:nonzero;stroke:none"
         d="m 10180.2,11659.9 c -17.2,0 -32.1,12.7 -34.4,30.2 -1.2,10 -31.9,246.8 -25.9,408.1 0.7,19.1 17.2,34 35.9,33.3 19.2,-0.7 34.1,-16.8 33.4,-35.9 -5.8,-155.3 25.1,-394.2 25.5,-396.5 2.4,-19 -11,-36.5 -30,-38.9 -1.5,-0.2 -3,-0.3 -4.5,-0.3" /><path
         id="path150"
         style="fill:#2b2150;fill-opacity:1;fill-rule:nonzero;stroke:none"
         d="m 9610.42,11284.8 c -13.31,0 -26,7.7 -31.73,20.6 l -51.16,115.3 c -7.77,17.5 0.12,38 17.64,45.7 17.48,7.8 38.03,-0.1 45.78,-17.6 l 51.15,-115.3 c 7.77,-17.5 -0.11,-38 -17.64,-45.7 -4.56,-2.1 -9.34,-3 -14.04,-3" /><path
         id="path152"
         style="fill:#2b2150;fill-opacity:1;fill-rule:nonzero;stroke:none"
         d="m 9450.65,12013.4 c -19.15,0 -34.68,15.5 -34.68,34.6 v 111.1 c 0,19.2 15.53,34.7 34.68,34.7 19.15,0 34.7,-15.5 34.7,-34.7 V 12048 c 0,-19.1 -15.55,-34.6 -34.7,-34.6" /><path
         id="path154"
         style="fill:#ee7e94;fill-opacity:1;fill-rule:nonzero;stroke:none"
         d="m 9833.03,12467.3 c 116.12,20.9 227.17,-56.3 248.07,-172.4 20.9,-116.1 -56.3,-227.2 -172.46,-248.1 -116.13,-20.9 -227.19,56.3 -248.07,172.5 -20.89,116.1 56.32,227.1 172.46,248" /><path
         id="path156"
         style="fill:#313b84;fill-opacity:1;fill-rule:nonzero;stroke:none"
         d="m 9914.82,13019.2 c -57.81,-123.1 -263.63,-89.3 -263.63,-89.3 -132.75,79.5 -375.12,182.7 -405.18,-29.2 -5.55,-87.8 47.18,-156.8 136.91,-215.5 80.94,-52.7 -12.03,-194.3 -149.39,-180.4 -58.75,6 -99.45,27.8 -139.23,58.3 l -103.14,890.8 c 1.39,0 2.78,0.5 4.16,0.5 279.83,25 450.04,45.8 681.76,-120.3 213.69,-152.6 237.74,-314.9 237.74,-314.9" /><path
         id="path158"
         style="fill:#f5ae9e;fill-opacity:1;fill-rule:nonzero;stroke:none"
         d="m 11823.7,4540.1 c -50,-218.8 -417.2,-307.1 -520.4,-222.9 -18,14.8 -35.6,28.6 -52.7,42 -222.9,170.7 -365.4,209.6 -412.1,217.9 -2.8,0.5 -5.1,0.5 -6.9,0.9 -5.1,1 -8.4,1 -9.8,1 -0.4,0 -0.4,0 -0.4,0 l 45.8,148 928.7,127.6 25.9,-293.7 1.9,-20.8" /><path
         id="path160"
         style="fill:#2b2150;fill-opacity:1;fill-rule:nonzero;stroke:none"
         d="m 9562.74,12742.4 c -0.81,0 -1.67,0.1 -2.51,0.2 -69.81,7.5 -133.31,88.8 -140.33,98.1 -7.71,10.2 -5.72,24.7 4.45,32.4 10.16,7.7 24.68,5.7 32.38,-4.4 15.78,-20.8 66.01,-75.6 108.48,-80.1 12.69,-1.4 21.87,-12.8 20.5,-25.5 -1.29,-11.9 -11.32,-20.7 -22.97,-20.7" /><path
         id="path162"
         style="fill:#2b2150;fill-opacity:1;fill-rule:nonzero;stroke:none"
         d="m 9314.18,11902 c -14.28,0 -27.65,8.9 -32.68,23.1 -24.1,67.9 -26.02,224.9 -23.67,236.3 3.86,18.8 22.13,30.9 40.97,27 17.23,-3.6 28.84,-19.3 27.6,-36.5 -0.73,-24 2.35,-152.5 20.46,-203.6 6.41,-18 -3.03,-37.9 -21.07,-44.2 -3.84,-1.4 -7.75,-2.1 -11.61,-2.1" /><path
         id="path164"
         style="fill:#5a8dbf;fill-opacity:1;fill-rule:nonzero;stroke:none"
         d="m 10947.2,11186.2 v -275.7 H 6476.86 l -312.67,2695.1 h 2809.39 l 274.75,-2370 h 1647.47 c 28.3,0 51.4,-22.2 51.4,-49.4" /><path
         id="path166"
         style="fill:#f7af4d;fill-opacity:1;fill-rule:nonzero;stroke:none"
         d="m 7396.25,12193.2 c 23.01,-156.3 114.09,-265.9 203.45,-244.7 89.36,21.2 143.15,165.1 120.15,321.4 -22.99,156.3 -114.08,265.8 -203.44,244.6 -89.36,-21.2 -143.15,-165.1 -120.16,-321.3" /><path
         id="path168"
         style="fill:#2b2150;fill-opacity:1;fill-rule:nonzero;stroke:none"
         d="m 7538.71,12482.4 c -4.76,0 -9.6,-0.5 -14.32,-1.7 -61.88,-14.6 -115.63,-134.3 -93.81,-282.5 20.05,-136.2 90.38,-217.6 146.82,-217.6 v 0 c 4.79,0 9.6,0.6 14.32,1.7 61.88,14.6 115.63,134.3 93.81,282.5 -20.05,136.2 -90.38,217.6 -146.82,217.6 z m 38.69,-571.2 v 0 c -101.25,0 -191.85,116.5 -215.48,276.9 -25.92,176.3 38.42,334.5 146.48,360.2 9.96,2.3 20.15,3.5 30.31,3.5 101.22,0 191.86,-116.4 215.48,-276.9 25.93,-176.3 -38.42,-334.5 -146.48,-360.1 -9.96,-2.4 -20.15,-3.6 -30.31,-3.6" /><path
         id="path170"
         style="fill:#4b3584;fill-opacity:1;fill-rule:nonzero;stroke:none"
         d="M 4589.82,10570.1 H 3287.89 v 340.3 h 8736.51 v -340.3 H 4797.96 4589.82" /><g
         transform="scale(1.10601)"
         id="g172"><path
           id="path174"
           style="fill:#2b2150;fill-opacity:1;fill-rule:nonzero;stroke:none"
           d="m 16128.9,7121.8 c -12.4,-65.64 -24.2,-128.03 -45.5,-173.14 -60.6,-130.47 -143.9,-263.47 -248,-394.75 -67.3,-85.36 -84.5,-191.95 -101.2,-295.3 -10.4,-63.11 -20.9,-128.39 -43.1,-186.52 -53.9,-140.51 -176.9,-244.22 -296.1,-344.13 -22.6,-18.8 -44.7,-37.7 -66.4,-56.5 -111.3,-96.57 -253.1,-240.87 -269.8,-420.25 h -427 c 33.5,80.74 99.1,161.84 179.9,219.16 36.3,25.86 75.2,50.18 112.9,73.6 64.8,40.51 132.1,82.37 190.2,135.08 89.1,80.29 161.1,188.15 226.3,339.15 4.6,10.39 0,22.96 -10.9,27.57 -10.5,4.62 -22.6,-0.45 -27.1,-10.85 -63.2,-145.56 -131.8,-248.82 -216.3,-324.95 -55.6,-50.18 -120.9,-91.14 -184.4,-130.47 -38,-23.86 -77.3,-48.1 -115,-74.86 -75.7,-53.98 -161.4,-145.12 -200.8,-253.43 h -217.4 c -14.7,136.34 83.6,233.36 149.3,282.27 45.6,33.91 98.2,56.42 153.9,79.84 58.5,25.13 119.6,51.09 172.3,91.59 124.7,96.65 172.7,248.46 219.5,394.84 14.3,45.12 28.9,91.14 45.7,135.44 7.8,21.34 16.7,42.23 26.3,62.3 23.4,51.09 51.9,97.92 89,137.61 71.6,76.95 168.6,121.25 271,167.72 86.6,39.24 176.5,80.29 251.4,143.04 61.4,51.81 93.3,125.04 124.2,195.66 24.2,55.6 46.8,107.95 82.8,149.27 17.9,20.98 37.2,46.02 57.2,72.78 54.5,70.71 118.9,155.61 183.2,185.27 -34.7,-63.57 -50.5,-146.39 -66.1,-227.04 z M 15068.8,3713.52 c 0,-178.21 -104,-322.87 -232.1,-322.87 h -1237.4 c -127.9,0 -232.1,144.66 -232.1,322.87 v 1474.94 h 1701.6 z m -3419.1,-324.95 c 5.4,4.61 10.5,10.04 15.1,15.46 35.5,41.41 51.4,96.56 42.6,151.36 -6.3,40.14 -25.1,75.76 -52.3,103.34 98.8,416.9 472.2,728.02 917.1,728.02 295.7,0 559.6,-137.16 732.3,-351.62 v -321.61 c 0,-136.34 54.4,-256.78 136.8,-324.95 z m -32.6,56.06 c -28.1,-32.64 -70.7,-48.92 -115.1,-41.86 -52.2,7.95 -95.7,51.44 -103.7,103.34 -5.4,37.16 4.6,73.14 29,101.63 23.7,27.57 58,43.49 94.8,43.49 6.3,0 13,-0.46 19.7,-1.27 52.3,-8.41 95.8,-51.9 103.7,-103.71 5.9,-37.25 -4.6,-73.23 -28.4,-101.62 z m -280.6,52.26 c 6.2,-42.23 27.6,-80.29 58.1,-108.32 h -528.2 c 17.6,107.05 54.8,432.36 -75.7,671.15 -20.8,38.06 -44.7,65.73 -71.9,83.27 l -19.3,219.17 165.7,22.51 c 16.7,2.53 28.4,17.63 26.7,34.36 0,0 -112,1197.64 -112,1199.8 -3.8,39.7 -66.1,34.63 -62.4,-5.87 l 88.7,-948.45 c -4.6,0 -313.6,-42.68 -313.6,-42.68 v 2839.12 l 775.3,64.83 -10.4,-201.99 c -0.9,-16.73 11.2,-31.01 28,-32.64 -21.3,-20.89 -38.1,-41.41 -46.5,-56.42 -28,-53.53 -105.3,-167.72 -165.2,-180.74 -86.9,-18.81 -59.4,-95.75 -25,-150.9 3.7,-5.88 9.1,-11.76 16.7,-17.18 l -368.4,4.61 c -3.8,77.4 -10.5,201.54 -48.9,317.45 -12.6,37.97 -72.5,18.81 -59.4,-19.71 36.8,-111.21 48.4,-365.46 53.8,-377.21 0,0 40.6,-977.3 40.6,-979.02 1.8,-40.14 64.9,-38.06 62.8,2.54 0,0 -41.4,991.58 -41.4,993.2 l 305.7,-4.16 c -27.2,-10.48 -60.7,-70.25 -69,-87.79 -79,-165.64 44.3,-365.09 228.3,-365.09 h 172.8 c 21.7,-118.36 56.4,-216.64 109.9,-246.75 58.6,-29.74 124.2,-44.3 189.1,-44.3 67.2,0 133.3,15.82 187.7,48.46 79.4,47.29 124.2,124.23 126.3,213.29 0.8,6.24 1.7,16.27 3.3,29.3 h 504 v -361.39 c -296.6,-112.03 -534.1,-290.6 -548.3,-301.45 -10,-7.59 -14.6,-19.71 -11.7,-31.82 2.5,-11.66 11.7,-20.89 23.4,-23.87 6.3,-1.18 157.7,-35.08 335.9,-35.08 33,0 64.7,1.26 95.3,3.34 40.1,2.9 73.6,18.81 105.4,36.8 V 4443.62 c -417,-45.57 -757.8,-348.28 -862.7,-746.46 -15.1,7.14 -31.4,12.11 -48.6,14.64 -66.4,10.04 -130,-14.19 -171.9,-63.56 -36,-41.41 -51.4,-96.56 -43,-151.35 z m -516.9,50.18 h -281 c 3.7,40.14 15.8,79.84 34.2,118.35 5.5,10.4 0.9,22.96 -9.2,28.03 -10.4,4.97 -22.9,0.81 -28,-9.67 -22.2,-44.31 -35.1,-90.33 -39.7,-136.71 h -3.3 v 328.29 c 93.6,34.27 183.1,97.02 218.7,190.69 8.4,-9.67 16.2,-21.79 24.2,-36.44 18.8,-34.26 33.9,-71.06 45.6,-108.68 -73.6,-35.53 -138,-86.16 -187.7,-147.19 -7.2,-9.22 -5.9,-22.15 2.9,-29.75 3.8,-2.89 8.7,-4.61 13.3,-4.61 5.9,0 12.2,2.53 16.3,7.59 44.4,54.8 101.6,100.36 166.9,133.01 28.9,-115.46 31.8,-237.16 26.8,-332.91 z m -16.3,-155.97 c -48.5,-0.45 -156,-1.26 -262.2,0 h -48.5 v 114.11 h 324.1 c -3.8,-50.18 -9.7,-90.33 -13.4,-114.11 z m -144.7,716.36 c -3.7,-14.29 -9.3,-28.03 -16.3,-40.6 -5.4,-10.85 -12.6,-21.34 -20.5,-30.92 -31.8,-39.78 -79.1,-70.7 -129.2,-92.85 v 390.59 l 144.6,19.62 19.3,-219.89 z m -166,289.33 v 182.82 l 314.4,43.85 c 0.8,0 1.7,0.45 2.6,0.9 l 17.1,-181.55 z m -62.8,3897.6 -856.85,-136.34 c -142.58,-19.62 -353.34,-154.7 -400.18,-291.5 L 7919.83,4584.22 c -7.11,-17.99 4.19,-37.71 22.59,-41.86 l 188.6,-41.41 -44.33,-71.07 c -59.8,-11.76 -322.43,-61.03 -554.94,-61.03 -126.29,0 -222.9,14.19 -286.46,42.59 -50.18,21.78 -98.7,33.09 -144.28,33.09 -299.42,0 -372.19,-462.11 -375.12,-481.82 -2.51,-15.83 7.53,-31.38 23.42,-35.09 1.26,-0.45 1812.87,-490.14 1812.87,-490.14 0,-19.25 0.84,-35.98 1.67,-48.91 h -2638.8 c 27.19,27.58 45.16,62.3 51.44,101.63 l 167.28,1051.7 c 0,0.91 0.41,2.17 0.41,2.99 0,0 224.58,1410.56 224.99,1413.45 2.93,18.81 -11.7,36.44 -30.94,36.44 0,0 -2509.58,0 -2514.6,0 -18.82,0 -34.3,-17.63 -30.94,-36.44 L 4184.95,3490.2 c 6.27,-39.33 24.25,-74.05 51.43,-101.63 h -821.74 v 6139.49 c 0,0 733.09,0 735.18,0 40.57,0 40.57,62.73 0,62.73 H 3003.97 v 245.06 h 7836.53 v -245.06 c 0,0 -0.8,0 -2.9,0 H 4338.01 c -40.56,0 -40.56,-62.73 0,-62.73 h 6091.79 z m 0,-255.96 -500.97,-114.56 c -222.88,-44.3 -435.72,-316.18 -421.97,-537.78 l 52.71,-1480.82 -508.49,-1542.75 -1059.73,233.36 84.05,219.98 c 0,0 917.94,-221.61 919.61,-221.61 9.62,0 17.98,6.69 20.49,16.28 2.51,10.85 -4.18,22.15 -15.47,25.13 l -909.58,219.53 1141.27,2990.02 c 38.43,112.11 227.94,233.81 350.45,250.99 l 847.63,134.63 z m 0,-540.68 -367.5,-30.56 c -48.1,-4.61 -95.41,-42.23 -89.99,-94.49 l 291.99,-2782.7 -592.25,-83.18 -49.37,1390.04 -6.24,180.29 -46.83,1312.28 c -12.12,191.5 179.02,434.44 372.23,472.96 l 487.96,111.66 z m 0,-2884.69 -123.8,-17.63 -292.3,2781.43 c -2.9,28.49 28.1,46.48 52.3,48.56 l 363.8,30.47 z m 0,-224.59 -100.7,-13.84 -18.9,179.48 119.6,16.73 z m 0,-467.08 c -36.3,-10.13 -71.5,-15.1 -102.4,-15.1 -38.9,0 -71.1,7.95 -87.5,21.79 -8.7,7.05 -17.5,14.19 -25.8,20.88 -113.8,89.51 -206.6,143.4 -276.5,175.23 -49.28,22.51 -86.98,34.26 -112.94,40.5 l 24.69,80.74 580.45,79.48 z m 0,-374.32 H 8728.62 c -11.71,0 -20.91,-9.22 -20.91,-20.89 0,-11.75 9.2,-20.97 20.91,-20.97 H 10429.8 V 3391.1 H 8956.95 c -158.07,2.08 -277.68,1.27 -330.37,0.36 -5.02,76.95 -7.95,292.32 92.84,405.24 52.7,59.41 125.88,80.74 222.05,66.1 19.24,-2.9 40.57,-4.62 63.58,-4.62 47.65,0 100.36,6.7 155.16,17.55 15.46,-30.11 43.94,-57.24 81.91,-78.58 53.17,-29.74 114.2,-45.2 174.87,-45.2 26.3,0 52.26,2.98 77.75,8.77 48.55,10.94 216.19,88.24 356.33,158.13 69.43,34.72 132.09,67.27 170.13,89.06 32.7,-20.07 68.2,-43.94 107.1,-72.78 22.6,-16.73 46.8,-35.53 72,-56.06 28.3,-22.96 72.3,-35.53 127.1,-35.53 30.9,0 66.1,4.16 102.4,13.02 z m -639.76,560.75 c 1.17,0 90.32,-19.62 189.42,-75.22 -47.29,-25.95 -119.17,-62.75 -194.03,-99.55 -125.5,-61.48 -258.86,-122.51 -299.91,-131.74 -74.86,-16.72 -155.97,-5.06 -222.87,32.19 -17.18,9.68 -42.68,26.76 -59.4,51.45 230.01,53.98 486.34,173.96 568.34,214.1 7.96,3.8 13.84,6.69 18.45,8.77 z m -116.28,356.78 595.14,83.63 20,-179.02 -608.9,-83.63 z m 107.42,-228.39 -22.52,-73.96 c -67.36,-33.45 -429.11,-207.41 -684.62,-236.71 -1.26,45.57 -6.69,91.14 -17.54,135.9 -10.85,45.21 -28.04,76.49 -47.69,98.73 0,0 25.1,140.06 25.51,141.68 40.17,-19.62 61.87,-2.44 67.3,14.29 l 464.19,1408.84 52.71,-1476.2 c 0.81,-16.73 14.65,-30.56 31.38,-30.56 1.26,0 131.28,17.99 131.28,17.99 z m -1629.67,179.02 44.76,71.07 776.58,-170.62 -30.95,-173.5 c -50.61,-88.7 -171.46,-120.43 -269.32,-120.43 -83.63,0 -158.5,22.96 -182.33,55.96 -150.55,210.4 -274.34,302.8 -338.74,337.52 z M 8266.1,4246.7 c -139.68,-34.27 -469.22,-98.28 -536.96,-94.12 -76.53,3.34 -151.8,35.53 -206.59,89.51 -14.21,13.83 -34.3,37.25 -44.32,64.82 17.14,-0.45 35.12,-0.81 53.52,-0.81 246.32,0 516.47,51.81 571.25,63.11 h 0.43 c 0,0 82.38,-43.49 162.67,-122.51 z M 6921.19,4064.33 8575.98,3617.32 c -7.52,-40.14 -11.29,-79.47 -12.96,-115.01 0,0 -1718.78,465.82 -1770.22,478.84 20.07,94.93 99.53,400.63 308.21,400.63 36.81,0 76.53,-9.22 118.78,-28.03 53.52,-23.42 125.45,-38.43 214.52,-44.76 7.53,-33 27.6,-66.45 58.97,-97.01 112.07,-109.13 245.48,-106.24 387.67,-83.64 130.05,20.53 260.11,45.21 388.07,76.13 3.36,0.82 29.28,9.59 30.95,7.96 41.82,-44.39 88.66,-100.36 139.26,-171.06 43.91,-60.67 149.29,-82.37 233.35,-82.37 107.48,0 240.04,34.72 308.63,129.65 5.85,-11.75 10.45,-25.58 14.22,-41.86 9.62,-40.96 14.64,-83.18 15.48,-125.86 0,0 -43.92,1.27 -60.23,3.8 -117.1,17.9 -211.18,-11.3 -278.1,-86.16 -44.33,-50.19 -71.51,-114.65 -87.82,-180.65 0,0 -1643.5,444.11 -1652.7,446.56 -25.93,7.14 -37.22,-33.46 -10.87,-40.15 z m -1057.2,-645.65 -409.4,371.79 611.39,661.11 -151.38,-951.35 c -5.03,-33.09 -23.84,-61.93 -50.61,-81.55 z m -89.9,-30.11 h -691.28 l 329.12,355.88 389.33,-353.35 c -8.78,-1.72 -17.98,-2.53 -27.17,-2.53 z m -1641.42,988.14 260.95,291.14 420.29,-381.46 -583.8,-679.92 -120.85,759.85 c 8.36,0 17.14,3.7 23.41,10.39 z m 214.54,332.91 -248.4,-276.85 -93.27,587.16 z M 6299.76,5922 6083.55,4563.24 5408.17,3832.69 4901.31,4292.27 Z m -1444.87,-1587.87 -419.02,380.1 1092.74,1217.8 h 697.54 z m -873.6,837.6 -120.86,760.3 h 824.68 z m 789.55,760.3 h 673.71 L 4389.45,4756.46 4005.13,5105.28 Z M 4387.36,3388.57 c -69.85,0 -130.48,48.1 -140.52,111.66 l -5.01,30.92 618.5,713.47 505.18,-458.32 -363.83,-397.73 z m -832.21,6642.13 c -72.77,58.2 -129.22,141.4 -129.22,237.1 v 470.9 h 1116.58 v -470.9 c 0,-193.6 -204.08,-309.42 -369.28,-348.32 -61.88,-14.63 -127.96,-22.57 -194.86,-22.57 -151.81,0.42 -306.96,40.98 -423.22,133.79 z m -52.69,1170.6 c -109.15,347.5 -74.44,800 -55.2,973.1 94.51,-118.8 314.9,-408.2 455.82,-700.9 -50.59,-128.8 -96.59,-278.5 -106.63,-416.1 -7.12,-101.2 -4.6,-186.5 7.95,-255.9 h -119.2 c -66.9,92.4 -128.38,227 -182.74,399.8 z m 437.42,190.2 c 10.05,28.9 20.92,56.5 31.79,83.2 38.89,97.1 79.46,180.3 107.06,232.6 27.6,-76.1 71.93,-212.5 99.11,-360.5 5.43,-27.2 9.62,-54.8 13.38,-82.4 10.45,-74.9 14.64,-150.1 9.62,-220.8 -7.11,-97.9 -21.75,-179.4 -43.07,-242.1 h -290.24 c -12.11,58.1 -17.14,139.2 -8.77,251.3 7.94,109.1 41.4,228.7 81.12,338.7 z m 978.58,-1439.81 c 164.77,97.81 358.39,146.41 542.81,187.31 132.57,29.7 238.79,35.6 329.54,18.4 l 30.11,-258.82 h -948.88 c 9.2,21.74 25.51,40.56 46.42,53.11 z m 690.02,2318.51 h 2476.95 l 274.76,-2371.62 0.41,-2.51 H 5884.07 l -0.42,2.51 z m 3122.64,-239.7 c 106.65,-76.1 158.09,-155.1 182.35,-206.1 12.12,-26.4 24.66,-47.7 0.41,-69 -51.86,-46.5 -152.64,-37.7 -177.31,-34.8 -26.35,3 -69.84,39.4 -97.44,51.5 -43.92,19.2 -91.17,36.4 -139.68,38 -94.51,3 -157.66,-50.6 -171.04,-143.8 -5.43,-86.2 39.73,-158.9 138.01,-222.9 4.59,-3.4 19.23,-13 10.03,-38.5 -11.29,-31.8 -57.71,-74 -125.04,-67.3 -40.99,4.2 -70.25,17.5 -99.11,38.5 l -88.24,759.8 c 232.94,21.3 375.11,32.2 567.06,-105.4 z m 247.16,-299 c 167.28,-82.8 326.59,-187.3 448.29,-328.7 58.59,-68.1 107.5,-144.3 142.58,-227.1 38.07,-89.5 59.86,-185.2 58.14,-282.2 -4.16,-275.2 -196.56,-520.7 -435.71,-656.6 -58.95,-33.5 -100.36,-44.3 -100.36,-46.8 -30.11,-0.5 -390.62,0 -538.24,0 5.02,9.2 5.02,20.9 -0.84,30.9 -18.4,29.7 -45.58,89.5 -42.24,122.1 1.68,17.2 -10.87,32.6 -28.01,34.7 -17.15,1.3 -32.62,-10.8 -34.71,-28 -5.85,-61.9 41.4,-145.1 50.6,-159.7 h -107.89 c -43.08,369.6 -85.73,738.9 -128.81,1108.2 64.81,-33.9 147.2,-31 209.52,7.5 45.16,27.6 80.71,80.3 67.74,131.7 -19.66,78.2 -133.82,103.7 -150.97,182.4 -15.47,69.4 62.31,130.9 133.41,127.5 88.66,-4.6 142.18,-81.5 225.82,-90.3 42.25,-4.6 87.82,-0.9 128.38,12.1 10.88,3.4 92.01,52.7 102.04,61.1 0.85,0.4 1.26,0.8 1.26,1.2 z m 963.92,-314 c 13.39,-7.1 63.2,-39.4 97.5,-144.3 65.2,-197.8 -22.2,-407.8 -131.31,-519 -80.74,-82.4 -174.86,-116.3 -260.12,-92.8 28.84,79.4 43.48,162.6 43.03,247.1 -0.45,125.5 -38.88,256.4 -99.91,365.5 -29.74,53.5 -62.74,105.8 -101.26,153.1 79.93,-0.4 452.07,-9.6 452.07,-9.6 z m -90.77,-1290.2 c 7.96,0 15.1,-5.8 15.1,-13.4 V 9896.07 H 8424.18 l -0.42,2.51 -26.76,228.72 z m 166.87,1358.3 c 31.4,18.4 62.3,34.3 98.3,47.7 99.6,-134.7 125.9,-325.8 71.9,-525.3 -56.9,-212 -194.04,-386.8 -357.96,-456.2 -16.27,-7.1 -14.64,-29.7 0.45,-39.3 15.47,-9.6 57.69,20.5 70.62,28 53.16,30.5 100.79,70.3 142.19,115 89.1,95.8 151.4,215.8 185.3,341.7 55.6,207 29.3,406.5 -71.5,550.7 44.3,15.5 89.5,29.3 135.1,40.6 334.5,83.6 682,63.6 1004.9,-59 71.1,-26.7 140.5,-58.1 207.8,-93.2 543.7,-284.4 1264.3,-984.9 1830.1,-2684.41 0.3,-2.08 117.1,-373.86 146.7,-478.38 -29.3,-2.53 -88.7,-3.8 -206.1,1.63 -7.5,0.45 -202.8,13.38 -231.3,15.46 -238.3,314.91 -424.1,521.06 -428.7,526.57 -20.5,22.52 -64.8,3.35 -52.7,-31.37 0,-0.45 111.3,-290.23 178.2,-467.99 -18.8,2.08 -38.5,3.8 -58.1,5.88 -109.6,11.66 -219.2,23.78 -329.1,29.66 -73.6,3.79 -147.7,5.42 -221.7,3.79 28.5,394.3 38.9,783.26 -5.8,994.86 -5.9,25.51 -83.6,236.28 -108.3,296.5 -46.5,112.91 -215.4,492.6 -237.2,539.9 -62.7,135.9 -453.3,904.1 -473.7,940.5 -68.7,119.6 -126,210.8 -175.3,278.5 -23.4,32.2 -75.7,-4.2 -50.6,-37.2 47.3,-64.8 105,-156.4 171.4,-272.7 20.5,-35.5 409.1,-800 471.4,-935.5 21.7,-46.8 189.8,-425.26 235.8,-537.33 24.7,-59.81 100,-263.47 105,-285.63 40.5,-193.21 34.3,-542.84 9.6,-907.04 -2.1,-33.45 -14.2,-171.87 -24.2,-273.14 -23.1,-232.09 -62,-623.05 -70.3,-690.41 l -649.9,53.53 30.1,590.95 12.1,238.34 36.8,727.23 c 2.1,43.91 -9.2,86.99 -32.6,123.79 0,0 -50.5,77.78 -69.8,108.73 -46.8,74.02 -214.9,345.43 -236.3,380.55 -56.8,93.68 -361.7,631.03 -408.5,724.33 -20.9,43.1 -43.2,89.1 -62,132.1 -41.4,93.3 -66,164.8 -73.9,212.5 -6.7,38.9 -69.1,31.8 -62,-10.1 8.8,-53.9 34.3,-128.3 78.7,-227.9 19.2,-43.9 41.8,-90.3 63.1,-134.2 47.3,-94.5 258.4,-472.15 268.9,-490.13 -1.3,0.41 -2.1,0.41 -3.4,0.41 h -942.53 v 215.32 c 0,41.9 -35.17,76.2 -77.84,76.2 0,0 -614.28,-0.9 -613.01,0 178.57,104.5 311.57,250.9 385.52,412.7 25.5,-7.5 51.9,-11.7 77.85,-11.7 86.98,0 175.23,41.4 251.72,119.2 121.69,124.6 219.19,359.6 145.59,582.5 -34.7,105.4 -84.1,152.3 -114.22,172.3 11.3,7.1 22.62,14.2 33.42,20.5 z m 3384.4,-3703.5 c -104.5,159.77 -209.9,309.04 -308.2,442.04 38.1,-2.89 131.8,-8.77 142.2,-9.58 35.2,-1.72 124.3,-5.07 128.9,-5.07 v -0.45 c 36.3,-130.83 47.6,-278.48 37.1,-426.94 z m 19.3,-1977.19 c -8,13.38 -15.9,26.76 -23.9,40.51 -19.6,33.9 -39.7,68.62 -60.5,103.7 -217.1,366 -500.7,803.43 -637.4,1013.28 196.1,-132.1 579.2,-416.9 802.5,-756.86 139.3,-414.01 281.1,-695.48 424.9,-954.33 h -125.5 c -116.2,138.79 -252.5,337.88 -380.1,553.7 z m -896.6,565.82 h 93.7 v -311.12 c -31.8,-7.96 -62.7,-17.63 -93.7,-28.03 z m 480.1,0 c 72.3,-115.47 146.3,-235.08 216.1,-350.91 -5.4,3.35 -109.1,49.73 -160.5,61.49 -51.8,11.75 -106.6,17.54 -164.3,17.54 -71.5,0 -143.9,-8.77 -215,-24.23 v 296.11 z M 11993,6817.74 h 726.5 c 69,-106.24 155.1,-240.06 246.3,-384.36 h -1000.4 c 8.8,91.23 27.6,382.28 27.6,384.36 z m 1299.3,0 c 46.9,-132.1 91.6,-260.94 133.5,-384.36 h -16.4 c -127.1,148.1 -272.6,279.02 -404.8,384.36 z m -251.3,62.75 c 59.4,39.32 115.9,93.21 167.7,160.57 0.8,1.27 2.1,2.53 2.9,3.8 19.7,-55.24 39.3,-110.04 58.6,-164.37 z m -268,1063.91 c -8.4,5.78 -21,6.24 -28.9,-4.61 l -102.8,-148.1 c -51.1,-73.6 -131.8,-119.98 -221.3,-127.49 l -356.8,-29.74 c 6.8,55.24 51.9,493.93 64.9,659.93 0,0 133.4,0.82 157.7,-0.81 160.2,-12.12 321.1,-22.6 480.5,-41.41 123.8,-329.11 275.1,-734.8 419.8,-1135.79 -8.3,-12.57 -17.5,-25.14 -26.8,-37.25 -55.9,-72.33 -137.5,-153.08 -243.3,-192.41 -166.4,125.5 -294.8,201.63 -306.9,208.68 -13,7.6 -28.9,5.43 -39,-5.42 -10,-10.4 -11.3,-26.77 -3.3,-38.88 1.7,-2.08 48.9,-73.6 122.6,-186.89 0,0 -693.1,0.36 -693.1,2.89 3.4,148.47 -3.7,302.35 -30.4,375.13 l 18.8,-1.26 h 2.1 c 15.9,0 29.3,11.66 31.3,27.58 0,0 24.7,189.87 40.6,323.68 l 364.7,30.56 c 102,8.32 194,61.49 252.1,145.12 0,0 102,146.74 102.9,148.01 7.5,10.85 2.9,22.15 -5.4,28.48 z m -1451.2,-593.04 6.3,125.87 c 0,0 644,-58.14 647,-55.61 -6.3,-49.73 -10.9,-83.64 -15.1,-115.82 z m -21.3,822.15 -30.6,-605.51 -777.3,-64.83 v 485.53 z m -192.4,165.19 h 0.5 c -1.3,-7.05 -2.9,-16.28 -4.7,-26.31 -0.8,-3.8 -1.2,-7.51 -2,-11.76 -0.5,-2.44 -0.8,-5.42 -1.7,-7.95 -8.4,-45.57 -18.4,-99.1 -15.9,-104.53 h -0.4 l -591.3,-135.43 v 188.15 z m 10,65.28 h -1.2 l -624.3,-99.55 v 1223.63 h 380.5 c 33,-54.37 319.5,-541.18 245,-1124.08 z m -194.4,1161.3 c -1.2,1.67 -1.7,2.92 -2.5,4.18 l -0.4,0.42 c -6.3,7.94 -17.6,20.08 -17.6,20.08 v 260.11 c 38.5,-65.24 76.5,-129.23 114.2,-191.12 21.4,-35.12 189.9,-307.37 236.7,-381.39 19.6,-30.94 69.8,-109.15 69.8,-109.15 16.3,-25.93 24.7,-56.03 23,-86.98 l -41.8,-818.86 v -0.36 c -2.1,-0.46 -5.4,-0.82 -10.5,-1.72 -18.3,-3.71 -55.1,-10.85 -87.3,-16.73 -8,-1.63 -15.6,-2.89 -22.3,-4.16 -14.5,-2.53 -26.7,-4.61 -33.4,-5.87 134.7,573.41 -121.7,1132.9 -227.9,1331.55 z m 408.6,-3131.9 h -162.7 c -161.4,0 -247.9,199.1 -143,319.17 35.9,40.95 88.6,65.19 143,65.19 h 140.1 c -1.7,-98.64 3.4,-248.37 22.6,-384.36 z m 32.2,501.44 c -8.4,6.7 -20.5,9.23 -31.4,3.8 -23.4,-10.49 -90.7,-39.33 -120.8,-43.94 -31.8,-3.35 -69.5,12.57 -95.4,30.11 -6.3,4.16 -50.1,58.95 -41,64.37 2.1,1.27 5.4,2.54 11.3,3.35 106.3,23.42 203.3,204.97 207.4,212.93 10.1,18.8 41.4,50.54 75.7,79.83 l 527.9,-38.06 c 0.3,-4.61 1.6,-9.13 3.7,-13.38 63.2,-116.28 15.1,-678.3 -8.8,-887.79 -2.1,-89.51 -53.5,-138.88 -96.2,-164.37 -87,-51.45 -216.6,-52.26 -314.9,-2.53 -99.1,55.69 -125.1,592.58 -105,726.39 1.7,11.75 -3.7,22.6 -12.5,29.29 z M 12619.1,5710.79 V 4449.5 h -93.7 v 1243.75 c 30.1,15 60.6,24.68 93.7,17.54 z m 688.3,-478.03 c -2,-3.71 -2.9,-8.31 -2.9,-12.93 v -1089.4 c -159.8,171.06 -378.5,286.43 -622.7,313.19 V 5674.8 c 14.6,-12.93 28,-28.39 40.6,-43.04 24.2,-28.48 47.3,-55.24 76.9,-63.56 41.4,-11.75 87.4,-8.41 126.3,-3.34 16.3,2.53 31.8,4.61 46,4.61 26.8,0 47.2,-7.6 69,-25.14 37.2,-30.56 58.5,-64.01 83.2,-103.25 23.4,-36.8 49.8,-78.21 93.3,-123.42 31.8,-32.54 61.9,-60.58 90.3,-84.9 z m -45.2,128.39 c -39.3,40.6 -62.7,77.85 -85.2,113.38 -26.4,42.23 -51.5,81.56 -96.7,118.36 -33,26.76 -67.3,39.24 -108.7,39.24 -52.7,0 -102.8,-17.09 -155.6,-3.35 -11.3,2.98 -29.6,24.68 -46,43.94 -33,38.07 -73.9,85.72 -137.5,99.55 -66.1,13.38 -123.4,-14.2 -178.6,-47.29 -33.9,-20.07 -66.1,-39.33 -101.6,-41.77 -28.5,-2.53 -59,-3.35 -90.3,-3.35 -98.3,0 -189.9,10.85 -249.7,20.44 145.9,98.73 532.8,335.8 884.5,335.8 105,0 199,-21.25 280.2,-63.11 39.2,-20.07 76.5,-42.68 112.5,-66.46 18.8,-31.37 36.8,-62.38 54.3,-92.49 124.2,-214.1 258.9,-414.82 376.8,-562.83 h -337.1 c -35.9,28.39 -77.3,64.83 -121.3,109.94 z m 296.5,2047.09 -53.5,-369.71 c -246.7,550.35 -513.5,1101.16 -517.7,1109.93 -5,10.4 -17.6,14.65 -28.1,9.59 -10.4,-4.97 -14.5,-17.54 -9.5,-28.03 7.1,-14.2 712.6,-1469.51 888.6,-2011.46 26.8,-82.01 53.9,-164.83 81.6,-247.2 67.3,-202.8 136.7,-411.48 196.9,-620.15 h -117.4 c -35.2,62.29 -73.3,131.28 -113,207.86 -56.8,109.5 -117.5,234.99 -179,381.37 -49.3,116.64 -99.1,247.11 -148.4,393.49 -2.9,8.77 -5.9,17.54 -8.8,26.4 -199.1,601.71 -496,1405.95 -714.7,1985.51 -8.4,22.24 -113.3,299.09 -149.8,394.39 69.9,-82.82 165.7,-200.27 274.8,-342.95 16.7,-21.69 33.9,-44.29 51.5,-67.26 172.6,-230.02 370.9,-515.64 546.5,-821.78 z m 229.2,-446.65 c 0,0 -52.7,-260.49 -82.8,-381.82 -54.3,130.1 -166.5,390.59 -169.4,390.59 l 56.6,378.11 c 71,-126.76 137.1,-256.41 195.6,-386.88 z m 520.3,5698.31 c 16.2,136.3 132.5,239.2 269.7,239.2 166.1,0 301.5,-148.4 275.2,-314.9 l -906.7,-5845.94 c -74.4,204.97 -173.1,411.57 -283.1,611.02 z m -28.1,-7408.69 h -119.6 c -61,213.29 -131.7,426.57 -200.7,633.17 -27.6,82.73 -54.8,165.1 -81.6,246.66 -33.8,103.34 -84,233.36 -147.5,386.88 0,0 63.1,257.59 85.2,380.11 38.6,-89.88 73.2,-179.84 102.5,-268.9 154.3,-467.53 278.9,-991.49 361.7,-1377.92 z m -55.6,996.55 c 18.8,80.74 43.5,160.58 77,236.71 13.8,30.92 40.6,100.72 74.4,149.27 18.4,26.31 39.3,46.39 61.1,49.73 27.1,3.8 46.4,-25.5 70.3,-38.88 35,-19.62 81.5,-3.34 107.4,27.67 25.5,30.47 34.7,71.88 39.3,112.02 14.2,120.44 2.1,257.23 84.1,346.65 30.1,32.64 50.5,20.98 71.1,-10.39 24.2,-38.52 85.3,-33.91 119.1,-4.16 34.3,29.65 48.9,75.22 64.8,117.45 75.4,201.98 208.7,381.82 379.8,512.29 13.8,-207.41 -42.7,-418.62 -157.7,-591.77 -25.5,-37.97 -51.4,-94.03 -15.5,-122.51 46.9,-37.16 98.8,17.18 115.5,-51.44 11.7,-46.84 -25.6,-115.83 -46.5,-154.71 -53.9,-100.36 -136.3,-181.91 -193.5,-279.74 -48.1,-81.19 -77.9,-193.67 -13.4,-262.2 -40.2,-92.86 -62.8,-192.41 -98,-287.34 -35,-94.94 -85.2,-188.61 -166.3,-248.83 -79.1,-58.58 -179.5,-80.28 -265.2,-128.38 -97.8,-55.15 -175.2,-145.12 -214.6,-250.09 -26.7,208.68 -122,406.95 -126.3,617.26 -1.6,87.8 12.6,175.68 33.1,261.39 z M 16295,7395.67 c -8.4,15.46 -35.6,26.76 -54.8,26.76 -109.1,0 -202.9,-122.51 -278.1,-220.79 -58.9,-76.49 -109.1,-145.93 -148,-234.99 -29.3,-66.91 -56.9,-130.47 -107.1,-172.69 -68.1,-57.32 -153.9,-96.2 -236.6,-133.91 -103.8,-47.19 -210.9,-96.11 -291.2,-181.91 -35.5,-37.97 -63.5,-81.1 -86.5,-126.67 -8.4,20.07 -10,45.11 -0.5,82.36 16.4,61.03 59.9,120.44 110.1,188.61 68.5,93.67 146.7,200.36 173.5,343.31 6.3,33.09 3.8,71.15 -23.4,94.12 -25.1,21.33 -59.8,22.15 -90.7,22.6 0,0 27.6,80.74 52.2,119.17 27.2,42.67 50.6,79.47 57.7,103.7 41.9,139.7 72,287.7 66.1,434.09 -1.3,22.15 -1.3,47.28 -7.1,68.98 -5.5,20.53 -28.1,31.38 -46.9,20.53 -11.3,-6.69 -281,-168.99 -419.9,-508.14 -18.3,-45.11 -37.6,-90.68 -62.2,-132.54 -5,-9.22 -10.4,-19.26 -17.6,-26.77 -10.8,-11.66 -14.2,-7.14 -25.5,5.88 -17.5,20.07 -41.8,47.29 -81.2,47.29 -26.7,0 -53.9,-13.02 -83.6,-39.78 -79.4,-72.34 -89.1,-206.96 -97,-315.28 -3.7,-52.71 -7.5,-107.05 -19.6,-128.84 -5,-9.59 -12.2,-26.77 -23,-30.92 -12.6,-4.62 -25.1,7.95 -35.2,15 -20.1,14.65 -45.6,32.64 -77.7,32.64 -39.8,0 -75.7,-26.31 -112.5,-83.18 -109.6,-168.53 -167.7,-361.38 -190.8,-553.34 -45.6,167.36 -94.8,336.26 -147.5,499.37 l 924.5,5963.87 c 14.2,92 -8.7,183.2 -65.6,256.8 -180.2,233.3 -567.9,129.6 -603.4,-163.6 l -634.5,-5225.71 c -49.7,86.53 -101.2,171.43 -153.4,253.89 21.7,175.22 13.7,353.79 -27.6,513.91 57.2,0.82 97,5.07 110.4,14.2 0.4,0.45 1.2,0.9 1.6,1.26 9.3,7.96 13.1,20.53 9.7,32.19 -9.7,33.91 -19.2,67.36 -28.9,100.81 -7.1,23.88 -71.9,238.34 -88.3,289.78 -1.6,5.07 -141.7,413.63 -142.9,417.8 -46.9,127.13 -96.2,253.01 -149.4,377.64 -48.1,114.58 -99.5,227.91 -153.4,339.99 -49.8,102.45 -102.1,204.08 -157.2,303.64 -50.7,91.5 -103.7,181.9 -159.8,270.1 -51,80.7 -104.5,160.2 -160.6,238 -51,71.1 -104.6,140.5 -160.6,207.8 -51,61.9 -104.1,122.1 -159.7,180.3 -138.9,146.3 -292,279.7 -460.1,392.2 -114.1,75.7 -234.6,140.1 -360.9,192.8 -101.2,42.2 -205.7,72.8 -312.4,97 -115.8,26 -235.8,38.1 -354.6,38.1 -102,0 -203.6,-9.2 -304,-26.8 -48.1,-9.2 -95.8,-19.6 -143,-32.2 -39.8,-10.4 -79,-23.4 -118,-37.2 -45.6,-16.3 -95.7,-36 -139.22,-57.7 -0.37,-0.8 -0.82,-0.8 -1.27,-0.8 -34.72,-17.6 -72.69,-37.3 -98.28,-67 0,0 -366.73,10.5 -463.74,8 -119.62,127.5 -273.05,233.8 -444.13,305.3 -12.96,46.4 -60.21,169.8 -223.73,286.8 -211.6,151.4 -370.93,138.5 -611.4,117.1 l -12.12,106.3 c -1.68,15.9 -15.06,28 -30.95,28 H 5573.35 c -8.78,0 -17.56,-3.8 -23.42,-10.5 -5.85,-6.7 -8.78,-15.9 -7.52,-24.6 l 240.87,-2075.5 c -94.92,14.6 -203.66,7.9 -335.8,-21.8 -189.03,-42.2 -388.09,-92 -561.22,-194.9 -40.98,-24.22 -69.41,-62.7 -81.13,-107.02 h -496.4 c 177.73,75.7 296.5,213.32 296.5,369.22 v 502.3 c 0,17.1 -14.22,31.4 -31.37,31.4 H 4422.9 c 54.78,61.9 113.75,138 176.9,231.6 261.37,388.5 357.55,940.6 361.74,963.6 5.01,27.1 -27.61,47.2 -49.77,30.5 -3.35,-2.5 -332.05,-247.6 -602.62,-532.4 -28.01,-29.2 17.15,-72.3 45.59,-43.1 194.04,204.5 419.44,388.5 528.17,474.3 -36.8,-169 -139.26,-566.7 -335.39,-857.7 -77.78,-115.5 -147.2,-202 -209.09,-266.8 h -115 c 18.4,61.4 32.62,139.2 39.73,237.5 24.24,327 -143.03,738.1 -150.14,755.7 -9.62,23.8 -43.91,25.5 -56.46,3.7 -5.01,-8.7 -61.89,-108.7 -121.69,-247.5 -185.26,365 -470.88,702.9 -485.52,720.5 -16.73,20.1 -51.44,10 -54.79,-15.5 -4.18,-25.5 -93.67,-622.7 48.1,-1073.5 53.11,-169.3 109.98,-292.7 166.86,-380.9 h -214.96 c -17.15,0 -31.36,-14.3 -31.36,-31.4 v -502.3 c 0,-155.9 118.77,-293.52 296.5,-369.22 h -687.09 c -17.15,0 -31.37,-14.22 -31.37,-31.36 v -307.8 c 0,-17.14 14.22,-31.36 31.37,-31.36 h 379.3 V 3388.57 H 1816.73 c -17.16,0 -31.38,-14.19 -31.38,-31.37 0,-17.55 14.22,-31.38 31.38,-31.38 H 15922 c 17.5,0 31.4,13.83 31.4,31.38 0,17.18 -13.9,31.37 -31.4,31.37 h -927.1 c 82.3,68.17 136.7,188.61 136.7,324.95 v 1506.31 c 0,9.22 -3.7,17.18 -10.1,22.97 10.1,121.34 90.4,243.85 248,381.01 21.7,18.8 43.5,37.61 65.7,56.05 125.5,105.34 254.7,214.11 314.4,369.62 24.7,64.02 35.6,133 46.5,199.09 16.3,99.55 31.4,193.67 88.6,266.37 106.7,135.53 192.9,272.24 255.5,407.32 24.4,51.89 37.3,117.99 50.2,187.79 19.7,101.26 39.3,206.14 95.4,254.7 12.6,10.85 14.2,21.79 9.2,30.92" /></g></g></g></svg>