<?xml version="1.0" encoding="UTF-8" standalone="no"?>
<svg
   xmlns:dc="http://purl.org/dc/elements/1.1/"
   xmlns:cc="http://creativecommons.org/ns#"
   xmlns:rdf="http://www.w3.org/1999/02/22-rdf-syntax-ns#"
   xmlns:svg="http://www.w3.org/2000/svg"
   xmlns="http://www.w3.org/2000/svg"
   viewBox="0 0 589.71997 580.15997"
   height="580.15997"
   width="589.71997"
   xml:space="preserve"
   id="svg2"
   version="1.1"><metadata
     id="metadata8"><rdf:RDF><cc:Work
         rdf:about=""><dc:format>image/svg+xml</dc:format><dc:type
           rdf:resource="http://purl.org/dc/dcmitype/StillImage" /></cc:Work></rdf:RDF></metadata><defs
     id="defs6" /><g
     transform="matrix(1.3333333,0,0,-1.3333333,0,580.16)"
     id="g10"><g
       transform="scale(0.1)"
       id="g12"><path
         id="path14"
         style="fill:#dadbd8;fill-opacity:1;fill-rule:nonzero;stroke:none"
         d="m 4035.44,3174.01 h -998.56 v 1040.91 h 998.56 V 3174.01" /><path
         id="path16"
         style="fill:#e7e8e5;fill-opacity:1;fill-rule:nonzero;stroke:none"
         d="m 3967.82,3174.01 h -998.56 v 1040.91 h 998.56 V 3174.01" /><path
         id="path18"
         style="fill:#fafaf9;fill-opacity:1;fill-rule:nonzero;stroke:none"
         d="m 3833.59,3313.94 h -730.1 V 4075 h 730.1 v -761.06" /><path
         id="path20"
         style="fill:#dadbd8;fill-opacity:1;fill-rule:nonzero;stroke:none"
         d="m 3103.49,3308.88 c 0.49,-0.58 -6.52,-8.45 -18.24,-20.69 -11.72,-12.24 -28.15,-28.85 -46.52,-46.94 -18.37,-18.11 -35.21,-34.27 -47.6,-45.78 -12.39,-11.51 -20.33,-18.36 -20.86,-17.82 -0.53,0.54 6.44,8.37 18.16,20.61 11.72,12.24 28.18,28.88 46.6,47.03 18.42,18.13 35.29,34.32 47.69,45.83 12.38,11.51 20.29,18.33 20.77,17.76" /><path
         id="path22"
         style="fill:#dadbd8;fill-opacity:1;fill-rule:nonzero;stroke:none"
         d="m 3833.59,3310.74 c 0.57,0.49 8.44,-6.52 20.68,-18.24 12.25,-11.72 28.86,-28.14 46.95,-46.52 18.1,-18.37 34.26,-35.21 45.76,-47.6 11.52,-12.39 18.37,-20.33 17.84,-20.86 -0.54,-0.53 -8.37,6.44 -20.62,18.16 -12.23,11.72 -28.89,28.18 -47.03,46.61 -18.13,18.41 -34.33,35.29 -45.83,47.68 -11.51,12.38 -18.33,20.28 -17.75,20.77" /><path
         id="path24"
         style="fill:#dadbd8;fill-opacity:1;fill-rule:nonzero;stroke:none"
         d="m 3831.59,4072.96 c -0.48,0.58 6.53,8.45 18.25,20.69 11.72,12.24 28.14,28.85 46.51,46.95 18.37,18.1 35.21,34.26 47.61,45.77 12.39,11.5 20.32,18.36 20.86,17.82 0.52,-0.54 -6.45,-8.37 -18.17,-20.61 -11.72,-12.24 -28.18,-28.89 -46.6,-47.03 -18.42,-18.14 -35.29,-34.33 -47.68,-45.84 -12.4,-11.5 -20.29,-18.33 -20.78,-17.75" /><path
         id="path26"
         style="fill:#dadbd8;fill-opacity:1;fill-rule:nonzero;stroke:none"
         d="m 3101.5,4071.09 c -0.58,-0.48 -8.45,6.53 -20.69,18.25 -12.24,11.72 -28.85,28.14 -46.95,46.52 -18.1,18.37 -34.26,35.21 -45.76,47.6 -11.52,12.39 -18.37,20.33 -17.83,20.86 0.53,0.54 8.38,-6.44 20.61,-18.16 12.24,-11.72 28.89,-28.19 47.03,-46.61 18.14,-18.41 34.33,-35.29 45.83,-47.67 11.52,-12.4 18.33,-20.3 17.76,-20.79" /><path
         id="path28"
         style="fill:#dadbd8;fill-opacity:1;fill-rule:nonzero;stroke:none"
         d="m 3831.59,3313.94 c 0,0 -0.09,1.27 -0.13,3.67 -0.03,2.54 -0.08,6.04 -0.14,10.59 -0.07,9.47 -0.16,23.2 -0.28,41.05 -0.15,35.98 -0.35,88.42 -0.63,155.06 -0.29,133.27 -0.71,323.22 -1.21,550.69 l 2.39,-2.39 c -212.53,-0.11 -462.13,-0.23 -728.02,-0.36 h -0.07 l 2.73,2.75 c -0.13,-279.35 -0.27,-540.69 -0.39,-761.06 l -2.34,2.35 c 218.27,-0.5 399.99,-0.91 527.31,-1.21 63.67,-0.26 113.71,-0.47 148.04,-0.61 17.02,-0.12 30.11,-0.21 39.14,-0.27 4.34,-0.06 7.68,-0.1 10.1,-0.13 2.27,-0.05 3.5,-0.13 3.5,-0.13 0,0 -1.05,-0.09 -3.24,-0.14 -2.36,-0.03 -5.61,-0.07 -9.85,-0.13 -8.93,-0.06 -21.86,-0.15 -38.68,-0.27 -34.2,-0.14 -84.07,-0.35 -147.5,-0.62 -127.7,-0.28 -309.93,-0.7 -528.82,-1.2 h -2.35 l -0.01,2.36 c -0.11,220.37 -0.25,481.71 -0.39,761.06 v 2.73 h 2.75 0.07 c 265.89,-0.12 515.49,-0.25 728.02,-0.35 h 2.4 l -0.01,-2.38 c -0.5,-228.1 -0.92,-418.58 -1.21,-552.22 -0.28,-66.41 -0.48,-118.66 -0.63,-154.52 -0.13,-17.64 -0.21,-31.22 -0.28,-40.58 -0.06,-4.45 -0.1,-7.87 -0.14,-10.34 -0.04,-2.31 -0.13,-3.4 -0.13,-3.4" /><path
         id="path30"
         style="fill:#e7e8e5;fill-opacity:1;fill-rule:nonzero;stroke:none"
         d="m 3296.18,3757.05 c 0,0 -15.63,-188.44 188.43,-188.44 0,100.56 -82.96,179.94 -188.43,188.44" /><path
         id="path32"
         style="fill:#e7e8e5;fill-opacity:1;fill-rule:nonzero;stroke:none"
         d="m 3669.58,3756.91 c 0,0 -188.43,15.63 -188.43,-188.43 100.56,0 179.94,82.96 188.43,188.43" /><path
         id="path34"
         style="fill:#dadbd8;fill-opacity:1;fill-rule:nonzero;stroke:none"
         d="m 3475.56,3860.04 c 0,0 -153.94,-138.18 8.43,-291.43 75.51,80.02 69.11,205.47 -8.43,291.43" /><path
         id="path36"
         style="fill:#dadbd8;fill-opacity:1;fill-rule:nonzero;stroke:none"
         d="m 4422.89,14.8516 c 0,0 -2.22,0.3086 -6.47,1.25 -4.26,0.8281 -10.6,2.1093 -19.02,3.1367 -16.78,2.3633 -41.78,3.1406 -74.03,2.7031 -16.12,-0.0703 -34.12,-0.2109 -53.78,1.457 -19.59,1.7422 -41.1,5.211 -62.55,14.2227 -21.4,8.8086 -42.27,24.7383 -55.76,47.7383 -6.68,11.4414 -11.38,24.6996 -12.12,38.8906 -0.84,14.039 2.78,29.23 11.83,41.238 8.75,12.094 21.62,21.614 36.64,26.262 14.86,4.602 33.03,3.129 46.21,-7.551 13.27,-10.308 20.56,-26.957 21.89,-43.789 1.44,-17.051 -3.82,-34.5 -13.17,-49.1287 -9.28,-14.793 -22.07,-27.293 -36.32,-37.8711 -14.2,-10.7305 -30.21,-19.3985 -47.17,-26.2696 -33.93,-13.7695 -72.44,-19.01169 -110.82,-14.4297 -38.27,4.4883 -76.96,19.1289 -108.24,45.1797 -31.36,25.7188 -55.71,61.0194 -69.35,100.8394 -13.73,39.719 -16.37,84.461 -4.44,126.54 6.1,20.91 15.85,41.128 29.92,58.441 13.99,17.187 32.56,31.59 54.35,38.508 21.59,6.961 45.25,7.371 66.68,0.191 21.45,-6.969 40.06,-23.07 48.9,-43.719 9.24,-20.48 9.78,-43.679 4.52,-64.66 -5.04,-21.133 -16.2,-40.531 -31.55,-55.48 -31.3,-29.77 -74.39,-40.879 -114.38,-41.922 -40.52,-0.938 -79.84,7.473 -115.69,21.34 -72.05,28.082 -129.13,77.543 -171.73,130.371 -43.15,53.039 -70.99,111.23 -90.2,165.64 -19.18,54.649 -30.02,106.008 -37.76,151.192 -7.47,45.269 -11.69,84.57 -14.8,116.68 -3.09,32.117 -4.89,57.097 -6.14,74.027 -0.53,8.262 -0.95,14.652 -1.25,19.281 -0.24,4.352 -0.19,6.59 -0.19,6.59 0,0 0.42,-2.199 0.89,-6.531 0.46,-4.61 1.1,-11 1.93,-19.219 1.73,-17.199 4.22,-42.039 7.4,-73.891 3.53,-32.027 8.14,-71.211 15.94,-116.289 8.08,-44.98 19.21,-96.05 38.55,-150.218 19.39,-53.973 47.19,-111.383 90.05,-163.692 42.31,-52.101 98.81,-100.66 169.57,-128.051 35.17,-13.527 73.84,-21.687 113.25,-20.687 38.97,1.058 80.38,12.019 109.92,40.226 14.32,13.981 24.9,32.321 29.61,52.25 4.97,19.782 4.34,41.481 -4.15,60.243 -8.14,18.918 -24.98,33.55 -44.88,40.031 -19.85,6.668 -42.14,6.32 -62.37,-0.223 -20.33,-6.449 -37.82,-19.937 -51.16,-36.308 -13.39,-16.461 -22.8,-35.871 -28.68,-56.032 -11.52,-40.55 -9.06,-83.879 4.23,-122.461 13.21,-38.668 36.82,-72.9878 67.15,-97.9488 30.23,-25.2578 67.64,-39.5078 104.86,-43.9687 37.3,-4.5391 74.8,0.4687 107.83,13.7695 32.72,13.2695 62.85,33.7617 80.91,61.5586 8.9,13.8824 13.76,29.9214 12.5,45.6834 -1.17,15.61 -7.86,30.828 -19.67,40.047 -11.68,9.531 -27.74,10.981 -41.51,6.852 -13.84,-4.2 -25.99,-13.059 -34.16,-24.25 -8.46,-11.153 -11.81,-24.879 -11.15,-38.161 0.61,-13.32 4.96,-25.9409 11.29,-36.9409 12.81,-22.1289 32.74,-37.6485 53.5,-46.3907 20.83,-8.957 41.96,-12.5781 61.34,-14.4882 19.45,-1.8516 37.36,-1.918 53.48,-2.0586 32.25,0.039 57.41,-1.1797 74.23,-3.9922 16.86,-2.5977 25.29,-5.7578 25.29,-5.7578" /><path
         id="path38"
         style="fill:#f3f2f1;fill-opacity:1;fill-rule:nonzero;stroke:none"
         d="m 3160.31,855.422 -209,-841.9611 h 84.66 L 3252.9,855.422 h -92.59" /><path
         id="path40"
         style="fill:#f3f2f1;fill-opacity:1;fill-rule:nonzero;stroke:none"
         d="m 3766.11,855.422 209,-841.9611 h -84.66 L 3673.52,855.422 h 92.59" /><path
         id="path42"
         style="fill:#f3f2f1;fill-opacity:1;fill-rule:nonzero;stroke:none"
         d="M 3502.36,13.4609 H 3403.8 V 1084.36 h 98.56 V 13.4609" /><path
         id="path44"
         style="fill:#dadbd8;fill-opacity:1;fill-rule:nonzero;stroke:none"
         d="M 4146.02,1052.28 H 2755.39 v 890.93 h 1390.63 v -890.93" /><path
         id="path46"
         style="fill:#f3f2f1;fill-opacity:1;fill-rule:nonzero;stroke:none"
         d="m 3800.09,783.039 h -697.98 v 86.043 h 697.98 v -86.043" /><path
         id="path48"
         style="fill:#f3f2f1;fill-opacity:1;fill-rule:nonzero;stroke:none"
         d="m 2847.81,1168.5 c 0.33,0 0.65,-5.12 0.95,-16.29 h -1.9 c -1.43,43.57 -2.47,187.93 -2.47,359 0.39,103.24 0.74,196.65 0.99,265.41 0.45,33.26 0.82,60.5 1.1,80.43 0.26,8.87 0.48,16.11 0.64,21.86 0.23,5 0.45,7.63 0.69,7.63 0.24,0 0.46,-2.63 0.69,-7.63 0.17,-5.75 0.38,-12.99 0.64,-21.86 0.28,-19.93 0.65,-47.17 1.1,-80.43 0.25,-68.76 0.6,-162.17 0.99,-265.41 0,-171.07 -1.04,-315.43 -2.47,-359 h -1.9 c 0.3,11.17 0.62,16.29 0.95,16.29" /><path
         id="path50"
         style="fill:#f3f2f1;fill-opacity:1;fill-rule:nonzero;stroke:none"
         d="m 2951.31,1168.5 c 0.33,0 0.65,-5.12 0.95,-16.29 h -1.91 c -1.42,43.57 -2.47,187.93 -2.47,359 0.39,103.24 0.75,196.65 1.01,265.41 0.45,33.26 0.82,60.5 1.08,80.43 0.27,8.87 0.48,16.11 0.65,21.86 0.22,5 0.46,7.63 0.69,7.63 0.24,0 0.47,-2.63 0.69,-7.63 0.17,-5.75 0.39,-12.99 0.65,-21.86 0.26,-19.93 0.63,-47.17 1.08,-80.43 0.27,-68.76 0.62,-162.17 1.01,-265.41 0,-171.07 -1.05,-315.43 -2.48,-359 h -1.91 c 0.31,11.17 0.63,16.29 0.96,16.29" /><path
         id="path52"
         style="fill:#f3f2f1;fill-opacity:1;fill-rule:nonzero;stroke:none"
         d="m 3054.81,1168.5 c 0.33,0 0.65,-5.12 0.95,-16.29 h -1.9 c -1.44,43.57 -2.48,187.93 -2.48,359 0.39,103.24 0.75,196.65 1.01,265.41 0.44,33.26 0.82,60.5 1.09,80.43 0.26,8.87 0.47,16.11 0.64,21.86 0.23,5 0.45,7.63 0.69,7.63 0.24,0 0.47,-2.63 0.69,-7.63 0.17,-5.75 0.38,-12.99 0.65,-21.86 0.27,-19.93 0.63,-47.17 1.08,-80.43 0.26,-68.76 0.61,-162.17 1,-265.41 0,-171.07 -1.04,-315.43 -2.47,-359 h -1.9 c 0.3,11.17 0.62,16.29 0.95,16.29" /><path
         id="path54"
         style="fill:#f3f2f1;fill-opacity:1;fill-rule:nonzero;stroke:none"
         d="m 3158.31,1168.5 c 0.34,0 0.65,-5.12 0.95,-16.29 h -1.9 c -1.43,43.57 -2.47,187.93 -2.47,359 0.39,103.24 0.74,196.65 1,265.41 0.45,33.26 0.81,60.5 1.09,80.43 0.26,8.87 0.47,16.11 0.64,21.86 0.22,5 0.46,7.63 0.69,7.63 0.24,0 0.47,-2.63 0.7,-7.63 0.16,-5.75 0.38,-12.99 0.63,-21.86 0.27,-19.93 0.65,-47.17 1.09,-80.43 0.27,-68.76 0.62,-162.17 1.01,-265.41 0,-171.07 -1.04,-315.43 -2.48,-359 h -1.9 c 0.3,11.17 0.62,16.29 0.95,16.29" /><path
         id="path56"
         style="fill:#f3f2f1;fill-opacity:1;fill-rule:nonzero;stroke:none"
         d="m 3261.81,1168.5 c 0.33,0 0.65,-5.12 0.96,-16.29 h -1.91 c -1.43,43.57 -2.48,187.93 -2.48,359 0.39,103.24 0.74,196.65 1.01,265.41 0.45,33.26 0.82,60.5 1.09,80.43 0.25,8.87 0.47,16.11 0.64,21.86 0.22,5 0.45,7.63 0.69,7.63 0.23,0 0.47,-2.63 0.69,-7.63 0.17,-5.75 0.38,-12.99 0.65,-21.86 0.26,-19.93 0.63,-47.17 1.08,-80.43 0.26,-68.76 0.62,-162.17 1.01,-265.41 0,-171.07 -1.05,-315.43 -2.47,-359 h -1.91 c 0.3,11.17 0.62,16.29 0.95,16.29" /><path
         id="path58"
         style="fill:#f3f2f1;fill-opacity:1;fill-rule:nonzero;stroke:none"
         d="m 3365.31,1168.5 c 0.33,0 0.65,-5.12 0.95,-16.29 h -1.9 c -1.43,43.57 -2.47,187.93 -2.47,359 0.39,103.24 0.74,196.65 0.99,265.41 0.46,33.26 0.82,60.5 1.1,80.43 0.26,8.87 0.47,16.11 0.64,21.86 0.23,5 0.45,7.63 0.69,7.63 0.24,0 0.46,-2.63 0.69,-7.63 0.17,-5.75 0.38,-12.99 0.64,-21.86 0.28,-19.93 0.64,-47.17 1.1,-80.43 0.25,-68.76 0.61,-162.17 0.99,-265.41 0,-171.07 -1.04,-315.43 -2.47,-359 h -1.9 c 0.3,11.17 0.62,16.29 0.95,16.29" /><path
         id="path60"
         style="fill:#f3f2f1;fill-opacity:1;fill-rule:nonzero;stroke:none"
         d="m 3468.81,1168.5 c 0.33,0 0.65,-5.12 0.95,-16.29 h -1.91 c -1.42,43.57 -2.47,187.93 -2.47,359 0.39,103.24 0.75,196.65 1.01,265.41 0.45,33.26 0.82,60.5 1.08,80.43 0.27,8.87 0.48,16.11 0.65,21.86 0.22,5 0.46,7.63 0.69,7.63 0.24,0 0.47,-2.63 0.69,-7.63 0.17,-5.75 0.39,-12.99 0.65,-21.86 0.26,-19.93 0.63,-47.17 1.08,-80.43 0.27,-68.76 0.62,-162.17 1.01,-265.41 0,-171.07 -1.05,-315.43 -2.48,-359 h -1.91 c 0.31,11.17 0.63,16.29 0.96,16.29" /><path
         id="path62"
         style="fill:#f3f2f1;fill-opacity:1;fill-rule:nonzero;stroke:none"
         d="m 3572.31,1168.5 c 0.33,0 0.65,-5.12 0.95,-16.29 h -1.9 c -1.43,43.57 -2.48,187.93 -2.48,359 0.39,103.24 0.75,196.65 1.01,265.41 0.44,33.26 0.82,60.5 1.09,80.43 0.25,8.87 0.47,16.11 0.64,21.86 0.22,5 0.45,7.63 0.69,7.63 0.24,0 0.47,-2.63 0.69,-7.63 0.17,-5.75 0.38,-12.99 0.65,-21.86 0.27,-19.93 0.63,-47.17 1.08,-80.43 0.26,-68.76 0.61,-162.17 1,-265.41 0,-171.07 -1.04,-315.43 -2.47,-359 h -1.9 c 0.3,11.17 0.62,16.29 0.95,16.29" /><path
         id="path64"
         style="fill:#f3f2f1;fill-opacity:1;fill-rule:nonzero;stroke:none"
         d="m 3675.81,1168.5 c 0.34,0 0.65,-5.12 0.95,-16.29 h -1.9 c -1.43,43.57 -2.47,187.93 -2.47,359 0.39,103.24 0.74,196.65 1,265.41 0.45,33.26 0.81,60.5 1.09,80.43 0.26,8.87 0.47,16.11 0.64,21.86 0.22,5 0.46,7.63 0.69,7.63 0.24,0 0.47,-2.63 0.69,-7.63 0.17,-5.75 0.39,-12.99 0.64,-21.86 0.27,-19.93 0.65,-47.17 1.09,-80.43 0.27,-68.76 0.62,-162.17 1.01,-265.41 0,-171.07 -1.04,-315.43 -2.48,-359 h -1.9 c 0.3,11.17 0.62,16.29 0.95,16.29" /><path
         id="path66"
         style="fill:#f3f2f1;fill-opacity:1;fill-rule:nonzero;stroke:none"
         d="m 3779.31,1168.5 c 0.33,0 0.65,-5.12 0.96,-16.29 h -1.91 c -1.43,43.57 -2.48,187.93 -2.48,359 0.39,103.24 0.74,196.65 1.01,265.41 0.45,33.26 0.82,60.5 1.08,80.43 0.26,8.87 0.48,16.11 0.65,21.86 0.22,5 0.45,7.63 0.69,7.63 0.23,0 0.47,-2.63 0.69,-7.63 0.17,-5.75 0.38,-12.99 0.65,-21.86 0.26,-19.93 0.63,-47.17 1.08,-80.43 0.26,-68.76 0.62,-162.17 1.01,-265.41 0,-171.07 -1.05,-315.43 -2.47,-359 h -1.91 c 0.3,11.17 0.62,16.29 0.95,16.29" /><path
         id="path68"
         style="fill:#f3f2f1;fill-opacity:1;fill-rule:nonzero;stroke:none"
         d="m 3882.81,1168.5 c 0.33,0 0.65,-5.12 0.95,-16.29 h -1.9 c -1.43,43.57 -2.47,187.93 -2.47,359 0.39,103.24 0.74,196.65 0.99,265.41 0.46,33.26 0.82,60.5 1.1,80.43 0.26,8.87 0.48,16.11 0.64,21.86 0.23,5 0.45,7.63 0.69,7.63 0.24,0 0.46,-2.63 0.69,-7.63 0.17,-5.75 0.38,-12.99 0.64,-21.86 0.28,-19.93 0.65,-47.17 1.1,-80.43 0.25,-68.76 0.6,-162.17 0.99,-265.41 0,-171.07 -1.04,-315.43 -2.47,-359 h -1.9 c 0.3,11.17 0.62,16.29 0.95,16.29" /><path
         id="path70"
         style="fill:#f3f2f1;fill-opacity:1;fill-rule:nonzero;stroke:none"
         d="m 3986.31,1168.5 c 0.33,0 0.65,-5.12 0.95,-16.29 h -1.91 c -1.42,43.57 -2.47,187.93 -2.47,359 0.39,103.24 0.75,196.65 1.01,265.41 0.45,33.26 0.82,60.5 1.08,80.43 0.27,8.87 0.48,16.11 0.65,21.86 0.22,5 0.46,7.63 0.69,7.63 0.24,0 0.47,-2.63 0.69,-7.63 0.17,-5.75 0.39,-12.99 0.64,-21.86 0.27,-19.93 0.64,-47.17 1.09,-80.43 0.27,-68.76 0.62,-162.17 1.01,-265.41 0,-171.07 -1.05,-315.43 -2.48,-359 h -1.91 c 0.31,11.17 0.63,16.29 0.96,16.29" /><path
         id="path72"
         style="fill:#f3f2f1;fill-opacity:1;fill-rule:nonzero;stroke:none"
         d="m 4089.81,1168.5 c 0.33,0 0.65,-5.12 0.95,-16.29 h -1.9 c -1.44,43.57 -2.48,187.93 -2.48,359 0.39,103.24 0.75,196.65 1.01,265.41 0.44,33.26 0.82,60.5 1.09,80.43 0.25,8.87 0.47,16.11 0.64,21.86 0.22,5 0.45,7.63 0.69,7.63 0.24,0 0.47,-2.63 0.69,-7.63 0.17,-5.75 0.38,-12.99 0.65,-21.86 0.27,-19.93 0.63,-47.17 1.08,-80.43 0.26,-68.76 0.61,-162.17 1,-265.41 0,-171.07 -1.04,-315.43 -2.47,-359 h -1.9 c 0.3,11.17 0.62,16.29 0.95,16.29" /><path
         id="path74"
         style="fill:#dadbd8;fill-opacity:1;fill-rule:nonzero;stroke:none"
         d="m 96.4531,3041.76 h 1911.99 v 60.5273 H 96.4531 Z" /><path
         id="path76"
         style="fill:#dadbd8;fill-opacity:1;fill-rule:nonzero;stroke:none"
         d="m 516.148,2880.3 h -96.816 v 191.73 h 96.816 V 2880.3" /><path
         id="path78"
         style="fill:#dadbd8;fill-opacity:1;fill-rule:nonzero;stroke:none"
         d="m 1567.26,2880.3 h 96.8086 v 221.988 H 1567.26 Z" /><path
         id="path80"
         style="fill:#e7e8e5;fill-opacity:1;fill-rule:nonzero;stroke:none"
         d="m 375.5,3509.03 62.598,-411.35 H 801.75 l 84.406,405.4 -510.656,5.95" /><path
         id="path82"
         style="fill:#fafaf9;fill-opacity:1;fill-rule:nonzero;stroke:none"
         d="m 835.305,3245.4 c 0,-1.18 -93.184,-2.13 -208.106,-2.13 -114.957,0 -208.125,0.95 -208.125,2.13 0,1.18 93.168,2.13 208.125,2.13 114.922,0 208.106,-0.95 208.106,-2.13" /><path
         id="path84"
         style="fill:#fafaf9;fill-opacity:1;fill-rule:nonzero;stroke:none"
         d="m 836.715,3265.63 c 0,-1.18 -93.817,-2.13 -209.516,-2.13 -115.738,0 -209.531,0.95 -209.531,2.13 0,1.18 93.793,2.13 209.531,2.13 115.699,0 209.516,-0.95 209.516,-2.13" /><path
         id="path86"
         style="fill:#fafaf9;fill-opacity:1;fill-rule:nonzero;stroke:none"
         d="m 836,3288.48 c 0,-1.18 -93.816,-2.13 -209.52,-2.13 -115.734,0 -209.531,0.95 -209.531,2.13 0,1.18 93.797,2.13 209.531,2.13 115.704,0 209.52,-0.95 209.52,-2.13" /><path
         id="path88"
         style="fill:#fafaf9;fill-opacity:1;fill-rule:nonzero;stroke:none"
         d="m 479.867,3121.15 c -1.164,-0.2 -6.152,22.99 -11.152,51.79 -5,28.82 -8.113,52.32 -6.949,52.53 1.16,0.2 6.152,-22.98 11.152,-51.8 5,-28.8 8.109,-52.32 6.949,-52.52" /><path
         id="path90"
         style="fill:#fafaf9;fill-opacity:1;fill-rule:nonzero;stroke:none"
         d="m 504.602,3125.52 c -1.2,-0.02 -2.594,22.64 -4.508,50.53 -1.879,27.91 -3.567,50.55 -2.371,50.69 1.14,0.13 4.746,-22.37 6.629,-50.4 1.925,-28.01 1.402,-50.8 0.25,-50.82" /><path
         id="path92"
         style="fill:#fafaf9;fill-opacity:1;fill-rule:nonzero;stroke:none"
         d="m 549.691,3125.54 c -1.128,-0.2 -6.093,22.9 -9.464,51.81 -3.403,28.92 -3.911,52.54 -2.77,52.61 1.211,0.07 3.621,-23.32 7.012,-52.11 3.351,-28.78 6.418,-52.11 5.222,-52.31" /><path
         id="path94"
         style="fill:#fafaf9;fill-opacity:1;fill-rule:nonzero;stroke:none"
         d="m 581.344,3123.37 c -1.141,-0.1 -4.106,23.44 -5.039,52.65 -0.965,29.21 0.465,52.89 1.613,52.86 1.211,-0.02 1.687,-23.64 2.656,-52.73 0.922,-29.08 1.977,-52.68 0.77,-52.78" /><path
         id="path96"
         style="fill:#fafaf9;fill-opacity:1;fill-rule:nonzero;stroke:none"
         d="m 637.375,3125.52 c -1.176,-0.04 -2.895,22.34 -3.828,49.96 -0.938,27.64 -0.738,50.08 0.441,50.12 1.176,0.04 2.891,-22.33 3.821,-49.97 0.941,-27.63 0.742,-50.07 -0.434,-50.11" /><path
         id="path98"
         style="fill:#fafaf9;fill-opacity:1;fill-rule:nonzero;stroke:none"
         d="m 678.297,3123.35 c -1.176,0.01 -1.945,23.16 -1.711,51.69 0.234,28.55 1.375,51.67 2.559,51.66 1.175,-0.01 1.941,-23.15 1.707,-51.69 -0.235,-28.53 -1.372,-51.67 -2.555,-51.66" /><path
         id="path100"
         style="fill:#fafaf9;fill-opacity:1;fill-rule:nonzero;stroke:none"
         d="m 716.672,3128.85 c -1.172,0.11 0.215,24.3 3.098,54.02 2.882,29.73 6.175,53.73 7.347,53.61 1.176,-0.11 -0.215,-24.3 -3.101,-54.02 -2.879,-29.72 -6.172,-53.72 -7.344,-53.61" /><path
         id="path102"
         style="fill:#fafaf9;fill-opacity:1;fill-rule:nonzero;stroke:none"
         d="m 766.145,3134.24 c -1.122,0.13 0.644,20.89 6.125,45.94 5.421,25.06 12.433,44.67 13.519,44.33 1.168,-0.35 -3.969,-20.37 -9.351,-45.24 -5.434,-24.85 -9.083,-45.2 -10.293,-45.03" /><path
         id="path104"
         style="fill:#e7e8e5;fill-opacity:1;fill-rule:nonzero;stroke:none"
         d="m 731.125,4320.7 c 0.07,-0.02 -0.078,-0.7 -0.437,-2.02 -0.458,-1.55 -1.012,-3.47 -1.7,-5.81 -1.687,-5.41 -3.996,-12.83 -6.922,-22.21 -3.109,-9.59 -6.82,-21.37 -10.671,-35.19 -3.918,-13.79 -8.786,-29.38 -13.118,-46.9 -4.613,-17.44 -9.613,-36.55 -14.168,-57.28 -5.05,-20.61 -9.293,-42.87 -14.023,-66.25 -8.715,-46.88 -16.668,-98.74 -22.281,-153.5 -5.321,-54.8 -7.778,-107.22 -8.5,-154.91 0.023,-23.85 -0.215,-46.52 0.652,-67.72 0.371,-21.21 1.496,-40.94 2.574,-58.95 0.785,-18.03 2.477,-34.27 3.59,-48.57 1.047,-14.3 2.359,-26.57 3.512,-36.6 1.015,-9.77 1.808,-17.5 2.39,-23.13 0.211,-2.44 0.383,-4.42 0.52,-6.02 0.09,-1.37 0.102,-2.07 0.027,-2.08 -0.07,-0.01 -0.23,0.67 -0.465,2.01 -0.246,1.6 -0.554,3.56 -0.937,5.98 -0.77,5.61 -1.84,13.31 -3.188,23.05 -1.406,10.01 -2.964,22.27 -4.238,36.57 -1.336,14.29 -3.242,30.54 -4.222,48.59 -1.274,18.03 -2.575,37.79 -3.098,59.04 -1.027,21.24 -0.922,43.96 -1.055,67.86 0.516,47.81 2.852,100.37 8.192,155.31 5.625,54.89 13.714,106.86 22.664,153.82 4.847,23.41 9.234,45.69 14.437,66.31 4.715,20.73 9.895,39.84 14.707,57.27 4.528,17.49 9.602,33.05 13.742,46.79 4.071,13.77 8.024,25.48 11.387,35.02 3.242,9.28 5.809,16.62 7.676,21.96 0.848,2.3 1.543,4.16 2.098,5.68 0.5,1.27 0.781,1.91 0.855,1.88" /><path
         id="path106"
         style="fill:#e7e8e5;fill-opacity:1;fill-rule:nonzero;stroke:none"
         d="m 665.484,4066 c 9.817,29.39 30.192,55.12 56.539,71.41 9.016,5.57 20.375,10.11 29.915,5.5 12.683,-6.14 13.71,-23.99 9.925,-37.56 -6.367,-22.84 -21.289,-43.18 -41.156,-56.1 -19.871,-12.93 -38.312,-19.02 -61.766,-15.58" /><path
         id="path108"
         style="fill:#e7e8e5;fill-opacity:1;fill-rule:nonzero;stroke:none"
         d="m 643.402,3894.02 c 9.395,35.49 37.715,85.96 67.121,107.94 4.657,3.47 9.625,6.76 15.27,8.13 5.645,1.36 12.125,0.48 16.32,-3.53 6.004,-5.76 5.414,-15.43 3.653,-23.57 -11.243,-51.78 -54.395,-95.22 -106.106,-106.81" /><path
         id="path110"
         style="fill:#e7e8e5;fill-opacity:1;fill-rule:nonzero;stroke:none"
         d="m 637.313,3742.61 c 14.468,33.73 38.113,63.46 67.718,85.16 6.946,5.1 15.16,9.96 23.629,8.43 12.852,-2.33 18.676,-18.02 17.543,-31.03 -2.34,-26.78 -22.793,-48.25 -43.902,-64.89 -22.735,-17.92 -62.641,-32.19 -62.641,-32.19" /><path
         id="path112"
         style="fill:#e7e8e5;fill-opacity:1;fill-rule:nonzero;stroke:none"
         d="m 640.73,3633.79 c 14.864,25.3 33.36,49.09 57.618,65.6 5.269,3.58 10.976,6.88 17.289,7.74 6.312,0.87 13.379,-1.18 16.965,-6.45 5.769,-8.48 0.265,-19.95 -5.918,-28.14 -21.391,-28.3 -48.375,-49.7 -82.223,-60.31" /><path
         id="path114"
         style="fill:#e7e8e5;fill-opacity:1;fill-rule:nonzero;stroke:none"
         d="m 637.883,3677.99 c -24.824,30.42 -52.442,58.56 -82.399,83.94 -4.675,3.95 -10.589,8.11 -16.414,6.21 -4.515,-1.48 -7.242,-6.34 -7.558,-11.08 -0.317,-4.74 1.316,-9.37 3.133,-13.76 18.007,-43.52 60.437,-77.61 106.085,-89.24" /><path
         id="path116"
         style="fill:#e7e8e5;fill-opacity:1;fill-rule:nonzero;stroke:none"
         d="m 640.512,3819.62 c -21.578,26.3 -43.16,52.61 -64.735,78.91 -6.16,7.51 -12.523,15.2 -21,19.93 -8.476,4.74 -19.672,5.92 -27.609,0.33 -7.926,-5.58 -10.602,-16.52 -8.863,-26.06 1.742,-9.53 7.101,-17.96 12.629,-25.93 13.156,-18.94 28.164,-37.03 47.168,-50.1 19,-13.07 36.277,-21.58 59.097,-18.22" /><path
         id="path118"
         style="fill:#e7e8e5;fill-opacity:1;fill-rule:nonzero;stroke:none"
         d="m 649.508,3979.07 c -12.563,37.57 -35.297,71.71 -65.133,97.79 -4.992,4.35 -10.461,8.64 -16.977,9.9 -12.972,2.5 -25.492,-8.33 -29.691,-20.86 -4.727,-14.08 -1.5,-29.96 5.914,-42.84 7.406,-12.88 18.617,-23.15 30.426,-32.18 21.758,-16.63 46.16,-29.81 72.004,-38.87" /><path
         id="path120"
         style="fill:#e7e8e5;fill-opacity:1;fill-rule:nonzero;stroke:none"
         d="m 675.367,4121.24 c -6.269,45.75 -30.074,83.81 -57.668,120.83 -5.816,7.81 -13.933,16.09 -23.551,14.61 -6.132,-0.92 -11.085,-5.89 -13.515,-11.59 -2.434,-5.71 -2.727,-12.09 -2.563,-18.29 1.446,-55.27 39.582,-107.78 91.703,-126.24" /><path
         id="path122"
         style="fill:#e7e8e5;fill-opacity:1;fill-rule:nonzero;stroke:none"
         d="m 693.488,4193.84 c -2.265,23.52 -4.535,47.21 -2.367,70.73 2.172,23.53 9.07,47.15 23.481,65.88 6.195,8.05 13.964,15.25 23.5,18.74 9.539,3.49 21.046,2.69 28.839,-3.82 7.215,-6.03 10.235,-15.99 9.872,-25.39 -0.364,-9.4 -3.684,-18.42 -7.293,-27.1 -17.243,-41.49 -46.008,-87.43 -76.032,-99.04" /><path
         id="path124"
         style="fill:#dadbd8;fill-opacity:1;fill-rule:nonzero;stroke:none"
         d="m 411.5,4139.32 c 0.148,0 0.266,-2 0.359,-5.8 0.043,-4.22 0.106,-9.73 0.184,-16.6 -0.02,-7.21 0.02,-16.02 0.406,-26.26 0.336,-10.23 0.406,-21.87 1.254,-34.73 1.125,-25.73 3.617,-56.31 7.52,-90.13 4.191,-33.78 9.953,-70.77 17.914,-109.24 8.164,-38.44 17.761,-74.64 27.496,-107.26 10.015,-32.54 20.019,-61.55 29.332,-85.56 4.383,-12.11 9.004,-22.81 12.808,-32.31 3.758,-9.53 7.258,-17.62 10.176,-24.21 2.684,-6.32 4.844,-11.39 6.496,-15.28 1.446,-3.51 2.141,-5.38 2.004,-5.45 -0.133,-0.06 -1.086,1.69 -2.781,5.09 -1.844,3.81 -4.246,8.78 -7.238,14.96 -3.149,6.5 -6.879,14.51 -10.856,23.96 -4.019,9.43 -8.844,20.07 -13.422,32.14 -9.691,23.94 -20.023,52.93 -30.273,85.5 -9.981,32.66 -19.723,68.97 -27.922,107.54 -7.988,38.61 -13.652,75.76 -17.641,109.67 -3.695,33.95 -5.882,64.64 -6.625,90.45 -0.66,12.9 -0.519,24.59 -0.625,34.84 -0.16,10.25 0.039,19.08 0.313,26.29 0.254,6.87 0.465,12.39 0.613,16.62 0.192,3.79 0.363,5.78 0.508,5.77" /><path
         id="path126"
         style="fill:#dadbd8;fill-opacity:1;fill-rule:nonzero;stroke:none"
         d="m 421.637,3951.78 c 0.359,22.12 8.687,44.02 23.121,60.79 4.937,5.73 11.699,11.26 19.183,10.18 9.957,-1.45 14.5,-13.38 14.844,-23.44 0.578,-16.91 -5.199,-33.97 -15.945,-47.05 -10.746,-13.08 -21.992,-21.19 -38.703,-23.9" /><path
         id="path128"
         style="fill:#dadbd8;fill-opacity:1;fill-rule:nonzero;stroke:none"
         d="m 443.621,3829.93 c -1.246,26.19 7.172,66.65 22.465,87.94 2.418,3.37 5.098,6.68 8.644,8.83 3.547,2.14 8.153,2.94 11.868,1.1 5.332,-2.62 7.011,-9.34 7.558,-15.25 3.496,-37.68 -16.531,-76.54 -49.246,-95.56" /><path
         id="path130"
         style="fill:#dadbd8;fill-opacity:1;fill-rule:nonzero;stroke:none"
         d="m 472.063,3725.54 c 2.593,26.08 12.289,51.42 27.773,72.56 3.633,4.96 8.184,10.04 14.277,10.82 9.25,1.18 16.598,-8.24 18.625,-17.35 4.168,-18.73 -5.136,-37.75 -15.929,-53.62 -11.618,-17.1 -35.711,-35.41 -35.711,-35.41" /><path
         id="path132"
         style="fill:#dadbd8;fill-opacity:1;fill-rule:nonzero;stroke:none"
         d="m 497.816,3652.18 c 4.672,20.43 12.149,40.61 25.106,57.07 2.816,3.57 5.992,7.04 10.101,8.99 4.118,1.95 9.368,2.08 12.942,-0.74 5.758,-4.53 4.476,-13.52 2.027,-20.43 -8.472,-23.87 -22.234,-44.25 -42.996,-58.76" /><path
         id="path134"
         style="fill:#dadbd8;fill-opacity:1;fill-rule:nonzero;stroke:none"
         d="m 486.359,3681.66 c -23.445,15.38 -48.304,28.58 -74.164,39.42 -4.039,1.69 -8.957,3.24 -12.515,0.69 -2.754,-1.97 -3.563,-5.88 -2.758,-9.17 0.801,-3.29 2.914,-6.09 5.094,-8.69 21.629,-25.76 57.855,-39.83 91.433,-37.93" /><path
         id="path136"
         style="fill:#dadbd8;fill-opacity:1;fill-rule:nonzero;stroke:none"
         d="m 457.664,3778.66 c -20.351,13.27 -40.703,26.53 -61.055,39.79 -5.812,3.78 -11.796,7.65 -18.589,9.05 -6.793,1.39 -14.668,-0.2 -18.872,-5.72 -4.195,-5.51 -3.664,-13.53 -0.425,-19.65 3.238,-6.11 8.707,-10.7 14.183,-14.93 13.035,-10.07 27.145,-19.15 42.899,-23.96 15.75,-4.82 29.343,-6.88 44.152,0.32" /><path
         id="path138"
         style="fill:#dadbd8;fill-opacity:1;fill-rule:nonzero;stroke:none"
         d="m 429.477,3889.16 c -16.649,22.88 -39.473,41.22 -65.403,52.55 -4.336,1.9 -8.984,3.63 -13.687,3.09 -9.367,-1.09 -15.567,-11.16 -15.727,-20.59 -0.183,-10.6 5.43,-20.73 13.246,-27.9 7.821,-7.17 17.664,-11.75 27.645,-15.35 18.39,-6.65 37.844,-10.36 57.39,-10.98" /><path
         id="path140"
         style="fill:#dadbd8;fill-opacity:1;fill-rule:nonzero;stroke:none"
         d="m 416.477,3991.52 c -14.118,29.79 -38.524,50.59 -65.278,69.85 -5.64,4.06 -12.945,7.95 -19.179,4.88 -3.977,-1.95 -6.274,-6.39 -6.704,-10.8 -0.425,-4.41 0.747,-8.82 2.192,-13 12.879,-37.33 50.152,-64.86 89.609,-66.22" /><path
         id="path142"
         style="fill:#dadbd8;fill-opacity:1;fill-rule:nonzero;stroke:none"
         d="m 413.188,4044.84 c -6.61,15.53 -13.25,31.17 -16.836,47.66 -3.59,16.48 -3.977,34.05 1.804,49.9 2.485,6.81 6.227,13.39 11.965,17.82 5.746,4.42 13.75,6.36 20.457,3.6 6.211,-2.55 10.41,-8.68 12.184,-15.16 1.777,-6.47 1.453,-13.33 0.867,-20.02 -2.805,-31.96 -12.504,-69.43 -30.441,-83.8" /><path
         id="path144"
         style="fill:#e7e8e5;fill-opacity:1;fill-rule:nonzero;stroke:none"
         d="m 871.277,4143.31 c 0.145,0.01 0.317,-1.98 0.504,-5.78 0.157,-4.23 0.36,-9.74 0.617,-16.61 0.27,-7.21 0.477,-16.04 0.313,-26.29 -0.106,-10.25 0.035,-21.94 -0.625,-34.84 -0.742,-25.81 -2.93,-56.5 -6.629,-90.45 -3.984,-33.91 -9.648,-71.07 -17.637,-109.67 -8.199,-38.57 -17.941,-74.87 -27.922,-107.54 -10.253,-32.58 -20.578,-61.56 -30.273,-85.5 -4.578,-12.07 -9.402,-22.71 -13.422,-32.15 -3.98,-9.44 -7.711,-17.45 -10.859,-23.95 -2.989,-6.18 -5.395,-11.15 -7.231,-14.96 -1.699,-3.4 -2.656,-5.15 -2.789,-5.09 -0.133,0.07 0.563,1.94 2.008,5.46 1.648,3.88 3.813,8.95 6.5,15.27 2.914,6.59 6.414,14.68 10.176,24.2 3.797,9.51 8.422,20.2 12.805,32.32 9.312,24.01 19.312,53.02 29.328,85.56 9.742,32.62 19.332,68.82 27.5,107.26 7.964,38.47 13.726,75.46 17.91,109.25 3.902,33.81 6.394,64.38 7.519,90.12 0.848,12.85 0.922,24.51 1.254,34.73 0.387,10.24 0.43,19.05 0.41,26.26 0.079,6.86 0.137,12.38 0.188,16.61 0.086,3.79 0.203,5.79 0.355,5.79" /><path
         id="path146"
         style="fill:#e7e8e5;fill-opacity:1;fill-rule:nonzero;stroke:none"
         d="m 861.141,3955.77 c -0.356,22.12 -8.692,44.03 -23.125,60.79 -4.938,5.73 -11.696,11.26 -19.18,10.18 -9.957,-1.45 -14.496,-13.38 -14.844,-23.44 -0.582,-16.91 5.199,-33.98 15.946,-47.05 10.742,-13.07 21.992,-21.19 38.699,-23.9" /><path
         id="path148"
         style="fill:#e7e8e5;fill-opacity:1;fill-rule:nonzero;stroke:none"
         d="m 839.152,3833.92 c 1.25,26.19 -7.164,66.65 -22.461,87.94 -2.421,3.37 -5.097,6.68 -8.64,8.82 -3.551,2.15 -8.156,2.95 -11.875,1.11 -5.328,-2.62 -7.008,-9.34 -7.555,-15.25 -3.5,-37.68 16.531,-76.55 49.242,-95.56" /><path
         id="path150"
         style="fill:#e7e8e5;fill-opacity:1;fill-rule:nonzero;stroke:none"
         d="m 810.715,3729.53 c -2.59,26.08 -12.289,51.42 -27.777,72.56 -3.629,4.96 -8.18,10.04 -14.274,10.82 -9.246,1.18 -16.598,-8.25 -18.621,-17.35 -4.172,-18.74 5.129,-37.76 15.922,-53.63 11.621,-17.09 35.723,-35.4 35.723,-35.4" /><path
         id="path152"
         style="fill:#e7e8e5;fill-opacity:1;fill-rule:nonzero;stroke:none"
         d="m 784.957,3656.17 c -4.664,20.43 -12.141,40.61 -25.105,57.07 -2.813,3.57 -5.993,7.04 -10.102,8.99 -4.113,1.95 -9.363,2.08 -12.941,-0.73 -5.758,-4.54 -4.477,-13.53 -2.02,-20.44 8.469,-23.87 22.231,-44.25 42.992,-58.76" /><path
         id="path154"
         style="fill:#e7e8e5;fill-opacity:1;fill-rule:nonzero;stroke:none"
         d="m 796.418,3685.65 c 23.441,15.37 48.305,28.58 74.16,39.41 4.039,1.69 8.961,3.24 12.52,0.7 2.754,-1.97 3.566,-5.88 2.757,-9.17 -0.804,-3.29 -2.914,-6.09 -5.097,-8.68 -21.625,-25.77 -57.852,-39.84 -91.434,-37.93" /><path
         id="path156"
         style="fill:#e7e8e5;fill-opacity:1;fill-rule:nonzero;stroke:none"
         d="m 825.109,3782.64 c 20.356,13.27 40.707,26.54 61.059,39.8 5.812,3.79 11.797,7.65 18.59,9.05 6.789,1.4 14.668,-0.2 18.867,-5.72 4.199,-5.5 3.664,-13.54 0.426,-19.64 -3.238,-6.13 -8.703,-10.72 -14.18,-14.94 -13.039,-10.06 -27.148,-19.15 -42.902,-23.96 -15.75,-4.82 -29.34,-6.88 -44.153,0.32" /><path
         id="path158"
         style="fill:#e7e8e5;fill-opacity:1;fill-rule:nonzero;stroke:none"
         d="m 853.305,3893.14 c 16.644,22.88 39.465,41.23 65.398,52.56 4.336,1.9 8.985,3.63 13.688,3.09 9.371,-1.08 15.562,-11.16 15.726,-20.59 0.188,-10.61 -5.433,-20.72 -13.246,-27.9 -7.816,-7.17 -17.66,-11.75 -27.641,-15.35 -18.394,-6.65 -37.843,-10.36 -57.394,-10.97" /><path
         id="path160"
         style="fill:#e7e8e5;fill-opacity:1;fill-rule:nonzero;stroke:none"
         d="m 866.301,3995.51 c 14.117,29.79 38.519,50.59 65.273,69.85 5.641,4.06 12.949,7.95 19.184,4.88 3.976,-1.95 6.277,-6.4 6.707,-10.81 0.422,-4.41 -0.75,-8.81 -2.195,-12.99 -12.879,-37.32 -50.149,-64.86 -89.61,-66.21" /><path
         id="path162"
         style="fill:#e7e8e5;fill-opacity:1;fill-rule:nonzero;stroke:none"
         d="m 869.594,4048.83 c 6.605,15.53 13.25,31.17 16.836,47.65 3.586,16.49 3.972,34.06 -1.809,49.91 -2.484,6.81 -6.226,13.39 -11.969,17.82 -5.742,4.42 -13.742,6.36 -20.453,3.6 -6.215,-2.55 -10.41,-8.68 -12.187,-15.16 -1.774,-6.48 -1.453,-13.33 -0.867,-20.02 2.812,-31.95 12.507,-69.43 30.449,-83.8" /><path
         id="path164"
         style="fill:#e7e8e5;fill-opacity:1;fill-rule:nonzero;stroke:none"
         d="m 333.766,3590.48 v -76.97 c 0,-16.73 13.57,-30.3 30.304,-30.3 h 526.606 c 16.734,0 30.304,13.57 30.304,30.3 v 76.97 H 333.766" /><path
         id="path166"
         style="fill:#dadbd8;fill-opacity:1;fill-rule:nonzero;stroke:none"
         d="m 379.426,3483.21 4.375,-24.5 485.902,-34.63 12.313,59.13 h -502.59" /><path
         id="path168"
         style="fill:#e7e8e5;fill-opacity:1;fill-rule:nonzero;stroke:none"
         d="m 1158.4,3645.35 c 0,0 -87.29,-66.51 -3.66,-154.37 1.43,-1.5 3.46,-2.35 5.53,-2.34 l 762.66,4.45 c 0,0 65.13,73.05 11.09,157.22 l -775.62,-4.96" /><path
         id="path170"
         style="fill:#dadbd8;fill-opacity:1;fill-rule:nonzero;stroke:none"
         d="m 1754.38,3575.93 c 0,-0.85 -94.97,-1.54 -212.09,-1.54 -117.17,0 -212.12,0.69 -212.12,1.54 0,0.85 94.95,1.55 212.12,1.55 117.12,0 212.09,-0.7 212.09,-1.55" /><path
         id="path172"
         style="fill:#dadbd8;fill-opacity:1;fill-rule:nonzero;stroke:none"
         d="m 1635.75,3548.34 c 0,-0.84 -44.65,-1.53 -99.71,-1.53 -55.09,0 -99.73,0.69 -99.73,1.53 0,0.86 44.64,1.54 99.73,1.54 55.06,0 99.71,-0.68 99.71,-1.54" /><path
         id="path174"
         style="fill:#dadbd8;fill-opacity:1;fill-rule:nonzero;stroke:none"
         d="m 1832.36,3495.53 c -0.5,0.13 1.67,8.76 4.03,22.88 2.39,14.12 4.59,33.82 4.41,55.65 -0.23,21.83 -2.81,41.49 -5.46,55.55 -2.63,14.09 -4.96,22.67 -4.47,22.81 0.21,0.06 0.99,-2.03 2.22,-5.87 1.27,-3.82 2.79,-9.46 4.39,-16.5 3.21,-14.05 6.17,-33.89 6.4,-55.96 0.18,-22.07 -2.39,-41.96 -5.34,-56.07 -1.47,-7.06 -2.88,-12.73 -4.08,-16.58 -1.16,-3.86 -1.9,-5.97 -2.1,-5.91" /><path
         id="path176"
         style="fill:#dadbd8;fill-opacity:1;fill-rule:nonzero;stroke:none"
         d="m 1889.27,3651.27 c 0.2,0.09 1.39,-1.88 3.4,-5.55 1.04,-1.83 2.23,-4.09 3.39,-6.83 1.19,-2.72 2.69,-5.78 3.89,-9.33 2.73,-6.98 5.23,-15.59 7.26,-25.3 1.87,-9.75 3.17,-20.63 3.32,-32.1 0.03,-11.47 -1.09,-22.36 -2.8,-32.14 -1.88,-9.75 -4.24,-18.4 -6.85,-25.43 -1.15,-3.57 -2.6,-6.64 -3.74,-9.39 -1.12,-2.75 -2.27,-5.04 -3.28,-6.88 -1.95,-3.7 -3.12,-5.69 -3.31,-5.59 -0.53,0.25 3.72,8.47 8.27,22.56 2.32,7.03 4.42,15.6 6.11,25.22 1.53,9.64 2.55,20.35 2.52,31.63 -0.15,11.27 -1.34,21.96 -3.02,31.58 -1.85,9.59 -4.1,18.12 -6.53,25.11 -4.77,14.02 -9.15,22.17 -8.63,22.44" /><path
         id="path178"
         style="fill:#dadbd8;fill-opacity:1;fill-rule:nonzero;stroke:none"
         d="m 1278.73,3494.52 c -0.18,-0.12 -1.43,1.69 -3.55,5.09 -1.09,1.68 -2.35,3.79 -3.56,6.37 -1.25,2.55 -2.83,5.4 -4.07,8.76 -2.86,6.59 -5.41,14.78 -7.45,24.06 -1.84,9.32 -3.03,19.75 -2.95,30.73 0.22,10.98 1.69,21.37 3.79,30.63 2.27,9.23 5.05,17.35 8.08,23.86 1.33,3.33 2.99,6.13 4.3,8.66 1.29,2.53 2.6,4.61 3.73,6.26 2.22,3.33 3.51,5.11 3.69,5 0.52,-0.32 -4.39,-7.69 -9.72,-20.78 -2.73,-6.51 -5.24,-14.55 -7.32,-23.62 -1.9,-9.13 -3.26,-19.3 -3.47,-30.06 -0.08,-10.75 1.01,-20.96 2.66,-30.12 1.84,-9.13 4.13,-17.23 6.68,-23.82 4.98,-13.22 9.7,-20.72 9.16,-21.02" /><path
         id="path180"
         style="fill:#dadbd8;fill-opacity:1;fill-rule:nonzero;stroke:none"
         d="m 1196.39,3475.91 c -0.18,-0.11 -1.57,1.95 -3.92,5.78 -1.21,1.9 -2.61,4.28 -3.99,7.16 -1.4,2.87 -3.17,6.07 -4.61,9.84 -3.24,7.38 -6.25,16.54 -8.73,26.92 -2.29,10.42 -3.95,22.09 -4.3,34.41 -0.2,12.34 0.94,24.06 2.77,34.57 2.03,10.49 4.62,19.77 7.53,27.29 1.26,3.83 2.9,7.1 4.17,10.03 1.25,2.95 2.54,5.38 3.67,7.33 2.18,3.94 3.47,6.05 3.65,5.95 0.56,-0.28 -4.32,-8.96 -9.43,-24.04 -2.62,-7.51 -4.96,-16.71 -6.8,-27.04 -1.64,-10.38 -2.68,-21.9 -2.48,-34.02 0.35,-12.12 1.89,-23.58 3.99,-33.86 2.3,-10.25 5.04,-19.33 7.98,-26.72 5.77,-14.84 11.04,-23.3 10.5,-23.6" /><path
         id="path182"
         style="fill:#e7e8e5;fill-opacity:1;fill-rule:nonzero;stroke:none"
         d="m 1894.96,3260.82 c 0,-5.78 0,-145.95 0,-145.95 h -282.41 v 145.95 h 282.41" /><path
         id="path184"
         style="fill:#dadbd8;fill-opacity:1;fill-rule:nonzero;stroke:none"
         d="m 982.883,3186.49 c 0.043,-1.29 0.101,-2.57 0.172,-3.86 2.289,-44.16 39.785,-78.31 84.005,-78.31 h 841.06 v 10.55 h -199.66 c -40.3,0 -72.97,32.67 -72.97,72.98 0,40.29 32.67,72.97 72.97,72.97 h 199.66 v 15.5 l -841.31,-2.84 c -47.49,-0.16 -85.665,-39.53 -83.927,-86.99" /><path
         id="path186"
         style="fill:#dadbd8;fill-opacity:1;fill-rule:nonzero;stroke:none"
         d="m 1894.96,3185.9 c 0,-0.85 -58.07,-1.54 -129.68,-1.54 -71.64,0 -129.69,0.69 -129.69,1.54 0,0.85 58.05,1.54 129.69,1.54 71.61,0 129.68,-0.69 129.68,-1.54" /><path
         id="path188"
         style="fill:#dadbd8;fill-opacity:1;fill-rule:nonzero;stroke:none"
         d="m 1890.87,3153.01 c 0,-0.85 -54.94,-1.54 -122.71,-1.54 -67.78,0 -122.71,0.69 -122.71,1.54 0,0.85 54.93,1.54 122.71,1.54 67.77,0 122.71,-0.69 122.71,-1.54" /><path
         id="path190"
         style="fill:#dadbd8;fill-opacity:1;fill-rule:nonzero;stroke:none"
         d="m 1894.96,3122.93 c 0,-0.84 -49.4,-1.53 -110.32,-1.53 -60.95,0 -110.34,0.69 -110.34,1.53 0,0.85 49.39,1.55 110.34,1.55 60.92,0 110.32,-0.7 110.32,-1.55" /><path
         id="path192"
         style="fill:#dadbd8;fill-opacity:1;fill-rule:nonzero;stroke:none"
         d="m 1894.96,3215.44 c 0,-0.85 -56.88,-1.53 -127.02,-1.53 -70.17,0 -127.04,0.68 -127.04,1.53 0,0.85 56.87,1.55 127.04,1.55 70.14,0 127.02,-0.7 127.02,-1.55" /><path
         id="path194"
         style="fill:#dadbd8;fill-opacity:1;fill-rule:nonzero;stroke:none"
         d="m 1890.87,3245 c 0,-0.85 -50.63,-1.55 -113.06,-1.55 -62.46,0 -113.08,0.7 -113.08,1.55 0,0.84 50.62,1.53 113.08,1.53 62.43,0 113.06,-0.69 113.06,-1.53" /><path
         id="path196"
         style="fill:#f3f2f1;fill-opacity:1;fill-rule:nonzero;stroke:none"
         d="m 1084.78,3271.04 c 0.47,-0.48 -8.22,-7.06 -17.86,-21.25 -9.64,-13.96 -19.47,-36.6 -19.2,-62.76 0.35,-26.18 10.72,-48.59 20.67,-62.31 9.99,-13.96 18.82,-20.34 18.37,-20.82 -0.11,-0.14 -2.36,1.34 -6.07,4.48 -3.72,3.12 -8.75,8.12 -14.05,15.05 -10.61,13.65 -21.64,36.56 -21.99,63.56 -0.29,26.98 10.2,50.15 20.48,64.05 5.14,7.05 10.04,12.16 13.69,15.38 3.64,3.22 5.86,4.75 5.96,4.62" /><path
         id="path198"
         style="fill:#f3f2f1;fill-opacity:1;fill-rule:nonzero;stroke:none"
         d="m 1056.35,3274.16 c 0.46,-0.48 -8.22,-7.06 -17.88,-21.25 -9.63,-13.96 -19.46,-36.6 -19.19,-62.77 0.35,-26.18 10.71,-48.58 20.67,-62.31 9.99,-13.96 18.82,-20.33 18.37,-20.81 -0.11,-0.14 -2.36,1.33 -6.07,4.47 -3.72,3.13 -8.75,8.12 -14.05,15.06 -10.61,13.65 -21.64,36.56 -22,63.55 -0.28,26.99 10.2,50.15 20.49,64.05 5.13,7.06 10.05,12.17 13.69,15.38 3.64,3.23 5.85,4.76 5.97,4.63" /><path
         id="path200"
         style="fill:#f3f2f1;fill-opacity:1;fill-rule:nonzero;stroke:none"
         d="m 1627.82,3271.04 c 0.47,-0.48 -8.21,-7.06 -17.86,-21.25 -9.64,-13.96 -19.47,-36.6 -19.19,-62.76 0.34,-26.18 10.71,-48.59 20.67,-62.31 9.98,-13.96 18.82,-20.34 18.36,-20.82 -0.11,-0.14 -2.36,1.34 -6.07,4.48 -3.72,3.12 -8.75,8.12 -14.05,15.05 -10.61,13.65 -21.64,36.56 -21.99,63.56 -0.29,26.98 10.2,50.15 20.48,64.04 5.14,7.06 10.05,12.17 13.69,15.39 3.64,3.22 5.86,4.75 5.96,4.62" /><path
         id="path202"
         style="fill:#f3f2f1;fill-opacity:1;fill-rule:nonzero;stroke:none"
         d="m 1599.39,3274.16 c 0.47,-0.48 -8.22,-7.06 -17.87,-21.26 -9.63,-13.95 -19.47,-36.59 -19.19,-62.76 0.34,-26.18 10.7,-48.58 20.67,-62.31 9.98,-13.96 18.82,-20.33 18.36,-20.81 -0.11,-0.14 -2.35,1.33 -6.07,4.47 -3.72,3.13 -8.75,8.12 -14.05,15.06 -10.61,13.65 -21.64,36.56 -21.99,63.55 -0.29,26.99 10.2,50.15 20.48,64.05 5.14,7.06 10.05,12.17 13.7,15.38 3.63,3.23 5.85,4.76 5.96,4.63" /><path
         id="path204"
         style="fill:#f3f2f1;fill-opacity:1;fill-rule:nonzero;stroke:none"
         d="m 1180.5,3165.98 c -0.27,19.78 -0.53,39.56 -0.8,59.34 -0.07,5.17 -0.17,10.48 -2.09,15.29 -1.92,4.8 -6.11,9.05 -11.26,9.5 -7.44,3.29 -19.02,-2.9 -24.21,-11.46 -5.19,-8.57 -5.77,-19.07 -5.83,-29.08 -0.12,-15.66 0.65,-31.32 2.27,-46.88 0.78,-7.41 1.82,-15.01 5.52,-21.46 3.7,-6.46 10.7,-11.57 18.11,-10.89 7.35,0.68 13.26,6.86 15.85,13.77 2.6,6.91 2.54,14.49 2.44,21.87" /><path
         id="path206"
         style="fill:#f3f2f1;fill-opacity:1;fill-rule:nonzero;stroke:none"
         d="m 1507.15,3183.04 c 0,-0.85 -60.8,-1.54 -135.79,-1.54 -75.01,0 -135.81,0.69 -135.81,1.54 0,0.86 60.8,1.54 135.81,1.54 74.99,0 135.79,-0.68 135.79,-1.54" /><path
         id="path208"
         style="fill:#f3f2f1;fill-opacity:1;fill-rule:nonzero;stroke:none"
         d="m 1124.16,3276.87 -1.56,138.34 h 75.31 l 2.6,-138.34 h -76.35" /><path
         id="path210"
         style="fill:#dadbd8;fill-opacity:1;fill-rule:nonzero;stroke:none"
         d="m 1193.46,3390.6 c 0,-0.85 -15.67,-1.54 -34.99,-1.54 -19.33,0 -35,0.69 -35,1.54 0,0.85 15.67,1.54 35,1.54 19.32,0 34.99,-0.69 34.99,-1.54" /><path
         id="path212"
         style="fill:#dadbd8;fill-opacity:1;fill-rule:nonzero;stroke:none"
         d="m 1193.46,3369.25 c 0,-0.86 -15.67,-1.54 -34.99,-1.54 -19.33,0 -35,0.68 -35,1.54 0,0.85 15.67,1.54 35,1.54 19.32,0 34.99,-0.69 34.99,-1.54" /><path
         id="path214"
         style="fill:#dadbd8;fill-opacity:1;fill-rule:nonzero;stroke:none"
         d="m 1193.46,3347.9 c 0,-0.85 -15.67,-1.55 -34.99,-1.55 -19.33,0 -35,0.7 -35,1.55 0,0.85 15.67,1.53 35,1.53 19.32,0 34.99,-0.68 34.99,-1.53" /><path
         id="path216"
         style="fill:#dadbd8;fill-opacity:1;fill-rule:nonzero;stroke:none"
         d="m 1193.46,3326.54 c 0,-0.85 -15.67,-1.54 -34.99,-1.54 -19.33,0 -35,0.69 -35,1.54 0,0.85 15.67,1.54 35,1.54 19.32,0 34.99,-0.69 34.99,-1.54" /><path
         id="path218"
         style="fill:#dadbd8;fill-opacity:1;fill-rule:nonzero;stroke:none"
         d="m 1193.46,3305.19 c 0,-0.85 -15.67,-1.54 -34.99,-1.54 -19.33,0 -35,0.69 -35,1.54 0,0.85 15.67,1.54 35,1.54 19.32,0 34.99,-0.69 34.99,-1.54" /><path
         id="path220"
         style="fill:#e7e8e5;fill-opacity:1;fill-rule:nonzero;stroke:none"
         d="m 1118.61,3418.88 h 834.61 c 10.3,-45.82 8.85,-96.23 0,-149.53 h -831.05 v 10.17 h 50.78 c 13.24,0 23.98,10.73 23.98,23.98 v 82.75 c 0,13.24 -10.74,23.98 -23.98,23.98 h -54.34 v 8.65" /><path
         id="path222"
         style="fill:#fafaf9;fill-opacity:1;fill-rule:nonzero;stroke:none"
         d="m 1315.92,3344.02 h 13.92 l 1.51,-0.37 c 0.99,-0.58 1.49,-1.45 1.49,-2.62 l -0.11,-0.9 c -0.28,-1.18 -0.59,-2.37 -0.94,-3.56 -1.95,-6.36 -4.85,-11.62 -8.72,-15.76 -3.84,-4.1 -7.8,-6.14 -11.87,-6.14 l -1.69,0.11 c -3.79,0.58 -6.95,2.86 -9.47,6.85 -2.77,4.47 -4.15,10.06 -4.15,16.77 0,3.95 0.54,7.93 1.65,11.95 1.76,6.49 4.53,11.87 8.27,16.13 3.91,4.45 8.09,6.67 12.54,6.67 1.88,0 3.63,-0.4 5.28,-1.2 3.59,-1.77 6.3,-5.16 8.13,-10.17 l 0.33,-1.39 -0.41,-1.49 c -0.6,-0.99 -1.46,-1.49 -2.58,-1.49 l -0.94,0.14 c -0.97,0.33 -1.61,0.96 -1.91,1.88 l -0.15,0.27 c -0.45,1.22 -1.01,2.32 -1.68,3.29 -1.82,2.65 -4.05,3.98 -6.67,3.98 -1.52,0 -3.06,-0.56 -4.6,-1.68 -2.92,-2.1 -5.46,-5.74 -7.6,-10.93 -2.2,-5.34 -3.3,-10.57 -3.3,-15.71 0,-4.94 0.8,-9.05 2.4,-12.35 1.77,-3.63 4.19,-5.45 7.26,-5.45 2.07,0.02 4.32,1.37 6.74,4.06 2.97,3.33 5.35,7.64 7.15,12.93 -6.41,0 -9.74,0.04 -9.99,0.11 -2.17,0.35 -3.29,1.48 -3.34,3.37 l 0.31,1.01 c 0.54,1.13 1.59,1.69 3.14,1.69" /><path
         id="path224"
         style="fill:#fafaf9;fill-opacity:1;fill-rule:nonzero;stroke:none"
         d="m 1359.57,3359.64 -9.28,-19.51 h 13.09 z m 3.73,11.56 0.38,-1.01 c 0.59,-2.05 3.86,-19.29 9.82,-51.72 l 0.14,-0.74 -0.41,-1.53 c -0.59,-1.02 -1.42,-1.53 -2.49,-1.53 l -0.48,0.03 c -1.19,0.2 -1.96,0.89 -2.3,2.06 l -3.32,17.19 h -17.15 l -8.24,-17.25 -0.27,-0.57 c -0.78,-0.98 -1.65,-1.46 -2.58,-1.46 l -1.63,0.48 c -0.92,0.63 -1.37,1.47 -1.37,2.52 l 0.19,0.89 c 0.51,1.2 1.37,3.09 2.56,5.67 11.99,26.19 19.16,41.65 21.51,46.37 0.68,1.37 1.64,2.07 2.9,2.1 1.2,-0.03 2.11,-0.53 2.74,-1.5" /><path
         id="path226"
         style="fill:#fafaf9;fill-opacity:1;fill-rule:nonzero;stroke:none"
         d="m 1409.85,3314.67 h -25.16 l -1.61,0.48 c -0.72,0.53 -1.19,1.58 -1.42,3.15 v 0.03 c 0,1.03 2.32,18.19 6.95,51.51 l 0.15,1.1 c 0.52,1.22 1.42,1.83 2.7,1.83 l 1.39,-0.34 c 1.05,-0.54 1.57,-1.43 1.57,-2.66 -0.21,-2.27 -0.78,-6.97 -1.71,-14.11 -2.87,-21.98 -4.37,-33.59 -4.5,-34.81 h 21.38 l 1.61,-0.3 c 1.27,-0.53 1.91,-1.46 1.91,-2.81 l -0.15,-0.98 c -0.43,-1.14 -1.46,-1.84 -3.11,-2.09" /><path
         id="path228"
         style="fill:#fafaf9;fill-opacity:1;fill-rule:nonzero;stroke:none"
         d="m 1440.51,3359.64 -9.28,-19.51 h 13.1 z m 3.74,11.56 0.37,-1.01 c 0.59,-2.05 3.87,-19.29 9.83,-51.72 l 0.14,-0.74 -0.41,-1.53 c -0.6,-1.02 -1.42,-1.53 -2.49,-1.53 l -0.48,0.03 c -1.19,0.2 -1.96,0.89 -2.31,2.06 l -3.32,17.19 h -17.14 l -8.24,-17.25 -0.28,-0.57 c -0.78,-0.98 -1.64,-1.46 -2.58,-1.46 l -1.62,0.48 c -0.92,0.63 -1.38,1.47 -1.38,2.52 l 0.2,0.89 c 0.51,1.2 1.37,3.09 2.55,5.67 11.99,26.19 19.17,41.65 21.52,46.37 0.67,1.37 1.64,2.07 2.89,2.1 1.21,-0.03 2.12,-0.53 2.75,-1.5" /><path
         id="path230"
         style="fill:#fafaf9;fill-opacity:1;fill-rule:nonzero;stroke:none"
         d="m 1484.33,3341.52 c 1.95,-5.45 3.48,-9.65 4.54,-12.6 2.6,-7.17 3.9,-10.96 3.9,-11.35 l -0.49,-1.53 c -0.6,-0.92 -1.44,-1.37 -2.51,-1.37 -1.12,0.02 -1.95,0.7 -2.49,2.02 l -0.48,1.27 c -1.36,3.13 -3.61,9.04 -6.72,17.73 l -14.24,-19.44 c -0.79,-1.04 -1.67,-1.56 -2.66,-1.58 l -1.55,0.41 c -0.95,0.57 -1.42,1.41 -1.42,2.51 l 0.04,0.64 c 0.07,0.45 0.57,1.26 1.5,2.43 4.77,6.16 10.03,13.5 15.8,22.02 -0.6,1.67 -1.18,3.25 -1.73,4.75 -5.35,14.35 -8.02,21.77 -8.02,22.24 l 0.37,1.53 c 0.55,1 1.36,1.5 2.43,1.5 1.3,-0.03 2.24,-0.59 2.81,-1.66 l 8.39,-22.65 16.78,22.84 c 0.72,0.93 1.61,1.41 2.68,1.43 l 1.37,-0.34 c 0.97,-0.54 1.46,-1.44 1.46,-2.67 l -0.3,-1.38 -19.46,-26.75" /><path
         id="path232"
         style="fill:#fafaf9;fill-opacity:1;fill-rule:nonzero;stroke:none"
         d="m 1546.57,3372.51 1.39,-0.34 c 1,-0.54 1.53,-1.41 1.61,-2.58 -4.11,-32.52 -6.38,-50.09 -6.81,-52.72 -0.95,-5.53 -2.75,-10.12 -5.39,-13.73 -4.02,-5.47 -9.58,-8.2 -16.7,-8.2 -2.3,0 -4.98,0.7 -8.05,2.14 -4.29,1.99 -7.25,4.59 -8.87,7.78 l -0.34,1.46 0.41,1.5 c 0.6,0.99 1.46,1.49 2.58,1.49 l 2.29,-1.23 c 3.72,-4.87 8.01,-7.32 12.88,-7.34 3.87,0.02 7.2,1.72 9.99,5.08 3.17,3.85 5.02,9.12 5.55,15.81 -0.98,-1.52 -2.21,-2.83 -3.71,-3.93 -2.72,-1.98 -5.73,-2.96 -9.02,-2.96 l -1.69,0.11 c -3.84,0.55 -7.02,2.84 -9.55,6.86 -2.79,4.46 -4.19,10.05 -4.19,16.77 0,3.05 0.14,6.19 0.42,9.44 0.47,5.08 1.6,12.31 3.4,21.67 l 0.26,0.86 c 0.52,1.37 1.43,2.06 2.7,2.06 l 1.46,-0.41 c 1,-0.58 1.49,-1.37 1.49,-2.39 0,-1.55 -0.46,-5.37 -1.38,-11.48 -1.32,-8.98 -1.99,-14.82 -1.99,-17.54 0,-5.57 0.76,-10.13 2.25,-13.64 1.72,-4.09 4.21,-6.13 7.45,-6.13 l 1.01,0.11 c 2.45,0.5 4.96,2.51 7.53,6.02 2.95,4.04 5.01,8.66 6.21,13.87 l 3.82,28.67 0.38,1.28 c 0.54,1.09 1.42,1.64 2.61,1.64" /><path
         id="path234"
         style="fill:#f3f2f1;fill-opacity:1;fill-rule:nonzero;stroke:none"
         d="m 1921.87,3267.4 c -0.85,0 -1.54,34.35 -1.54,76.71 0,42.37 0.69,76.71 1.54,76.71 0.85,0 1.54,-34.34 1.54,-76.71 0,-42.36 -0.69,-76.71 -1.54,-76.71" /><path
         id="path236"
         style="fill:#dadbd8;fill-opacity:1;fill-rule:nonzero;stroke:none"
         d="m 1238.9,3267.4 c -0.85,0 -1.53,34.35 -1.53,76.71 0,42.37 0.68,76.71 1.53,76.71 0.85,0 1.54,-34.34 1.54,-76.71 0,-42.36 -0.69,-76.71 -1.54,-76.71" /><path
         id="path238"
         style="fill:#f3f2f1;fill-opacity:1;fill-rule:nonzero;stroke:none"
         d="m 1936.52,3267.4 c -0.86,0 -1.55,34.35 -1.55,76.71 0,42.37 0.69,76.71 1.55,76.71 0.85,0 1.53,-34.34 1.53,-76.71 0,-42.36 -0.68,-76.71 -1.53,-76.71" /><path
         id="path240"
         style="fill:#dadbd8;fill-opacity:1;fill-rule:nonzero;stroke:none"
         d="m 1225.22,3267.4 c -0.85,0 -1.55,34.35 -1.55,76.71 0,42.37 0.7,76.71 1.55,76.71 0.85,0 1.54,-34.34 1.54,-76.71 0,-42.36 -0.69,-76.71 -1.54,-76.71" /><path
         id="path242"
         style="fill:#dadbd8;fill-opacity:1;fill-rule:nonzero;stroke:none"
         d="m 1719.5,3395.55 -0.13,0.26 c 22.79,-18.39 53.76,-43.37 88.21,-71.17 l 0.78,-0.62 -0.97,-0.26 c -3.73,-0.98 -7.72,-2.03 -11.74,-3.09 -26.79,-7.03 -52.15,-13.68 -74.47,-19.54 l -0.16,-0.04 -0.14,0.06 c -27.67,11.74 -51.02,21.64 -67.5,28.63 -8.17,3.5 -14.63,6.26 -19.1,8.18 -2.17,0.95 -3.86,1.68 -5.04,2.2 l -1.29,0.58 -0.43,0.22 0.46,-0.15 1.31,-0.51 c 1.2,-0.49 2.9,-1.18 5.1,-2.07 4.49,-1.86 10.99,-4.55 19.21,-7.95 16.5,-6.91 39.9,-16.69 67.64,-28.29 l -0.3,0.02 c 22.31,5.89 47.67,12.58 74.45,19.65 4.03,1.05 8.02,2.1 11.74,3.08 l -0.19,-0.88 c -34.37,27.88 -65.28,52.95 -88.03,71.39 l -0.12,0.11 -0.01,0.16" /><path
         id="path244"
         style="fill:#dadbd8;fill-opacity:1;fill-rule:nonzero;stroke:none"
         d="m 1799.6,3335.72 4.81,-4.52 6.46,1.39 -2.82,-5.97 3.32,-5.71 -6.55,0.84 -4.4,-4.92 -1.23,6.49 -6.04,2.66 5.79,3.18 0.66,6.56" /><path
         id="path246"
         style="fill:#dadbd8;fill-opacity:1;fill-rule:nonzero;stroke:none"
         d="m 1714.99,3307.68 3.28,-2.74 4.12,1.16 -1.59,-3.97 2.37,-3.56 -4.26,0.28 -2.65,-3.35 -1.05,4.14 -4.01,1.48 3.62,2.28 0.17,4.28" /><path
         id="path248"
         style="fill:#dadbd8;fill-opacity:1;fill-rule:nonzero;stroke:none"
         d="m 1621.53,3346.03 5.24,-0.33 3.23,4.12 1.31,-5.08 4.92,-1.8 -4.43,-2.81 -0.19,-5.25 -4.04,3.35 -5.05,-1.44 1.94,4.88 -2.93,4.36" /><path
         id="path250"
         style="fill:#dadbd8;fill-opacity:1;fill-rule:nonzero;stroke:none"
         d="m 1839.15,3394.43 5.24,-0.33 3.23,4.12 1.31,-5.08 4.93,-1.8 -4.43,-2.81 -0.19,-5.24 -4.05,3.34 -5.04,-1.43 1.93,4.87 -2.93,4.36" /><path
         id="path252"
         style="fill:#dadbd8;fill-opacity:1;fill-rule:nonzero;stroke:none"
         d="m 1715.22,3397.87 3.35,-0.21 2.06,2.63 0.84,-3.24 3.14,-1.15 -2.83,-1.8 -0.12,-3.34 -2.58,2.13 -3.22,-0.92 1.23,3.11 -1.87,2.79" /><path
         id="path254"
         style="fill:#dadbd8;fill-opacity:1;fill-rule:nonzero;stroke:none"
         d="m 1846.51,3390.76 c -0.02,-0.35 -28.55,0.6 -63.73,2.11 -35.19,1.51 -63.7,3 -63.68,3.34 0.01,0.34 28.54,-0.6 63.73,-2.11 35.18,-1.51 63.69,-3 63.68,-3.34" /><path
         id="path256"
         style="fill:#dadbd8;fill-opacity:1;fill-rule:nonzero;stroke:none"
         d="m 1878.56,3420.18 h -846.47 c -11.09,25.15 -13.81,49.04 0,70.46 h 846.47 c 11.1,-25.64 10.16,-48.96 0,-70.46" /><path
         id="path258"
         style="fill:#e7e8e5;fill-opacity:1;fill-rule:nonzero;stroke:none"
         d="m 1665.95,3444.86 h -458.58 v 25.64 h 458.58 v -25.64" /><path
         id="path260"
         style="fill:#dadbd8;fill-opacity:1;fill-rule:nonzero;stroke:none"
         d="m 1064.58,3419.79 c -0.26,-0.22 -3.29,2.69 -6.68,8.52 -3.41,5.79 -6.81,14.7 -7.73,25.01 -0.89,10.31 0.9,19.68 3.24,25.97 2.33,6.34 4.81,9.73 5.09,9.56 0.46,-0.24 -1.3,-3.94 -3.01,-10.21 -1.74,-6.25 -3.09,-15.2 -2.26,-25.05 0.89,-9.84 3.79,-18.42 6.6,-24.27 2.78,-5.87 5.16,-9.22 4.75,-9.53" /><path
         id="path262"
         style="fill:#dadbd8;fill-opacity:1;fill-rule:nonzero;stroke:none"
         d="m 1082.89,3419.79 c -0.25,-0.22 -3.28,2.69 -6.68,8.52 -3.4,5.79 -6.8,14.7 -7.73,25.01 -0.88,10.31 0.91,19.68 3.25,25.97 2.33,6.34 4.8,9.73 5.09,9.56 0.46,-0.24 -1.3,-3.94 -3.01,-10.21 -1.74,-6.25 -3.1,-15.2 -2.26,-25.05 0.89,-9.84 3.79,-18.42 6.59,-24.27 2.79,-5.87 5.16,-9.22 4.75,-9.53" /><path
         id="path264"
         style="fill:#f3f2f1;fill-opacity:1;fill-rule:nonzero;stroke:none"
         d="m 1844.31,3421.44 c -0.94,0.33 5.98,15.01 5.95,34.44 0.25,19.45 -6.49,34.2 -5.56,34.52 0.56,0.5 8.87,-14.26 8.64,-34.54 0,-20.26 -8.48,-34.93 -9.03,-34.42" /><path
         id="path266"
         style="fill:#f3f2f1;fill-opacity:1;fill-rule:nonzero;stroke:none"
         d="m 1828.56,3421.61 c -0.93,0.21 2.63,15.08 2.54,33.73 0.05,18.66 -3.56,33.52 -2.64,33.74 0.71,0.27 5.75,-14.59 5.72,-33.73 0.09,-19.14 -4.92,-34.01 -5.62,-33.74" /><path
         id="path268"
         style="fill:#e7e8e5;fill-opacity:1;fill-rule:nonzero;stroke:none"
         d="m 433.137,1323.44 c -70.211,36.22 -152.879,40.94 -230.824,28.05 -41.875,-6.92 -85.532,-19.45 -114.0278,-50.9 -28.4922,-31.45 -33.8946,-86.82 -1.1797,-113.84 19.4805,-16.09 46.6405,-18.53 71.9025,-18.24 61.015,0.71 128.719,11.46 177.469,-25.25 27.808,-20.95 46.324,-55.77 79.574,-66.08 32.531,-10.08 69.246,9.12 86.496,38.49 17.246,29.35 17.828,66.06 9.781,99.15 0,0 -8.469,72.13 -79.191,108.62" /><path
         id="path270"
         style="fill:#e7e8e5;fill-opacity:1;fill-rule:nonzero;stroke:none"
         d="m 593.992,1633.96 c -42.933,-61.32 -126.371,-41.02 -165.062,-3.59 -38.688,37.43 -55.039,91.67 -69.922,143.39 -34.016,118.2 -68.301,242.18 -43.016,362.54 7.559,35.98 21.016,71.86 46.301,98.56 25.289,26.69 64.164,42.58 99.715,33.18 42.07,-11.11 68.219,-52.32 87.117,-91.51 55.551,-115.23 84.965,-242.96 85.398,-370.87 0.207,-59.74 -6.835,-122.38 -40.531,-171.7" /><path
         id="path272"
         style="fill:#e7e8e5;fill-opacity:1;fill-rule:nonzero;stroke:none"
         d="m 711.883,1545.98 c -46.613,55.32 -55.461,136.01 -34.715,205.31 20.738,69.31 67.602,128.27 121.605,176.4 63.313,56.44 137.743,100.35 217.757,128.49 31.49,11.06 64.7,19.8 97.93,16.63 33.23,-3.17 66.69,-20.16 82.19,-49.72 22.91,-43.71 0.95,-96.73 -22.82,-139.98 -41.87,-76.2 -89.74,-149.09 -143.03,-217.79 -42.866,-55.28 -91.976,-109.8 -157.312,-134.77 -65.332,-24.98 -133.195,-22.04 -167.828,23.27" /><path
         id="path274"
         style="fill:#dadbd8;fill-opacity:1;fill-rule:nonzero;stroke:none"
         d="m 596.898,709.012 c -0.808,-0.051 -2.109,9.879 -3.886,27.859 -1.973,20.277 -4.449,45.738 -7.399,76.039 -3.547,32 -8.218,70.07 -17.105,111.531 -8.863,41.36 -22.731,86.179 -40.535,131.639 -18.45,45.18 -40.938,86.26 -67.223,119.1 -26.098,33 -56.445,56.88 -84.98,70.66 -28.438,14.04 -53.942,19.74 -71.567,22.28 -17.781,1.83 -27.734,3.22 -27.742,4.01 -0.008,0.8 9.969,0.92 28.234,0.44 18.09,-1.21 44.649,-5.79 74.625,-19.42 30.063,-13.33 62.266,-37.59 89.641,-71.26 27.594,-33.54 50.91,-75.52 69.676,-121.5 18.117,-46.26 31.781,-91.55 40.246,-133.788 8.445,-42.192 12.301,-80.692 14.832,-112.954 2.41,-32.289 3.328,-58.429 3.769,-76.507 0.399,-18.071 0.196,-28.082 -0.586,-28.129" /><path
         id="path276"
         style="fill:#dadbd8;fill-opacity:1;fill-rule:nonzero;stroke:none"
         d="m 591.656,767.512 c -0.394,0.019 -0.644,4.476 -0.75,12.929 0.028,9.719 0.059,21.957 0.098,36.981 0.094,32.078 0.074,78.508 -1.645,135.848 -2.839,114.66 -12.711,238.07 -31.777,412.06 -18.062,163.6 -42.301,353.99 -67.879,477.78 -5.48,28.15 -11.008,53.5 -16.211,75.67 -4.961,22.24 -9.191,41.41 -13.281,56.92 -3.508,14.6 -6.367,26.49 -8.637,35.94 -1.851,8.25 -2.64,12.64 -2.261,12.75 0.382,0.11 1.921,-4.06 4.492,-12.12 2.82,-9.31 6.375,-21.02 10.734,-35.43 4.762,-15.36 9.637,-34.41 15.211,-56.55 5.805,-22.09 11.898,-47.37 17.902,-75.48 25.313,-112.17 52.106,-268.94 71.36,-443.34 19.113,-174.35 27.715,-333.1 28.476,-448.06 0.684,-57.469 -0.539,-104 -2.008,-136.101 -0.917,-15.02 -1.664,-27.25 -2.253,-36.95 -0.645,-8.437 -1.172,-12.859 -1.571,-12.847" /><path
         id="path278"
         style="fill:#dadbd8;fill-opacity:1;fill-rule:nonzero;stroke:none"
         d="m 590.891,1073.7 c -0.801,0.03 -0.661,13.75 0.269,38.62 1.422,24.81 4.832,60.69 11.824,104.63 7.414,43.84 17.766,95.89 34.032,152.44 7.043,25.86 23.617,87.81 63.75,180.39 52.875,125.43 124.711,227.98 187.207,291.5 14.652,16.86 30.98,29.02 44.035,40.94 6.758,5.71 12.73,11.41 18.816,15.92 6.117,4.22 11.805,8.13 17.082,11.78 20.574,14.06 32.094,21.48 32.514,20.82 1.85,-2.51 -46.068,-30.72 -106.568,-95.08 -60.262,-64.23 -130.09,-166.07 -182.536,-290.45 -29.25,-67.46 -49.64,-127.64 -64.105,-178.73 -16.719,-56.01 -27.824,-107.53 -36.211,-150.93 -7.977,-43.49 -12.594,-79 -15.375,-103.59 -2.297,-24.63 -3.949,-38.29 -4.734,-38.26" /><path
         id="path280"
         style="fill:#dadbd8;fill-opacity:1;fill-rule:nonzero;stroke:none"
         d="M 886.832,533.59 856.148,113.27 h -539.98 l -30.676,420.32 h 601.34" /><path
         id="path282"
         style="fill:#dadbd8;fill-opacity:1;fill-rule:nonzero;stroke:none"
         d="M 938.988,699.27 V 533.59 H 221.063 v 165.68 h 717.925" /><path
         id="path284"
         style="fill:#e7e8e5;fill-opacity:1;fill-rule:nonzero;stroke:none"
         d="M 938.988,129.352 V 83.4219 H 232.922 v 45.9301 h 706.066" /><path
         id="path286"
         style="fill:#dadbd8;fill-opacity:1;fill-rule:nonzero;stroke:none"
         d="M 872.191,2.60156 905.25,83.4219 H 258.645 L 297.219,2.60156 h 574.972" /><path
         id="path288"
         style="fill:#f3f2f1;fill-opacity:1;fill-rule:nonzero;stroke:none"
         d="m 295.516,396.23 c -0.121,-0.109 0.738,-1.421 2.519,-3.871 2.145,-2.839 4.793,-6.367 8.067,-10.699 7.671,-9.82 18.207,-23.301 31.453,-40.262 l 1.402,-1.789 1.352,1.879 c 19.777,27.344 46.187,63.871 77.285,106.883 h -4.446 C 436.137,415.82 461.742,379.57 489.23,340.629 l 2.387,-3.367 2.668,3.168 c 28.082,33.41 58.578,69.691 90.238,107.371 l -5.203,0.058 c 1.567,-1.968 3.262,-4.097 4.965,-6.23 27.985,-35.09 55.067,-69.047 80.684,-101.16 l 2.691,-3.379 2.485,3.519 c 27.39,38.762 52.984,74.973 76.121,107.711 l -4.426,-0.211 c 37.512,-42.738 69.328,-78.988 93.75,-106.82 l 1.664,-1.891 1.273,2.133 c 12.36,20.758 22.211,37.321 29.352,49.309 3.07,5.359 5.551,9.691 7.535,13.14 1.652,3 2.441,4.59 2.297,4.692 -0.141,0.09 -1.211,-1.344 -3.145,-4.172 -2.191,-3.32 -4.941,-7.48 -8.332,-12.641 -7.5,-11.777 -17.843,-28.039 -30.816,-48.418 l 2.934,0.25 c -24.028,28.149 -55.336,64.84 -92.247,108.11 l -2.328,2.73 -2.105,-2.941 C 718.328,418.988 692.504,382.941 664.867,344.371 l 5.168,0.141 c -25.551,32.16 -52.57,66.16 -80.492,101.297 -1.699,2.132 -3.398,4.261 -4.965,6.242 l -2.562,3.219 -2.641,-3.161 c -31.574,-37.738 -61.984,-74.097 -89.988,-107.57 l 5.054,-0.199 c -27.769,38.73 -53.628,74.808 -76.847,107.199 l -2.25,3.133 -2.196,-3.133 c -30.441,-43.48 -56.296,-80.41 -75.652,-108.047 l 2.75,0.078 c -13.789,16.532 -24.746,29.668 -32.723,39.231 -3.554,4.121 -6.437,7.449 -8.765,10.14 -2.016,2.258 -3.121,3.379 -3.242,3.289" /><path
         id="path290"
         style="fill:#f3f2f1;fill-opacity:1;fill-rule:nonzero;stroke:none"
         d="m 277.977,536.359 c 0,-1.847 135.3,-3.359 302.164,-3.359 166.922,0 302.195,1.512 302.195,3.359 0,1.86 -135.273,3.371 -302.195,3.371 -166.864,0 -302.164,-1.511 -302.164,-3.371" /><path
         id="path292"
         style="fill:#f3f2f1;fill-opacity:1;fill-rule:nonzero;stroke:none"
         d="m 250.695,78.8984 c 0,-1.8476 147.047,-3.3593 328.395,-3.3593 181.414,0 328.426,1.5117 328.426,3.3593 0,1.8633 -147.012,3.3633 -328.426,3.3633 -181.348,0 -328.395,-1.5 -328.395,-3.3633" /><path
         id="path294"
         style="fill:#fafaf9;fill-opacity:1;fill-rule:nonzero;stroke:none"
         d="m 2631.68,2667.42 115.14,202.91 c -50.93,82.67 -80.37,179.99 -80.37,284.22 0,299.74 242.99,542.72 542.71,542.72 299.75,0 542.73,-242.98 542.73,-542.72 0,-299.74 -242.98,-542.72 -542.73,-542.72 -125.15,0 -240.32,42.48 -332.14,113.65 l 0.2,-0.24 -245.54,-57.82" /><path
         id="path296"
         style="fill:#17282f;fill-opacity:1;fill-rule:nonzero;stroke:none"
         d="m 2631.68,2667.42 c 9.09,2.19 88.29,21.27 245.24,59.08 l -0.74,-2.05 -0.18,0.24 0.23,1.82 h 1.59 c 30.93,-23.68 67.91,-46.99 111.3,-66.36 43.44,-19.04 93.14,-34.55 147.95,-41.66 27.37,-3.4 55.94,-5.57 85.3,-4.05 14.66,0.88 29.6,1.27 44.64,2.57 14.95,2.3 30.1,4.64 45.46,6.99 60.91,12.19 123.13,35.45 181.14,71.6 57.96,36.02 111.61,84.85 154.58,144.78 42.89,59.83 75.4,130.7 90.57,207.67 15.04,76.88 13.72,159.26 -6.49,238.95 -2.64,9.93 -4.96,19.99 -7.88,29.88 -3.55,9.71 -7.11,19.43 -10.69,29.18 -6.28,19.86 -16.55,38.15 -25.37,57.16 -4.13,9.67 -10.22,18.3 -15.53,27.39 -5.52,8.96 -10.84,18.09 -16.55,26.98 -6.34,8.47 -12.68,16.96 -19.04,25.47 l -9.55,12.77 c -3.17,4.29 -7.05,7.97 -10.54,12 -7.33,8.06 -14.64,16.1 -21.93,24.13 -7.21,8.12 -15.81,14.8 -23.63,22.25 l -11.97,10.89 c -3.94,3.67 -7.93,7.28 -12.36,10.35 -8.61,6.44 -17.21,12.87 -25.77,19.28 -4.37,3.09 -8.4,6.66 -13.01,9.35 l -13.67,8.3 c -9.1,5.53 -18.19,11.05 -27.24,16.56 -9.53,4.63 -19.04,9.24 -28.52,13.85 -9.56,4.42 -18.75,9.65 -28.79,12.82 -77.99,30.99 -161.18,42.84 -240.75,37.15 -79.58,-5.66 -155.75,-28.39 -221.15,-65.08 -65.59,-36.41 -120.98,-85.05 -163.79,-139.43 -42.93,-54.4 -73.25,-114.44 -92.11,-174.28 -18.72,-60.11 -23.91,-119.79 -23.9,-175.09 1.4,-55.43 11.3,-106.56 25.81,-151.48 14.55,-44.99 33.72,-83.75 53.54,-116.42 l 0.02,-1.27 c -74.67,-129.97 -111.75,-194.53 -116.22,-202.29 4.38,7.8 40.77,72.76 114.05,203.52 l 0.02,-1.27 c -20.08,32.71 -39.53,71.59 -54.33,116.78 -14.78,45.12 -24.9,96.53 -26.5,152.33 -0.18,55.66 4.9,115.78 23.64,176.4 18.85,60.32 49.29,120.91 92.49,175.83 43.05,54.9 98.84,104.04 164.97,140.85 65.94,37.1 142.78,60.12 223.09,65.89 80.3,5.82 164.29,-6.09 243.04,-37.36 10.13,-3.2 19.41,-8.46 29.07,-12.93 9.57,-4.65 19.26,-9.15 28.8,-13.98 9.14,-5.55 18.31,-11.12 27.5,-16.7 l 13.81,-8.38 c 4.66,-2.72 8.73,-6.32 13.14,-9.44 8.65,-6.47 17.32,-12.95 26.02,-19.46 4.47,-3.09 8.5,-6.73 12.48,-10.45 l 12.09,-10.98 c 7.89,-7.52 16.57,-14.28 23.85,-22.47 7.36,-8.1 14.74,-16.22 22.15,-24.36 3.52,-4.06 7.44,-7.79 10.63,-12.12 l 9.64,-12.89 c 6.43,-8.59 12.83,-17.16 19.23,-25.71 5.75,-8.99 11.13,-18.2 16.7,-27.25 5.36,-9.17 11.5,-17.9 15.68,-27.66 8.91,-19.18 19.26,-37.66 25.61,-57.71 3.6,-9.84 7.19,-19.67 10.78,-29.46 2.94,-10 5.28,-20.15 7.94,-30.18 20.38,-80.46 21.66,-163.61 6.41,-241.19 -15.38,-77.69 -48.25,-149.18 -91.6,-209.48 -43.43,-60.41 -97.6,-109.59 -156.11,-145.8 -58.55,-36.35 -121.32,-59.68 -182.72,-71.82 -15.47,-2.34 -30.75,-4.65 -45.82,-6.94 -15.16,-1.27 -30.2,-1.63 -44.97,-2.48 -29.57,-1.45 -58.34,0.81 -85.88,4.31 -55.15,7.32 -105.12,23.09 -148.75,42.41 -43.57,19.65 -80.64,43.24 -111.6,67.19 l 1.83,1.81 0.18,-0.24 -0.23,-1.82 -0.5,-0.24 c -157.33,-36.19 -236.72,-54.45 -245.83,-56.55" /><path
         id="path298"
         style="fill:#f2575d;fill-opacity:1;fill-rule:nonzero;stroke:none"
         d="m 3265.92,3361.97 -15.07,-238.05 c -1.23,-19.47 -16.78,-34.96 -36.25,-36.12 -20.54,-1.22 -38.43,13.87 -40.69,34.32 l -26.43,239.25 c -2,18.11 12.33,33.89 30.55,33.63 l 58.07,-0.8 c 17.32,-0.25 30.91,-14.94 29.82,-32.23" /><path
         id="path300"
         style="fill:#f2575d;fill-opacity:1;fill-rule:nonzero;stroke:none"
         d="m 3151.5,2953.9 c 10.11,-30.45 42.99,-46.94 73.44,-36.83 30.46,10.11 46.96,42.99 36.84,73.45 -10.11,30.45 -42.99,46.94 -73.45,36.83 -30.45,-10.11 -46.94,-42.99 -36.83,-73.45" /><path
         id="path302"
         style="fill:#ac584f;fill-opacity:1;fill-rule:nonzero;stroke:none"
         d="m 1199.59,2257.96 c 0,0 -97.78,-55.76 -135.17,-113.93 -37.4,-58.17 -269.232,-826.57 -269.232,-826.57 -22.149,57.55 -36.036,134.41 -46.766,218.65 l -221.301,-4.76 c 0,0 -33.715,-256.95 -33.715,-315.12 0,-58.18 -2.386,-601.261 209.516,-634.511 211.91,-33.239 386.428,295.011 419.668,403.043 33.24,108.038 157.89,406.258 157.89,406.258 l -80.89,866.94" /><path
         id="path304"
         style="fill:#ac584f;fill-opacity:1;fill-rule:nonzero;stroke:none"
         d="m 733.961,2081.28 c 2.59,16.83 -3.305,34.2 -16.473,45 -9.293,7.62 -22.238,13.66 -39.523,12.47 -42.735,-2.94 -128.203,-78.1 -162.094,-88.41 -33.891,-10.33 -64.832,-42.74 -60.414,-82.52 4.418,-39.79 61.891,-290.3 61.891,-290.3 v -212.19 h 219.558 l 10.317,64.83 c 0,0 38.312,45.68 50.105,79.57 11.785,33.9 0,145.89 0,145.89 l 47.152,13.26 c 0,0 30.942,35.36 39.786,67.79 8.843,32.42 -4.418,58.94 -36.84,55.99 0,0 11.789,54.52 7.367,69.26 -4.418,14.74 -16.207,33.9 -55.996,26.52 0,0 20.633,63.37 -5.895,84 -26.523,20.63 -58.941,8.84 -58.941,8.84" /><path
         id="path306"
         style="fill:#943832;fill-opacity:1;fill-rule:nonzero;stroke:none"
         d="m 733.316,1857.66 c -0.511,1.29 24.387,12.29 56.461,22.01 32.063,9.81 58.86,14.55 59.153,13.2 0.324,-1.46 -25.793,-8.44 -57.637,-18.18 -31.855,-9.66 -57.438,-18.42 -57.977,-17.03" /><path
         id="path308"
         style="fill:#943832;fill-opacity:1;fill-rule:nonzero;stroke:none"
         d="m 690.848,1960.56 c -0.254,0.68 5.644,3.61 15.375,7.88 9.75,4.2 23.3,9.98 39.027,14.61 15.758,4.61 30.621,6.41 41.293,6.86 10.695,0.41 17.293,-0.19 17.312,-0.85 0.106,-1.8 -26.378,-2.02 -57.152,-11.01 -15.367,-4.52 -29.062,-9.72 -39.156,-13.05 -10.07,-3.38 -16.445,-5.11 -16.699,-4.44" /><path
         id="path310"
         style="fill:#943832;fill-opacity:1;fill-rule:nonzero;stroke:none"
         d="m 497.547,1943.21 c -0.254,-0.02 -1.012,4.23 0.375,11.79 1.371,7.49 5.387,18.24 14.082,28.93 8.621,10.77 21.836,20.75 37.355,29.58 15.512,8.83 32.918,17.81 51.664,26.3 37.528,16.93 73.125,28.32 99.219,34.92 13.043,3.37 23.719,5.54 31.117,6.92 7.422,1.27 11.547,1.81 11.621,1.46 0.075,-0.35 -3.914,-1.56 -11.175,-3.44 -7.242,-1.98 -17.746,-4.68 -30.586,-8.49 -25.707,-7.47 -60.821,-19.32 -98.059,-36.12 -36.68,-17.38 -71.117,-33.29 -88.332,-53.49 -8.668,-9.93 -13.008,-19.94 -14.93,-27.03 -1.937,-7.13 -1.894,-11.34 -2.351,-11.33" /><path
         id="path312"
         style="fill:#943832;fill-opacity:1;fill-rule:nonzero;stroke:none"
         d="m 596.949,1836.78 c -0.281,-0.45 -6.554,3.26 -12.703,12.95 -6.098,9.42 -11.289,25.7 -7.168,43.12 4.242,17.39 16.27,29.54 25.985,35.15 9.875,5.84 17.148,6.29 17.199,5.76 0.261,-0.85 -6.457,-2.59 -15.176,-8.83 -8.633,-6.05 -19.121,-17.59 -22.945,-33.29 -3.723,-15.74 0.363,-30.78 5.308,-40.08 4.93,-9.53 10.125,-14.13 9.5,-14.78" /><path
         id="path314"
         style="fill:#943832;fill-opacity:1;fill-rule:nonzero;stroke:none"
         d="m 693.512,1755.08 c -0.364,-0.44 -5.578,3.08 -10.801,11.58 -5.195,8.31 -9.77,22.22 -7.289,37.53 2.539,15.31 11.324,27.05 18.902,33.26 7.656,6.37 13.719,8.04 13.922,7.51 0.402,-0.76 -4.894,-3.57 -11.422,-10.22 -6.496,-6.51 -13.969,-17.55 -16.261,-31.39 -2.247,-13.84 1.312,-26.69 5.386,-34.94 4.059,-8.39 8.184,-12.74 7.563,-13.33" /><path
         id="path316"
         style="fill:#943832;fill-opacity:1;fill-rule:nonzero;stroke:none"
         d="m 755.145,1529.08 c 0.179,0 0.464,-2.65 0.843,-7.68 0.461,-5.02 0.668,-12.45 1.586,-21.97 1.696,-19.05 4.926,-46.56 11.551,-80.09 13.066,-67.04 41.16,-157.97 87.063,-251.7 23.492,-46.52 46.789,-90.89 63.203,-133.28 16.988,-42.149 27.492,-82.071 32.179,-116.169 4.813,-34.132 3.227,-62.293 0.368,-81.25 -0.926,-9.57 -3.086,-16.781 -4.059,-21.73 -1.125,-4.93 -1.797,-7.492 -1.973,-7.441 -0.176,0.039 0.157,2.671 0.946,7.652 0.632,5 2.468,12.219 3.074,21.769 2.226,18.911 3.23,46.758 -2.004,80.489 -5.106,33.691 -15.859,73.121 -32.988,114.9 -16.579,42.08 -39.801,86 -63.426,132.77 -46.113,94.17 -73.801,185.76 -85.996,253.3 -6.199,33.78 -8.879,61.48 -9.957,80.63 -0.61,9.58 -0.492,17.04 -0.617,22.09 -0.04,5.05 0.027,7.7 0.207,7.71" /><path
         id="path318"
         style="fill:#f2575d;fill-opacity:1;fill-rule:nonzero;stroke:none"
         d="m 1199.59,2257.96 468.8,161.65 566.98,5.71 c 9.96,0 626.03,-210.48 665.83,-233.7 39.81,-23.22 -140.65,-749.99 -140.65,-749.99 l 84.27,-1014.65 c 0,0 142.38,-327.5816 23.46,-424.37844 H 2757.29 L 1326.57,4.25 c -2.83,213.629 62.09,777.648 62.09,777.648 l -136,616.962 -53.07,859.1" /><path
         id="path320"
         style="fill:#ffffff;fill-opacity:1;fill-rule:nonzero;stroke:none"
         d="m 2632.56,1562.43 c 0,-0.1 -1.22,-0.2 -3.61,-0.32 -2.66,-0.08 -6.17,-0.21 -10.63,-0.37 -9.65,-0.22 -23.34,-0.53 -40.83,-0.94 -35.78,-0.59 -87.01,-1.44 -150.19,-2.49 -127.08,-1.61 -302.14,-3.81 -495.5,-6.25 -193.44,-1.84 -368.52,-3.51 -495.61,-4.72 -63.18,-0.35 -114.42,-0.65 -150.2,-0.84 -17.49,0.02 -31.19,0.03 -40.84,0.04 -4.45,0.06 -7.97,0.11 -10.62,0.14 -2.4,0.06 -3.62,0.13 -3.62,0.22 -0.01,0.1 1.22,0.2 3.61,0.31 2.66,0.09 6.16,0.22 10.61,0.37 9.65,0.23 23.34,0.54 40.82,0.95 35.78,0.59 87,1.44 150.18,2.49 127.09,1.6 302.17,3.81 495.61,6.25 193.37,1.84 368.45,3.51 495.54,4.72 63.18,0.35 114.42,0.64 150.2,0.84 17.49,-0.02 31.19,-0.03 40.84,-0.04 4.46,-0.06 7.97,-0.11 10.63,-0.14 2.39,-0.07 3.61,-0.13 3.61,-0.22" /><path
         id="path322"
         style="fill:#a7a9a8;fill-opacity:1;fill-rule:nonzero;stroke:none"
         d="m 2813.39,805.379 -7.15,86.09 c 0.52,-0.328 1.03,-0.66 1.55,-0.989 l 5.6,-85.101" /><path
         id="path324"
         style="fill:#cc4341;fill-opacity:1;fill-rule:nonzero;stroke:none"
         d="m 2697.3,745.148 c -113.57,0 -226.37,33.59 -322.18,96.582 -56.62,37.231 -109.29,85.442 -175.56,99.629 -16.62,3.563 -33.42,4.813 -50.33,4.813 -38.53,0 -77.59,-6.5 -116.33,-7.051 -1.69,-0.031 -3.4,-0.039 -5.09,-0.039 -91.15,0 -181.92,34.477 -249.98,95.128 -69.33,61.77 -114.4,150.07 -123.77,242.46 -4.49,44.32 1.95,95.26 37.52,122.09 18.74,14.14 41.87,18.82 65.67,18.82 15.41,0 31.09,-1.96 46.06,-4.59 176.99,-31.03 333.71,-129.59 485.29,-226.1 180.63,-114.99 337.15,-180.7 517.64,-295.421 l 7.15,-86.09 3.14,-47.617 c -39.37,-8.473 -79.35,-12.614 -119.23,-12.614" /><path
         id="path326"
         style="fill:#943832;fill-opacity:1;fill-rule:nonzero;stroke:none"
         d="m 2661.32,1319.45 c 0.45,1.37 105.99,-31.52 235.7,-73.45 129.76,-41.93 234.55,-77.03 234.12,-78.41 -0.44,-1.36 -105.96,31.52 -235.72,73.46 -129.71,41.92 -234.54,77.03 -234.1,78.4" /><path
         id="path328"
         style="fill:#f2575d;fill-opacity:1;fill-rule:nonzero;stroke:none"
         d="m 1404.17,788.961 c 0.05,0.18 2.88,-0.43 8.23,-1.731 5.8,-1.48 13.57,-3.46 23.34,-5.96 20.75,-5.379 49.91,-12.95 85.74,-22.258 72.41,-18.66 172.69,-43.532 284.01,-68.543 111.36,-24.957 212.66,-45.321 286.1,-59.391 36.37,-6.887 65.97,-12.5 87.03,-16.488 9.9,-1.93 17.77,-3.449 23.64,-4.59 5.39,-1.109 8.21,-1.781 8.18,-1.961 -0.03,-0.168 -2.91,0.152 -8.36,0.922 -5.91,0.898 -13.85,2.109 -23.82,3.629 -20.66,3.23 -50.51,8.281 -87.34,14.879 -73.65,13.14 -175.14,32.953 -286.58,57.929 -111.39,25.024 -211.59,50.461 -283.81,70.051 -36.1,9.781 -65.25,17.961 -85.32,23.871 -9.67,2.891 -17.36,5.192 -23.09,6.899 -5.26,1.633 -8,2.57 -7.95,2.742" /><path
         id="path330"
         style="fill:#f2575d;fill-opacity:1;fill-rule:nonzero;stroke:none"
         d="m 1236.72,2270.76 c 0,0 -146.02,-32.46 -205.77,-175.48 C 967.152,1942.53 795.188,1450.6 795.188,1450.6 l 458.382,-282.18 44.6,227.58 -61.45,874.76" /><path
         id="path332"
         style="fill:#17282f;fill-opacity:1;fill-rule:nonzero;stroke:none"
         d="m 1139.84,1902.92 c 1.41,0.31 58.25,-250.41 126.95,-559.93 68.71,-309.63 123.27,-560.799 121.87,-561.111 -1.41,-0.297 -58.24,250.361 -126.96,559.981 -68.69,309.52 -123.26,560.74 -121.86,561.06" /><path
         id="path334"
         style="fill:#17282f;fill-opacity:1;fill-rule:nonzero;stroke:none"
         d="m 1544.42,626.141 c 0.05,0.07 0.85,-0.403 2.35,-1.391 1.73,-1.172 3.9,-2.648 6.59,-4.469 6.04,-4.261 14.4,-10.152 25,-17.609 10.77,-7.762 24.02,-17.16 39.74,-27.59 15.66,-10.504 33.21,-22.883 53.33,-35.48 19.93,-12.891 41.79,-26.942 65.79,-41.18 23.69,-14.75 49.72,-29.293 76.94,-44.891 54.89,-30.383 116.2,-62.031 182,-92.25 65.96,-29.91 130.06,-55.492 188.99,-77.062 29.62,-10.34 57.67,-20.469 84.33,-28.688 26.49,-8.812 51.43,-16.109 74.22,-22.711 22.71,-6.961 43.56,-12.101 61.75,-17.05 18.17,-5.032 33.96,-8.891 46.88,-11.938 12.58,-3.113 22.51,-5.57 29.67,-7.352 3.15,-0.832 5.68,-1.5 7.7,-2.039 1.73,-0.492 2.61,-0.781 2.59,-0.871 -0.02,-0.09 -0.94,0.039 -2.71,0.352 -2.05,0.398 -4.62,0.906 -7.8,1.527 -7.23,1.563 -17.23,3.699 -29.92,6.41 -13,2.75 -28.86,6.321 -47.13,11.082 -18.28,4.7 -39.23,9.598 -62.03,16.329 -22.89,6.39 -47.94,13.5 -74.52,22.14 -26.78,8.07 -54.94,18.059 -84.65,28.301 -59.13,21.348 -123.43,46.871 -189.53,76.84 -65.94,30.281 -127.32,62.129 -182.19,92.789 -27.21,15.742 -53.2,30.461 -76.83,45.402 -23.95,14.43 -45.73,28.68 -65.56,41.789 -20.03,12.809 -37.45,25.418 -52.98,36.149 -15.57,10.679 -28.66,20.32 -39.26,28.34 -10.37,7.812 -18.54,13.968 -24.45,18.421 -2.56,1.989 -4.63,3.598 -6.28,4.879 -1.39,1.129 -2.08,1.739 -2.03,1.821" /><path
         id="path336"
         style="fill:#17282f;fill-opacity:1;fill-rule:nonzero;stroke:none"
         d="m 2522.77,1819 c 1.3,0.59 50.93,-105.25 110.83,-236.41 59.91,-131.19 107.4,-238 106.09,-238.59 -1.31,-0.6 -50.93,105.23 -110.83,236.43 -59.89,131.15 -107.39,237.97 -106.09,238.57" /><path
         id="path338"
         style="fill:#cc4341;fill-opacity:1;fill-rule:nonzero;stroke:none"
         d="m 1283.87,1281.84 c -1.33,0.65 -2.66,1.31 -3.97,1.98 -0.66,2.98 -1.31,5.91 -1.97,8.9 l 1.58,8.04 4.36,-18.92" /><path
         id="path340"
         style="fill:#cc4341;fill-opacity:1;fill-rule:nonzero;stroke:none"
         d="m 1273.89,1287.01 c -77.39,42.58 -125.65,128.53 -138.88,216.33 -13.43,89.12 4.76,180.13 32.77,265.93 22.27,-102.94 55.94,-256.27 93.92,-427.41 4.11,-18.5 8.18,-36.81 12.19,-54.85 m 4.04,5.71 c -3.66,16.56 -7.39,33.34 -11.14,50.27 -38.67,174.22 -73.58,329.8 -96.97,432.48 0.08,0.21 0.15,0.43 0.22,0.65 l 109.47,-475.36 -1.58,-8.04" /><path
         id="path342"
         style="fill:#0f191d;fill-opacity:1;fill-rule:nonzero;stroke:none"
         d="m 1279.9,1283.82 c -2.02,1.03 -4.02,2.09 -6.01,3.19 -4.01,18.04 -8.08,36.35 -12.19,54.85 -37.98,171.14 -71.65,324.47 -93.92,427.41 0.68,2.07 1.36,4.13 2.04,6.2 23.39,-102.68 58.3,-258.26 96.97,-432.48 3.75,-16.93 7.48,-33.71 11.14,-50.27 0.66,-2.99 1.31,-5.92 1.97,-8.9" /><path
         id="path344"
         style="fill:#cc4341;fill-opacity:1;fill-rule:nonzero;stroke:none"
         d="m 2357.86,189.68 c -124.69,0 -249.38,25.75 -363.62,75.761 -149.43,65.411 -280.53,172.149 -374.88,305.207 14.79,-10.269 31.28,-22.109 50.06,-34.117 19.83,-13.109 41.61,-27.359 65.56,-41.789 23.63,-14.941 49.62,-29.66 76.83,-45.402 54.87,-30.66 116.25,-62.508 182.19,-92.789 57.8,-26.211 114.22,-49.012 167.01,-68.602 100.56,-38.988 204.09,-70.187 311.96,-90.859 -38.15,-4.949 -76.64,-7.41 -115.11,-7.41 m -452.57,215.519 c -31.95,16.199 -62.42,32.442 -91.13,48.332 -27.22,15.598 -53.25,30.141 -76.94,44.891 -13.14,7.797 -25.65,15.539 -37.54,23.066 67.92,-40.886 136.29,-79.988 205.61,-116.289" /><path
         id="path346"
         style="fill:#0f191d;fill-opacity:1;fill-rule:nonzero;stroke:none"
         d="m 2161.01,287.949 c -52.79,19.59 -109.21,42.391 -167.01,68.602 -65.94,30.281 -127.32,62.129 -182.19,92.789 -27.21,15.742 -53.2,30.461 -76.83,45.402 -23.95,14.43 -45.73,28.68 -65.56,41.789 -18.78,12.008 -35.27,23.848 -50.06,34.117 -0.03,0.051 -0.07,0.102 -0.1,0.153 26.76,-16.68 53.55,-33.129 80.42,-49.313 11.89,-7.527 24.4,-15.269 37.54,-23.066 23.69,-14.75 49.72,-29.293 76.94,-44.891 28.71,-15.89 59.18,-32.133 91.13,-48.332 83.56,-43.75 168.53,-83.429 255.72,-117.25" /><path
         id="path348"
         style="fill:#ac584f;fill-opacity:1;fill-rule:nonzero;stroke:none"
         d="m 2168.5,1475.31 672.3,-213.87 c 0,0 -144.38,288.89 -203.5,439.76 -39.76,101.44 4.95,432.92 209.68,457.27 0,0 39,-8.1 96.18,-87.06 57.16,-78.94 374.76,-632.84 374.76,-632.84 0,0 136.36,-249.07 183.48,-350.89 C 3571.72,935.719 3474.97,698.5 3201.56,650.211 2986.67,612.25 2140.43,1110.51 2140.43,1110.51 l 28.07,364.8" /><path
         id="path350"
         style="fill:#f2575d;fill-opacity:1;fill-rule:nonzero;stroke:none"
         d="m 3296.78,1604.11 -491,-323.11 -226.22,460.76 59.78,320.03 169.59,149.78 c 86.84,16.96 165.2,-76.07 208.87,-153.03 l 278.98,-454.43" /><path
         id="path352"
         style="fill:#17282f;fill-opacity:1;fill-rule:nonzero;stroke:none"
         d="m 2509.85,1871.05 c -0.19,0 -0.3,1.94 -0.36,5.66 0.07,3.72 -0.29,9.23 0.3,16.28 0.59,14.13 3.05,34.59 9.35,59.15 6.25,24.56 17.1,53.06 34.1,82.04 16.94,28.98 40.5,58.1 70.3,83.01 30.07,24.6 63.09,42.28 94.73,53.47 31.67,11.27 61.7,16.57 87,18.09 25.31,1.59 45.87,0.15 59.85,-1.91 7.03,-0.75 12.38,-2.14 16.04,-2.77 3.65,-0.74 5.53,-1.22 5.5,-1.4 -0.08,-0.47 -7.79,0.78 -21.76,2.16 -13.98,1.43 -34.37,2.28 -59.35,0.25 -24.97,-1.97 -54.53,-7.58 -85.65,-18.93 -31.08,-11.27 -63.49,-28.8 -93.05,-52.97 -29.28,-24.48 -52.57,-53.03 -69.47,-81.44 -16.99,-28.42 -28.05,-56.4 -34.68,-80.56 -6.68,-24.16 -9.68,-44.35 -10.89,-58.34 -1.27,-13.99 -1.5,-21.8 -1.96,-21.79" /><path
         id="path354"
         style="fill:#17282f;fill-opacity:1;fill-rule:nonzero;stroke:none"
         d="m 2041.73,1581.73 v 287.95 c 0,25.68 -20.81,46.49 -46.48,46.49 h -318.43 c -25.67,0 -46.48,-20.81 -46.48,-46.49 v -606.97 c 0,-25.67 20.81,-46.48 46.48,-46.48 h 318.43 c 25.67,0 46.48,20.81 46.48,46.48 v 319.02" /><path
         id="path356"
         style="fill:#ac584f;fill-opacity:1;fill-rule:nonzero;stroke:none"
         d="m 2341.93,1381.89 c 0,0 -83.89,45.17 -101.1,64.52 -17.2,19.36 -120.45,152.72 -144.1,174.22 -23.66,21.5 -55.92,36.56 -55.92,36.56 v -96.78 c 0,0 -10.62,-10.76 -44.03,-17.21 -33.4,-6.46 -334.52,53.77 -356.03,55.93 -21.5,2.14 -45.17,2.14 -45.17,-23.67 0,-25.81 25.81,-58.07 36.57,-66.68 10.75,-8.6 51.62,-19.35 51.62,-19.35 0,0 -93.12,7.89 -103.87,-5.01 -10.76,-12.91 -17.22,-43.33 -2.39,-50.37 12.44,-5.91 79.87,-32.87 79.87,-32.87 0,0 174.8,-68.76 176.95,-77.37 2.15,-8.6 -105.39,-4.29 -118.3,0 -12.9,4.31 -60.22,36.57 -75.28,38.72 -15.05,2.15 -43.01,-12.09 -30.11,-43.69 12.91,-31.59 47.32,-70.3 47.32,-70.3 0,0 -25.81,-4.31 -27.96,-27.97 -2.15,-23.65 4.3,-27.96 15.05,-40.86 10.76,-12.91 51.62,-25.81 70.98,-25.81 19.36,0 303.27,-64.53 324.78,-64.53 21.51,0 103.24,21.51 133.35,23.66 30.11,2.15 73.13,0 73.13,0 l 94.64,268.86" /><path
         id="path358"
         style="fill:#943832;fill-opacity:1;fill-rule:nonzero;stroke:none"
         d="m 1618.98,1491.7 c -0.03,0.37 5.42,0.89 15.37,1.55 4.98,0.52 11.06,0.3 18.13,0.03 3.59,-0.14 7.37,-0.29 11.34,-0.43 4.01,-0.44 8.23,-0.9 12.62,-1.38 35.52,-3.59 83.3,-15.74 135.16,-31.04 51.88,-15.34 98.91,-28.84 133.76,-34.69 4.32,-0.77 8.46,-1.51 12.41,-2.21 3.9,-0.47 7.61,-0.92 11.13,-1.34 6.97,-0.88 12.96,-1.68 17.9,-1.77 9.85,-0.54 15.34,-1.02 15.35,-1.37 0.01,-0.36 -5.47,-0.58 -15.43,-0.65 -5,-0.22 -11.06,0.29 -18.1,0.89 -3.57,0.3 -7.34,0.63 -11.3,0.96 -4,0.59 -8.18,1.21 -12.55,1.85 -35.31,4.98 -82.78,18 -134.62,33.33 -51.84,15.29 -99.12,27.91 -134.17,32.39 -4.34,0.6 -8.5,1.18 -12.47,1.73 -3.91,0.29 -7.64,0.56 -11.18,0.82 -6.99,0.54 -13.02,1.07 -17.95,0.85 -9.87,-0.02 -15.37,0.12 -15.4,0.48" /><path
         id="path360"
         style="fill:#943832;fill-opacity:1;fill-rule:nonzero;stroke:none"
         d="m 1898.59,1322.72 c 0.85,1.48 23.8,-17.69 58.8,-23.45 34.91,-6.35 62.96,3.99 63.27,2.31 0.21,-0.55 -6.37,-3.91 -17.96,-6.55 -11.54,-2.66 -28.22,-3.97 -46.2,-0.89 -17.96,3.14 -33.23,9.99 -43.2,16.38 -10.03,6.39 -15.09,11.77 -14.71,12.2" /><path
         id="path362"
         style="fill:#943832;fill-opacity:1;fill-rule:nonzero;stroke:none"
         d="m 1652.81,1253.71 c 0.13,0.33 4.39,-0.92 11.99,-3.48 7.58,-2.6 18.58,-6.22 32.21,-10.53 27.27,-8.62 65.38,-19.2 108.2,-27.47 42.84,-8.21 82.16,-12.52 110.68,-14.63 14.25,-1.07 25.82,-1.78 33.82,-2.18 8,-0.44 12.42,-0.86 12.42,-1.23 0,-0.36 -4.43,-0.62 -12.46,-0.8 -8.03,-0.22 -19.65,-0.07 -34,0.53 -28.7,1.17 -68.33,4.93 -111.45,13.19 -43.08,8.32 -81.28,19.55 -108.36,29.11 -13.55,4.75 -24.4,8.93 -31.78,12.12 -7.39,3.14 -11.41,5.03 -11.27,5.37" /><path
         id="path364"
         style="fill:#ffffff;fill-opacity:1;fill-rule:nonzero;stroke:none"
         d="m 1800.28,1818.6 c 0,-13.24 10.73,-23.99 23.99,-23.99 13.24,0 23.98,10.75 23.98,23.99 0,13.25 -10.74,23.99 -23.98,23.99 -13.26,0 -23.99,-10.74 -23.99,-23.99" /><path
         id="path366"
         style="fill:#33535f;fill-opacity:1;fill-rule:nonzero;stroke:none"
         d="m 2313.03,3141.47 c 31.04,-80.27 49.68,-99.9 90.74,-183.95 36.09,-73.87 3.74,-174.11 -56.51,-229.5 -39.3,-36.13 -92.97,-50.73 -144.71,-62.7 -115.61,-26.75 -235.77,-46.3 -352.4,-24.57 -109.48,20.4 -211.9,77.87 -287.04,161.06 -75.14,83.19 -122.56,191.62 -132.91,303.88 l 882.83,35.78" /><path
         id="path368"
         style="fill:#20353d;fill-opacity:1;fill-rule:nonzero;stroke:none"
         d="m 1956.02,2631.42 c -35.46,0 -70.82,2.8 -105.87,9.33 -109.48,20.4 -211.9,77.87 -287.04,161.06 -75.14,83.19 -122.56,191.62 -132.91,303.88 l 882.83,35.78 c 31.04,-80.27 49.68,-99.9 90.74,-183.95 10.4,-21.28 15.11,-44.75 15.12,-68.7 0.01,-59.2 -28.74,-121.37 -71.63,-160.8 -39.3,-36.13 -92.97,-50.73 -144.71,-62.7 -80.87,-18.71 -163.97,-33.9 -246.53,-33.9" /><path
         id="path370"
         style="fill:#17282f;fill-opacity:1;fill-rule:nonzero;stroke:none"
         d="m 2231.67,2871.06 c 31.55,93.14 62.72,187 77.77,284.18 15.04,97.18 13.34,198.7 -19.79,291.29 -5.03,14.04 -48.15,108.33 -63.01,107.04 -10.61,-0.91 15.59,-88.69 10.12,-97.84 -52.25,-87.24 -67.45,-192.74 -60.53,-294.19 6.94,-101.46 26.9,-192.88 55.44,-290.48" /><path
         id="path372"
         style="fill:#ac584f;fill-opacity:1;fill-rule:nonzero;stroke:none"
         d="m 1956.23,2051.85 c 152.47,1.34 275.93,124.28 277.89,276.74 l 11.84,917.52 c 11.03,246.39 -123.16,458.18 -369.76,462.38 l -22.82,-0.94 c -229.56,-9.48 -413.44,-193.59 -422.44,-423.18 -8.37,-213.61 -14.89,-449.74 -8.76,-563.9 12.69,-236.33 250.71,-263.33 250.71,-263.33 0.53,-0.01 0.65,-54.85 0.52,-124.3 -0.29,-156.02 126.81,-282.36 282.82,-280.99" /><path
         id="path374"
         style="fill:#943832;fill-opacity:1;fill-rule:nonzero;stroke:none"
         d="m 1672.89,2457.14 c 0,0 149.4,-2.59 304.1,103.73 0,0 -67.95,-175.06 -304.77,-163.52 l 0.67,59.79" /><path
         id="path376"
         style="fill:#17282f;fill-opacity:1;fill-rule:nonzero;stroke:none"
         d="m 1530.34,3091.5 c 0.11,-17.85 15.32,-32.49 33.97,-32.72 18.62,-0.23 33.66,14.02 33.55,31.88 -0.1,17.87 -15.31,32.52 -33.93,32.75 -18.65,0.24 -33.69,-14.05 -33.59,-31.91" /><path
         id="path378"
         style="fill:#17282f;fill-opacity:1;fill-rule:nonzero;stroke:none"
         d="m 1485.53,3188.31 c 4.37,-4.22 29.16,15.76 65.51,17.17 36.28,1.92 63.72,-15.67 67.47,-11.06 1.86,2.05 -2.73,9.83 -14.69,17.8 -11.78,7.95 -31.61,15.33 -54.25,14.3 -22.62,-1.07 -41.32,-10.18 -51.91,-19.16 -10.82,-9.04 -14.27,-17.15 -12.13,-19.05" /><path
         id="path380"
         style="fill:#17282f;fill-opacity:1;fill-rule:nonzero;stroke:none"
         d="m 1872.29,3091.5 c 0.11,-17.85 15.31,-32.49 33.97,-32.72 18.61,-0.24 33.65,14.02 33.55,31.88 -0.12,17.86 -15.32,32.51 -33.94,32.75 -18.66,0.23 -33.68,-14.05 -33.58,-31.91" /><path
         id="path382"
         style="fill:#17282f;fill-opacity:1;fill-rule:nonzero;stroke:none"
         d="m 1842.03,3198.67 c 4.38,-3.09 29.2,11.49 65.51,12.49 36.27,1.37 63.73,-11.52 67.49,-8.15 1.85,1.5 -2.71,7.19 -14.72,13.03 -11.79,5.82 -31.63,11.24 -54.25,10.51 -22.63,-0.76 -41.32,-7.41 -51.91,-13.96 -10.78,-6.6 -14.25,-12.54 -12.12,-13.92" /><path
         id="path384"
         style="fill:#17282f;fill-opacity:1;fill-rule:nonzero;stroke:none"
         d="m 1723.25,2903.72 c 0.09,2.07 -22.66,5.04 -59.45,8.21 -9.32,0.57 -18.18,2.05 -20,8.32 -2.47,6.62 1,16.78 5.05,27.77 7.8,22.81 15.96,46.72 24.52,71.78 33.96,102.17 58.12,186.02 54,187.36 -4.14,1.33 -35,-80.4 -68.95,-182.58 -8.14,-25.18 -15.94,-49.19 -23.35,-72.16 -3.07,-10.69 -8.62,-22.9 -3.3,-36.61 2.78,-6.83 9.79,-11.59 15.81,-12.94 6.03,-1.57 11.25,-1.45 15.85,-1.54 36.91,-0.46 59.77,0.32 59.82,2.39" /><path
         id="path386"
         style="fill:#17282f;fill-opacity:1;fill-rule:nonzero;stroke:none"
         d="m 1837.18,3381.05 c 3.99,-9.73 40.07,-3.55 82.92,-6.93 42.91,-2.51 77.8,-13.57 83.09,-4.49 2.35,4.35 -4.03,13.4 -18.32,22.39 -14.17,8.98 -36.53,17.15 -62.25,18.94 -25.7,1.74 -48.97,-3.29 -64.23,-10.25 -15.39,-6.94 -22.95,-15.03 -21.21,-19.66" /><path
         id="path388"
         style="fill:#17282f;fill-opacity:1;fill-rule:nonzero;stroke:none"
         d="m 1495.55,3370.11 c 6.74,-7.98 31.42,1.61 61.5,3.27 30.02,2.69 55.81,-3.26 61.33,5.62 2.39,4.29 -1.96,12.39 -13.42,19.75 -11.29,7.33 -29.92,12.93 -50.57,11.45 -20.66,-1.51 -38.27,-9.73 -48.4,-18.61 -10.28,-8.92 -13.42,-17.57 -10.44,-21.48" /><path
         id="path390"
         style="fill:#ac584f;fill-opacity:1;fill-rule:nonzero;stroke:none"
         d="m 2233.89,3070.23 c 3.95,1.91 160.48,54.77 161.99,-107.11 1.52,-161.86 -161.31,-129.99 -161.63,-125.36 -0.32,4.65 -0.36,232.47 -0.36,232.47" /><path
         id="path392"
         style="fill:#943832;fill-opacity:1;fill-rule:nonzero;stroke:none"
         d="m 2283.13,2899.55 c 0.7,0.53 2.83,-1.94 7.62,-4.08 4.66,-2.09 12.67,-3.48 21.08,-0.24 17.04,6.44 31.19,33.72 31.7,62.9 0.27,14.74 -2.95,28.74 -8.27,40.3 -5.05,11.79 -12.79,20 -21.42,21.45 -8.58,1.9 -14.63,-3.31 -16.56,-7.89 -2.13,-4.54 -1.08,-7.77 -1.93,-8.05 -0.45,-0.41 -3.5,2.68 -2.26,9.38 0.64,3.22 2.5,7.05 6.28,10.2 3.85,3.19 9.55,4.85 15.55,4.26 12.48,-0.74 23.83,-12.12 29.69,-24.82 6.54,-12.75 10.51,-28.48 10.2,-45.02 -0.74,-32.63 -17.14,-63.31 -40.48,-70.29 -11.36,-3.08 -20.89,0.27 -25.83,4.04 -5.05,3.96 -5.94,7.56 -5.37,7.86" /><path
         id="path394"
         style="fill:#17282f;fill-opacity:1;fill-rule:nonzero;stroke:none"
         d="m 1535.52,3552.58 c -26.21,14.44 52.37,99.32 116.74,128.57 97.27,44.2 245.84,71.47 335.57,46.07 108.03,-30.57 197.8,-84.26 252.08,-182.54 54.28,-98.29 74.73,-212.81 71.65,-325.05 -0.95,-34.24 -4.49,-69.94 -22.76,-98.91 -22.59,-35.8 -65.96,-58.37 -64.03,-107.73 0.7,-18.04 -4.44,-36.26 -16.79,-49.43 -29.6,-31.52 -65.85,-1.94 -82.52,27.73 -35.62,63.39 -39.62,139.08 -42.79,211.72 -2.25,51.62 -4.38,104.36 10.15,153.95 7.91,26.99 20.62,52.49 27.02,79.87 6.39,27.38 5.54,58.46 -11.52,80.81 -2.78,3.63 -7.36,8.22 -13.15,13.29 -45.86,40.16 -110.05,52.15 -167.5,31.8 -91.14,-32.3 -246.78,-80.55 -287.46,-49.64 -58.51,44.47 -72.52,73.49 -72.52,73.49 l -32.17,-34" /><path
         id="path396"
         style="fill:#33535f;fill-opacity:1;fill-rule:nonzero;stroke:none"
         d="m 1600.74,3579.2 2.1,30.84 c 1.4,20.56 87.37,130.37 212.08,111.56 124.72,-18.82 162.07,-168.01 162.07,-168.01 z M 1430.2,3306.59 c 0,0 27.1,81.22 53.96,124.55 26.86,43.34 114.37,79.89 133.42,86.57 19.05,6.67 236.8,5.13 391.39,-26.65 154.59,-31.77 297.52,-353.66 297.52,-353.66 l 17.43,89.22 c 0,0 -15.69,172.34 -15.69,211.25 -0.01,38.91 -65.65,167.48 -82.91,187.25 -17.24,19.77 -183.56,113.45 -201.53,122.65 -17.97,9.19 -164.09,48.36 -234.1,34.53 -70.02,-13.83 -248.4,-97.34 -287.76,-129.19 -39.37,-31.86 -50.66,-41.72 -71.88,-80.13 -21.21,-38.41 0.15,-266.39 0.15,-266.39" /><path
         id="path398"
         style="fill:#17282f;fill-opacity:1;fill-rule:nonzero;stroke:none"
         d="m 1604.14,3517.63 c 0.32,0.84 -3.86,2.4 -7.66,7.68 -3.92,5.14 -6.43,14.14 -3.68,23.81 2.54,9.67 8.37,17.26 12.52,22.7 4.27,5.45 6.95,8.94 6.37,9.51 -0.54,0.53 -4.18,-1.9 -9.36,-6.81 -5.01,-4.9 -12.04,-12.75 -15.04,-23.96 -3.29,-11.2 0.58,-22.67 6.12,-27.85 5.48,-5.55 10.69,-5.73 10.73,-5.08" /><path
         id="path400"
         style="fill:#17282f;fill-opacity:1;fill-rule:nonzero;stroke:none"
         d="m 1652.84,3557.05 c -0.55,-0.64 1.87,-2.96 1.32,-7.36 -0.26,-2.09 -1.31,-4.59 -3.26,-5.87 -1.85,-1.33 -4.76,-1.21 -7.3,0.41 -2.51,1.67 -3.79,4.29 -3.32,6.52 0.39,2.3 2.25,4.27 4.06,5.35 3.8,2.28 6.9,0.99 7.27,1.76 0.62,0.4 -2.72,3.93 -8.9,1.91 -2.81,-1 -6.24,-3.35 -7.53,-7.82 -1.39,-4.54 1.17,-9.9 5.31,-12.48 4.03,-2.75 9.97,-2.93 13.57,0.17 3.56,2.98 4.34,7.07 4.12,10.05 -0.65,6.46 -5.22,8.1 -5.34,7.36" /><path
         id="path402"
         style="fill:#17282f;fill-opacity:1;fill-rule:nonzero;stroke:none"
         d="m 1724.21,3552.74 c -0.55,-0.65 1.87,-2.97 1.32,-7.36 -0.25,-2.09 -1.3,-4.6 -3.26,-5.88 -1.84,-1.32 -4.76,-1.21 -7.3,0.41 -2.51,1.67 -3.79,4.29 -3.32,6.52 0.39,2.3 2.25,4.27 4.07,5.35 3.8,2.27 6.89,1 7.27,1.76 0.62,0.41 -2.73,3.93 -8.9,1.92 -2.81,-1 -6.25,-3.37 -7.53,-7.83 -1.39,-4.54 1.17,-9.9 5.31,-12.49 4.02,-2.74 9.96,-2.92 13.56,0.18 3.57,2.98 4.34,7.07 4.13,10.05 -0.65,6.45 -5.23,8.1 -5.35,7.37" /><path
         id="path404"
         style="fill:#17282f;fill-opacity:1;fill-rule:nonzero;stroke:none"
         d="m 1795.59,3548.42 c -0.55,-0.65 1.87,-2.97 1.32,-7.37 -0.26,-2.09 -1.31,-4.59 -3.26,-5.86 -1.85,-1.34 -4.77,-1.22 -7.3,0.4 -2.51,1.67 -3.79,4.29 -3.32,6.52 0.39,2.3 2.25,4.28 4.06,5.35 3.8,2.27 6.9,1 7.27,1.76 0.62,0.41 -2.72,3.93 -8.9,1.92 -2.81,-1 -6.24,-3.36 -7.53,-7.82 -1.39,-4.55 1.17,-9.92 5.31,-12.49 4.03,-2.75 9.97,-2.93 13.56,0.17 3.57,2.98 4.35,7.07 4.13,10.05 -0.64,6.46 -5.22,8.1 -5.34,7.37" /><path
         id="path406"
         style="fill:#17282f;fill-opacity:1;fill-rule:nonzero;stroke:none"
         d="m 1866.96,3544.1 c -0.55,-0.65 1.87,-2.97 1.32,-7.37 -0.25,-2.09 -1.3,-4.59 -3.26,-5.87 -1.84,-1.33 -4.76,-1.21 -7.3,0.41 -2.51,1.68 -3.79,4.29 -3.31,6.52 0.38,2.3 2.24,4.28 4.05,5.35 3.81,2.27 6.9,1 7.28,1.76 0.62,0.4 -2.73,3.93 -8.9,1.92 -2.81,-1 -6.25,-3.36 -7.54,-7.83 -1.38,-4.54 1.18,-9.9 5.32,-12.48 4.02,-2.75 9.96,-2.92 13.56,0.17 3.57,2.98 4.34,7.07 4.13,10.05 -0.65,6.46 -5.23,8.11 -5.35,7.37" /><path
         id="path408"
         style="fill:#17282f;fill-opacity:1;fill-rule:nonzero;stroke:none"
         d="m 1938.34,3539.78 c -0.55,-0.65 1.87,-2.97 1.32,-7.36 -0.26,-2.09 -1.31,-4.6 -3.26,-5.88 -1.85,-1.33 -4.76,-1.21 -7.31,0.41 -2.5,1.68 -3.78,4.3 -3.31,6.52 0.38,2.31 2.25,4.28 4.06,5.35 3.8,2.27 6.9,1 7.27,1.76 0.62,0.4 -2.72,3.93 -8.9,1.92 -2.81,-1 -6.24,-3.36 -7.53,-7.83 -1.39,-4.53 1.17,-9.9 5.31,-12.48 4.03,-2.75 9.97,-2.93 13.56,0.17 3.57,2.98 4.34,7.07 4.13,10.05 -0.65,6.46 -5.22,8.1 -5.34,7.37" /><path
         id="path410"
         style="fill:#17282f;fill-opacity:1;fill-rule:nonzero;stroke:none"
         d="m 1810.02,3713.91 c -13.2,0.58 -19.46,19.05 -32.67,19 -13.21,-0.04 -26.13,-7.68 -32.53,-19.24 -4.74,12.24 -18.01,20.61 -31.1,19.61 -13.08,-0.99 -24.93,-11.27 -27.76,-24.09 -10.13,3.33 -21.34,6.64 -31.18,2.51 -9.83,-4.13 -14.77,-19.48 -5.96,-25.49 -12.99,7.5 -30.08,10.23 -42.72,2.15 -12.64,-8.08 -16.14,-29.22 -3.96,-37.99 -14.35,6.62 -33.04,1.86 -42.46,-10.83 -9.43,-12.68 -8.6,-31.95 1.88,-43.78 2.45,-2.75 5.61,-5.23 9.28,-5.45 6.7,-0.4 11.47,6.7 12.7,13.3 1.24,6.59 0.5,13.64 3.22,19.77 2.72,6.13 11.27,10.45 16.15,5.84 -6.6,-11.2 -12.99,-26.17 -4.62,-36.11 5.77,-6.86 11.66,-14.96 20.62,-15.15 50.91,-1.1 307.18,-23.27 358.08,-24.37 0,0 -44.65,154.9 -166.97,160.32" /><path
         id="path412"
         style="fill:#17282f;fill-opacity:1;fill-rule:nonzero;stroke:none"
         d="m 2292.46,3165.37 c 1.56,-13.62 15.9,-22.03 29.3,-24.91 13.4,-2.89 27.8,-2.62 39.91,-9.03 12.12,-6.41 20.23,-23.55 11.29,-33.94 -7.39,-8.6 -21.01,-7.11 -31.82,-3.69 -48.78,15.44 -88.51,56.81 -101.99,106.16 -17.79,-11.85 -43.4,-2.26 -56.19,14.87 -12.79,17.13 -16.08,39.33 -18.97,60.52 -55.62,-2.7 -107.98,47.94 -107.16,103.61 0.46,30.8 14.6,62.64 3.47,91.36 0,0 73.76,-54.15 110.02,-104.21 36.26,-50.07 122.14,-200.74 122.14,-200.74" /><path
         id="path414"
         style="fill:#17282f;fill-opacity:1;fill-rule:nonzero;stroke:none"
         d="m 2355.55,3097.75 c 6.77,0.77 12.69,-6.29 12.2,-13.09 -0.49,-6.78 -5.95,-12.46 -12.28,-14.96 -6.34,-2.5 -13.39,-2.36 -20.16,-1.59 -20.36,2.31 -40.09,10.01 -56.64,22.1 -7.13,-13.45 -24.33,-19.77 -39.21,-16.5 -14.88,3.27 -27.1,14.71 -33.94,28.32 -6.85,13.61 -8.84,29.2 -8.63,44.43 -13.54,-9.86 -33.38,-8.08 -46.99,1.68 -13.61,9.76 -21.44,26.05 -24.12,42.58 -2.67,16.53 -0.7,33.45 2.03,49.96 -12.22,-11.73 -34.83,-3.9 -41.95,11.48 -7.12,15.39 -2.18,33.92 6.82,48.28 -21.99,7.25 -33.55,36.26 -22.56,56.63 -9.92,-7.47 -25.43,-1.64 -31.69,9.09 -6.25,10.73 -5.35,24.19 -2.35,36.25 3,12.05 7.89,23.72 9.09,36.07 1.64,16.85 -4.05,34.28 -15.32,46.91 30.25,-5.48 57.2,-23.21 78.8,-45.09 21.61,-21.89 38.47,-47.89 55.19,-73.7 45.5,-70.27 91,-140.54 136.5,-210.8" /><path
         id="path416"
         style="fill:#33535f;fill-opacity:1;fill-rule:nonzero;stroke:none"
         d="m 2037.7,3483.09 c -0.31,-0.32 3.45,-2.48 6.96,-9.1 3.46,-6.49 5.78,-17.9 2.17,-31.43 -1.69,-6.77 -4.63,-14 -7.86,-21.95 -3.17,-7.92 -6.75,-16.8 -7.86,-27.02 -1.09,-9.93 0.03,-22.18 8.76,-31.13 4.42,-4.14 10.17,-7.06 16.54,-7.73 6.23,-0.77 13.65,1.08 18.24,6.63 l -4.17,2.39 c -6.17,-16.68 -3.23,-36.88 7.07,-53.18 10.04,-16.23 28.13,-29.96 49.71,-30.73 l -2.54,3.76 c -7.18,-19.28 -5.83,-41.95 2.92,-61.65 8,-18.28 22.16,-33.6 39.58,-41.77 l -1.58,2.17 c 1.78,-13.27 3.89,-26.43 8.11,-38.82 4.2,-12.33 10.68,-23.94 20.39,-32.28 9.9,-8.12 22.3,-11.83 34.07,-11.41 11.74,0.27 23.45,6.14 28.97,16.01 l -4.01,0.15 c 9.59,-19.12 26.15,-31.38 42.04,-36.82 16.08,-5.63 31.38,-4.32 42.72,-1.09 11.51,3.25 19.46,8.4 24.37,12.24 2.45,1.96 4.23,3.58 5.32,4.76 1.11,1.17 1.64,1.8 1.55,1.89 -0.2,0.22 -2.6,-2.06 -7.66,-5.55 -5.08,-3.43 -13.03,-8.08 -24.24,-10.84 -11.07,-2.76 -25.7,-3.6 -40.82,2.04 -14.99,5.45 -30.47,17.38 -39.19,35.36 l -1.87,3.85 -2.15,-3.71 c -4.79,-8.25 -14.64,-13.18 -25.21,-13.37 -10.53,-0.3 -21.86,3.22 -30.53,10.49 -8.59,7.46 -14.69,18.31 -18.58,30.03 -3.97,11.8 -5.99,24.63 -7.73,37.81 l -0.2,1.51 -1.39,0.66 c -16.04,7.57 -29.26,21.84 -36.76,38.98 -8.2,18.48 -9.45,39.64 -2.88,57.43 l 1.35,3.64 -3.89,0.12 c -19.21,0.59 -35.96,12.95 -45.37,27.97 -9.65,15.07 -12.41,33.56 -6.99,48.69 l 4.63,12.91 -8.8,-10.53 c -6.96,-8.33 -20.93,-5.61 -27.93,1.21 -7.28,7.16 -8.82,18.2 -7.88,27.51 2.12,19.12 11.81,34.45 14.52,48.71 3.35,14.25 0.43,26.23 -3.64,32.82 -4.13,6.73 -8.26,8.37 -8.26,8.37" /><path
         id="path418"
         style="fill:#33535f;fill-opacity:1;fill-rule:nonzero;stroke:none"
         d="m 1605.55,3629.63 c 0.49,0.03 -1.88,3.63 0.75,9.39 1.26,2.7 4.16,5.78 8.4,5.92 4.07,0.26 9.39,-2.58 10.66,-7.6 l 3.2,0.65 c -1.7,11.33 4.18,27.14 18.45,34.79 13.75,7.79 36.44,1.97 44.87,-15.48 l 3.65,3.53 c -3.35,1.6 -4.16,7.18 -2.08,11.27 1.83,4.01 6.98,6.44 12.24,7.04 10.91,1.07 23.09,-1.68 34,-6.46 18.43,-8.22 32.68,-23.22 39.98,-39.54 l 3.73,3.52 c -3.71,1.85 -5.53,6.52 -5.12,11.01 0.36,4.6 2.48,8.54 6.17,11.22 7.29,5.42 17.19,6.06 25.84,5.43 17.67,-1.25 32.37,-8.55 42.72,-16.38 21.02,-16.25 25.41,-32.91 26.4,-32.15 0.15,0.06 -0.1,1.02 -0.73,2.84 -0.55,1.84 -1.7,4.43 -3.37,7.73 -3.37,6.53 -9.63,15.61 -20.19,24.28 -10.47,8.52 -25.67,16.65 -44.46,18.33 -9.14,0.75 -19.98,0.61 -29.3,-6 -4.59,-3.14 -8,-8.97 -8.36,-14.88 -0.62,-5.78 1.63,-13 7.93,-16.28 l 6.83,-3.56 -3.1,7.09 c -7.71,17.63 -22.91,33.71 -42.64,42.53 -11.88,5.11 -24.35,8.08 -37.06,6.83 -6.23,-0.84 -13.24,-3.57 -16.46,-10.2 -1.46,-3.1 -2.02,-6.53 -1.4,-9.93 0.5,-3.36 2.69,-6.82 5.96,-8.49 l 7.31,-3.74 -3.66,7.27 c -10.28,20.42 -35.94,26.36 -51.82,17.15 -16.07,-9.12 -21.87,-26.71 -19.56,-39.26 l 3.2,0.66 c -2.18,6.92 -8.9,9.83 -14.01,9.31 -5.46,-0.53 -8.67,-4.61 -9.83,-7.75 -2.38,-6.86 0.9,-10.39 0.86,-10.09" /><path
         id="path420"
         style="fill:#17282f;fill-opacity:1;fill-rule:nonzero;stroke:none"
         d="m 1429.61,3315.56 c 0.59,-12.64 -3.34,-27.45 -13.73,-40.84 -10.38,-13.39 -24.29,-24.3 -31.71,-39.53 -7.42,-15.24 -4.91,-37.61 10.79,-43.98 -12.7,-17.77 -16.03,-41.84 -8.63,-62.38 7.39,-20.54 25.3,-36.97 46.4,-42.58 3.4,71.26 1.8,170.73 2.13,242.07" /><path
         id="path422"
         style="fill:#943832;fill-opacity:1;fill-rule:nonzero;stroke:none"
         d="m 1683.07,2821.75 c 36.8,20.31 97.99,36.16 130.83,46.62 8.05,2.56 16.6,3.59 24.84,1.77 25.52,-5.63 26.86,-28.95 23.72,-48.15 -4.54,-27.87 -15.85,-54.62 -32.66,-77.31 -11.29,-15.24 -26.18,-29.27 -44.8,-32.87 -15.6,-3.01 -31.6,1.7 -46.83,5.9 -15.97,4.4 -35.78,19.74 -43.95,34.14 -9.06,15.99 -20.41,34.27 -21.92,50.28 -0.75,8.08 3.67,15.7 10.77,19.62" /><path
         id="path424"
         style="fill:#17282f;fill-opacity:1;fill-rule:nonzero;stroke:none"
         d="m 1785,2711.81 c -0.12,0.48 5.04,1.29 13.12,5.58 8.04,4.26 18.5,12.71 28.28,25.86 9.81,13.1 19.68,30.21 26.55,50.74 3.44,10.21 6.14,21.36 7.61,32.91 1.27,11.27 0.72,24.29 -7.32,32.72 -8.03,8.33 -21.05,10.22 -31.95,8.01 -11,-2.69 -22.36,-6.63 -32.78,-9.49 -21.03,-6.12 -39.88,-11.81 -55.55,-17.08 -15.66,-5.27 -28.11,-10.15 -36.61,-13.77 -8.51,-3.58 -13.06,-5.94 -13.28,-5.54 -0.09,0.15 0.96,0.9 3.05,2.19 2.07,1.32 5.23,3.09 9.38,5.19 8.29,4.22 20.64,9.65 36.24,15.4 15.59,5.75 34.42,11.83 55.4,18.2 10.67,3.07 21.04,6.85 33.18,9.91 12.03,2.41 26.74,0.75 36.7,-9.43 4.94,-5 7.38,-11.69 8.49,-18.04 1.08,-6.44 0.81,-12.78 0.12,-18.85 -1.6,-12.09 -4.47,-23.39 -8.14,-33.88 -7.31,-21 -17.77,-38.34 -28.18,-51.44 -10.41,-13.22 -21.67,-21.6 -30.29,-25.42 -4.3,-1.98 -7.86,-2.89 -10.26,-3.43 -2.44,-0.41 -3.73,-0.51 -3.76,-0.34" /><path
         id="path426"
         style="fill:#ffffff;fill-opacity:1;fill-rule:nonzero;stroke:none"
         d="m 1195.28,1669.7 c -0.5,-1.35 -63.61,20.67 -140.95,49.17 -77.353,28.51 -139.639,52.7 -139.146,54.05 0.496,1.35 63.593,-20.66 140.956,-49.16 77.33,-28.5 139.63,-52.71 139.14,-54.06" /><path
         id="path428"
         style="fill:#ffffff;fill-opacity:1;fill-rule:nonzero;stroke:none"
         d="m 3071.99,1969.93 c 0.77,-1.22 -105.84,-69.09 -238.05,-151.55 -132.28,-82.5 -240.08,-148.37 -240.84,-147.14 -0.76,1.22 105.81,69.06 238.07,151.56 132.23,82.47 240.06,148.35 240.82,147.13" /><path
         id="path430"
         style="fill:#17282f;fill-opacity:1;fill-rule:nonzero;stroke:none"
         d="M 4209.39,2.60156 C 4209.39,1.17188 3267,0 2104.79,0 942.176,0 0.00390625,1.17188 0.00390625,2.60156 0.00390625,4.03906 942.176,5.21094 2104.79,5.21094 c 1162.21,0 2104.6,-1.17188 2104.6,-2.60938" /></g></g></svg>